{
.appVersion = "913";
classes = (
{
code = "a d j l q t w  y G W";
name = aalt1;
},
{
code = "a.alt d.alt j.alt l.alt q.alt t.alt w.alt y.alt G.alt W.alt";
name = aalt2;
},
{
code = "zero.lnum one.lnum two.lnum three.lnum four.lnum five.lnum six.lnum seven.lnum eight.lnum nine.lnum";
name = lnum1;
},
{
code = "zero one two three four five six seven eight nine";
name = onum1;
},
{
code = "a b c d e f g h i j k l m n o p q r s t u v w x y z";
name = smcp1;
},
{
code = "A.sc B.sc C.sc D.sc E.sc F.sc G.sc H.sc I.sc J.sc K.sc L.sc M.sc N.sc O.sc P.sc Q.sc R.sc S.sc T.sc U.sc V.sc W.sc X.sc Y.sc Z.sc";
name = smcp2;
}
);
copyright = "Copyright (c) 2010 - 2012, Matt McInerney (matt@pixelspread.com), Pablo Impallari (impallari@gmail.com), Rodrigo Fuenzalida (hello@rfuenzalida.com) with Reserved Font Name \"Raleway\"";
customParameters = (
{
name = licenseURL;
value = "http://scripts.sil.org/OFL";
},
{
name = description;
value = "Raleway is an elegant sans-serif typeface family. Initially designed by Matt McInerney as a single thin weight, it was expanded into a 9 weight family by Pablo Impallari and Rodrigo Fuenzalida in 2012 and iKerned by Igino Marini. It is a display face and the download features both old style and lining numerals, standard and discretionary ligatures, a pretty complete set of diacritics, as well as a stylistic alternate inspired by more geometric sans-serif typefaces than its neo-grotesque inspired default character set.";
},
{
name = trademark;
value = "Raleway is a trademark of Matt McInerney.";
},
{
name = license;
value = "This Font Software is licensed under the SIL Open Font License, Version 1.1. This license is available with a FAQ at: http://scripts.sil.org/OFL";
},
{
name = panose;
value = (
2,
11,
10,
3,
3,
1,
1,
6,
0,
3
);
},
{
name = glyphOrder;
value = (
A,
A.sc,
AE,
AEacute,
acute,
Aacute,
Abreve,
breve,
Acircumflex,
circumflex,
Adieresis,
dieresis,
Agrave,
grave,
Amacron,
macron,
Aogonek,
ogonek,
Aring,
ring,
Aringacute,
Atilde,

glyphs = (
{
glyphname = A;
lastChange = "2016-08-18 22:46:43 +0000";
layers = (
{
anchors = (
{
name = bottom;
position = "{479, 5}";
},
{
name = top;
position = "{403, 708}";
}
);
background = {
paths = (
{
closed = 1;
nodes = (
"-61 0 LINE",
"138 0 LINE",
"203 139 LINE",
"373 139 LINE",
"380 0 LINE",
"578 0 LINE",
"499 710 LINE",
"320 710 LINE"
);
},
{
closed = 1;
nodes = (
"259 269 LINE",
"362 489 LINE",
"370 269 LINE"
);
}
);
};
layerId = UUID0;
paths = (
{
closed = 1;
nodes = (
"-61 0 LINE",
"138 0 LINE",
"203 139 LINE",
"373 139 LINE",
"380 0 LINE",
"578 0 LINE",
"499 710 LINE",
"320 710 LINE"
);
},
{
closed = 1;
nodes = (
"259 269 LINE",
"362 489 LINE",
"370 269 LINE"
);
}
);
width = 636;
}
);
leftKerningGroup = A;
rightKerningGroup = A;
unicode = 0041;
},
{
glyphname = A.sc;
lastChange = "2016-08-18 22:46:43 +0000";
layers = (
{
anchors = (
{
name = bottom;
position = "{570, 8}";
},
{
name = top;
position = "{266, 707}";
}
);
background = {
paths = (
{
closed = 1;
nodes = (
"-67 0 LINE",
"114 0 LINE",
"171 102 LINE",
"330 102 LINE",
"345 0 LINE",
"524 0 LINE",
"419 568 LINE",
"281 568 LINE"
);
},
{
closed = 1;
nodes = (
"238 250 LINE",
"306 363 LINE",
"324 250 LINE"
);
}
);
};
layerId = UUID0;
paths = (
{
closed = 1;
nodes = (
"-67 0 LINE",
"114 0 LINE",
"171 102 LINE",
"330 102 LINE",
"345 0 LINE",
"524 0 LINE",
"419 568 LINE",
"281 568 LINE"
);
},
{
closed = 1;
nodes = (
"238 250 LINE",
"306 363 LINE",
"324 250 LINE"
);
}
);
width = 580;
}
);
},
{
glyphname = AE;
lastChange = "2016-08-18 22:46:43 +0000";
layers = (
{
anchors = (
{
name = top;
position = "{496, 708}";
}
);
background = {
paths = (
{
closed = 1;
nodes = (
"-80 0 LINE",
"126 0 LINE",
"221 139 LINE",
"408 139 LINE",
"378 0 LINE",
"840 0 LINE",
"876 170 LINE",
"609 170 LINE",
"631 276 LINE",
"839 276 LINE",
"875 446 LINE",
"667 446 LINE",
"687 540 LINE",
"946 540 LINE",
"983 710 LINE",
"478 710 LINE"
);
},
{
closed = 1;
nodes = (
"339 309 LINE",
"468 495 LINE",
"429 309 LINE"
);
}
);
};
layerId = UUID0;
paths = (
{
closed = 1;
nodes = (
"-80 0 LINE",
"126 0 LINE",
"221 139 LINE",
"408 139 LINE",
"378 0 LINE",
"840 0 LINE",
"876 170 LINE",
"609 170 LINE",
"631 276 LINE",
"839 276 LINE",
"875 446 LINE",
"667 446 LINE",
"687 540 LINE",
"946 540 LINE",
"983 710 LINE",
"478 710 LINE"
);
},
{
closed = 1;
nodes = (
"339 309 LINE",
"468 495 LINE",
"429 309 LINE"
);
}
);
width = 935;
}
);
leftKerningGroup = AE;
rightKerningGroup = E;
unicode = 00C6;
},
{
glyphname = acute;
lastChange = "2016-08-18 22:46:43 +0000";
layers = (
{
anchors = (
{
name = _top;
position = "{91, 522}";
}
);
background = {
paths = (
{
closed = 1;
nodes = (
"260 730 LINE",
"92 730 LINE",
"15 588 LINE",
"143 576 LINE"
);
}
);
};
layerId = UUID0;
paths = (
{
closed = 1;
nodes = (
"260 730 LINE",
"92 730 LINE",
"15 588 LINE",
"143 576 LINE"
);
}
);
width = 274;
}
);
unicode = 00B4;
},
{
glyphname = breve;
lastChange = "2016-08-18 22:46:43 +0000";
layers = (
{
anchors = (
{
name = _top;
position = "{148, 522}";
}
);
background = {
paths = (
{
closed = 1;
nodes = (
"138 649 OFFCURVE",
"120 674 OFFCURVE",
"120 707 CURVE SMOOTH",
"120 714 OFFCURVE",
"121 722 OFFCURVE",
"123 730 CURVE",
"25 730 LINE",
"22 716 OFFCURVE",
"20 702 OFFCURVE",
"20 689 CURVE SMOOTH",
"20 616 OFFCURVE",
"68 568 OFFCURVE",
"147 568 CURVE SMOOTH",
"239 568 OFFCURVE",
"317 635 OFFCURVE",
"337 730 CURVE",
"239 730 LINE",
"225 683 OFFCURVE",
"193 649 OFFCURVE",
"164 649 CURVE SMOOTH"
);
}
);
};
layerId = UUID0;
paths = (
{
closed = 1;
nodes = (
"164 649 LINE SMOOTH",
"138 649 OFFCURVE",
"120 674 OFFCURVE",
"120 707 CURVE SMOOTH",
"120 714 OFFCURVE",
"121 722 OFFCURVE",
"123 730 CURVE",
"25 730 LINE",
"22 716 OFFCURVE",
"20 702 OFFCURVE",
"20 689 CURVE SMOOTH",
"20 616 OFFCURVE",
"68 568 OFFCURVE",
"147 568 CURVE SMOOTH",
"239 568 OFFCURVE",
"317 635 OFFCURVE",
"337 730 CURVE",
"239 730 LINE",
"225 683 OFFCURVE",
"193 649 OFFCURVE",
"164 649 CURVE SMOOTH"
);
}
);
width = 356;
}
);
unicode = 02D8;
},
{
glyphname = circumflex;
lastChange = "2016-08-18 22:46:43 +0000";
layers = (
{
anchors = (
{
name = _top;
position = "{171, 522}";
}
);
background = {
paths = (
{
closed = 1;
nodes = (
"105 573 LINE",
"199 636 LINE",
"266 573 LINE",
"371 615 LINE",
"287 730 LINE",
"151 730 LINE",
"18 615 LINE"
);
}
);
};
layerId = UUID0;
paths = (
{
closed = 1;
nodes = (
"105 573 LINE",
"199 636 LINE",
"266 573 LINE",
"371 615 LINE",
"287 730 LINE",
"151 730 LINE",
"18 615 LINE"
);
}
);
width = 388;
}
);
unicode = 02C6;
},
{
glyphname = dieresis;
lastChange = "2016-08-18 22:46:43 +0000";
layers = (
{
anchors = (
{
name = _top;
position = "{184, 521}";
}
);
background = {
paths = (
{
closed = 1;
nodes = (
"229 580 LINE",
"259 720 LINE",
"103 720 LINE",
"73 580 LINE"
);
},
{
closed = 1;
nodes = (
"454 580 LINE",
"483 720 LINE",
"328 720 LINE",
"298 580 LINE"
);
}
);
};
layerId = UUID0;
paths = (
{
closed = 1;
nodes = (
"229 580 LINE",
"259 720 LINE",
"103 720 LINE",
"73 580 LINE"
);
},
{
closed = 1;
nodes = (
"454 580 LINE",
"483 720 LINE",
"328 720 LINE",
"298 580 LINE"
);
}
);
width = 556;
}
);
unicode = 00A8;
},
{
glyphname = grave;
lastChange = "2016-08-18 22:46:43 +0000";
layers = (
{
anchors = (
{
name = _top;
position = "{152, 521}";
}
);
background = {
paths = (
{
closed = 1;
nodes = (
"98 574 LINE",
"230 588 LINE",
"213 730 LINE",
"45 730 LINE"
);
}
);
};
layerId = UUID0;
paths = (
{
closed = 1;
nodes = (
"98 574 LINE",
"230 588 LINE",
"213 730 LINE",
"45 730 LINE"
);
}
);
width = 275;
}
);
unicode = 0060;
},
{
glyphname = macron;
lastChange = "2016-08-18 22:46:43 +0000";
layers = (
{
anchors = (
{
name = _top;
position = "{201, 522}";
}
);
background = {
paths = (
{
closed = 1;
nodes = (
"346 607 LINE",
"370 720 LINE",
"74 720 LINE",
"50 607 LINE"
);
}
);
};
layerId = UUID0;
paths = (
{
closed = 1;
nodes = (
"346 607 LINE",
"370 720 LINE",
"74 720 LINE",
"50 607 LINE"
);
}
);
width = 420;
}
);
unicode = 00AF;
},
{
glyphname = ogonek;
lastChange = "2016-08-18 22:46:43 +0000";
layers = (
{
anchors = (
{
name = _bottom;
position = "{167, 0}";
}
);
background = {
paths = (
{
closed = 1;
nodes = (
"233 -114 LINE",
"191 -114 OFFCURVE",
"172 -101 OFFCURVE",
"172 -82 CURVE SMOOTH",
"172 -58 OFFCURVE",
"204 -29 OFFCURVE",
"257 1 CURVE",
"206 25 LINE",
"102 -17 OFFCURVE",
"46 -75 OFFCURVE",
"46 -125 CURVE SMOOTH",
"46 -167 OFFCURVE",
"87 -203 OFFCURVE",
"177 -214 CURVE"
);
}
);
};
layerId = UUID0;
paths = (
{
closed = 1;
nodes = (
"177 -214 LINE",
"233 -114 LINE",
"191 -114 OFFCURVE",
"172 -101 OFFCURVE",
"172 -82 CURVE SMOOTH",
"172 -58 OFFCURVE",
"204 -29 OFFCURVE",
"257 1 CURVE",
"206 25 LINE",
"102 -17 OFFCURVE",
"46 -75 OFFCURVE",
"46 -125 CURVE SMOOTH",
"46 -167 OFFCURVE",
"87 -203 OFFCURVE",
"177 -214 CURVE"
);
}
);
width = 323;
}
);
unicode = 02DB;
},
{
glyphname = ring;
lastChange = "2016-08-18 22:46:43 +0000";
layers = (
{
anchors = (
{
name = _top;
position = "{126, 522}";
}
);
background = {
paths = (
{
closed = 1;
nodes = (
"15 580 OFFCURVE",
"53 556 OFFCURVE",
"114 556 CURVE SMOOTH",
"194 556 OFFCURVE",
"249 592 OFFCURVE",
"249 660 CURVE SMOOTH",
"249 706 OFFCURVE",
"212 730 OFFCURVE",
"151 730 CURVE SMOOTH",
"70 730 OFFCURVE",
"15 694 OFFCURVE",
"15 626 CURVE SMOOTH"
);
},
{
closed = 1;
nodes = (
"158 676 OFFCURVE",
"171 665 OFFCURVE",
"171 649 CURVE SMOOTH",
"171 627 OFFCURVE",
"149 610 OFFCURVE",
"125 610 CURVE SMOOTH",
"106 610 OFFCURVE",
"94 621 OFFCURVE",
"94 638 CURVE SMOOTH",
"94 660 OFFCURVE",
"114 676 OFFCURVE",
"139 676 CURVE SMOOTH"
);
}
);
};
layerId = UUID0;
paths = (
{
closed = 1;
nodes = (
"15 626 LINE SMOOTH",
"15 580 OFFCURVE",
"53 556 OFFCURVE",
"114 556 CURVE SMOOTH",
"194 556 OFFCURVE",
"249 592 OFFCURVE",
"249 660 CURVE SMOOTH",
"249 706 OFFCURVE",
"212 730 OFFCURVE",
"151 730 CURVE SMOOTH",
"70 730 OFFCURVE",
"15 694 OFFCURVE",
"15 626 CURVE SMOOTH"
);
},
{
closed = 1;
nodes = (
"139 676 LINE SMOOTH",
"158 676 OFFCURVE",
"171 665 OFFCURVE",
"171 649 CURVE SMOOTH",
"171 627 OFFCURVE",
"149 610 OFFCURVE",
"125 610 CURVE SMOOTH",
"106 610 OFFCURVE",
"94 621 OFFCURVE",
"94 638 CURVE SMOOTH",
"94 660 OFFCURVE",
"114 676 OFFCURVE",
"139 676 CURVE SMOOTH"
);
}
);
width = 263;
}
);
unicode = 02DA;
},
{
glyphname = tilde;
lastChange = "2016-08-18 22:46:43 +0000";
layers = (
{
anchors = (
{
name = _top;
position = "{208, 522}";
}
);
background = {
paths = (
{
closed = 1;
nodes = (
"371 572 OFFCURVE",
"440 707 OFFCURVE",
"445 730 CURVE",
"345 730 LINE",
"344 727 OFFCURVE",
"328 679 OFFCURVE",
"287 679 CURVE SMOOTH",
"244 679 OFFCURVE",
"232 730 OFFCURVE",
"169 730 CURVE SMOOTH",
"72 730 OFFCURVE",
"7 607 OFFCURVE",
"0 572 CURVE",
"101 572 LINE",
"101 574 OFFCURVE",
"111 620 OFFCURVE",
"154 620 CURVE SMOOTH",
"197 620 OFFCURVE",
"214 572 OFFCURVE",
"272 572 CURVE SMOOTH"
);
}
);
};
layerId = UUID0;
paths = (
{
closed = 1;
nodes = (
"272 572 LINE SMOOTH",
"371 572 OFFCURVE",
"440 707 OFFCURVE",
"445 730 CURVE",
"345 730 LINE",
"344 727 OFFCURVE",
"328 679 OFFCURVE",
"287 679 CURVE SMOOTH",
"244 679 OFFCURVE",
"232 730 OFFCURVE",
"169 730 CURVE SMOOTH",
"72 730 OFFCURVE",
"7 607 OFFCURVE",
"0 572 CURVE",
"101 572 LINE",
"101 574 OFFCURVE",
"111 620 OFFCURVE",
"154 620 CURVE SMOOTH",
"197 620 OFFCURVE",
"214 572 OFFCURVE",
"272 572 CURVE SMOOTH"
);
}
);
width = 446;
}
);
unicode = 02DC;
},
{
glyphname = B;
lastChange = "2016-08-18 22:46:43 +0000";
layers = (
{
background = {
paths = (
{
closed = 1;
nodes = (
"-3 0 LINE",
"330 0 LINE SMOOTH",
"483 0 OFFCURVE",
"621 66 OFFCURVE",
"621 225 CURVE SMOOTH",
"621 297 OFFCURVE",
"586 345 OFFCURVE",
"528 364 CURVE",
"615 400 OFFCURVE",
"665 485 OFFCURVE",
"665 564 CURVE SMOOTH",
"665 639 OFFCURVE",
"624 710 OFFCURVE",
"545 710 CURVE SMOOTH",
"148 710 LINE"
);
},
{
closed = 1;
nodes = (
"227 164 LINE",
"252 283 LINE",
"396 283 LINE SMOOTH",
"416 283 OFFCURVE",
"428 264 OFFCURVE",
"428 238 CURVE SMOOTH",
"428 192 OFFCURVE",
"397 164 OFFCURVE",
"365 164 CURVE SMOOTH"
);
},
{
closed = 1;
nodes = (
"284 435 LINE",
"308 544 LINE",
"431 544 LINE",
"448 544 OFFCURVE",
"461 533 OFFCURVE",
"461 506 CURVE SMOOTH",
"461 451 OFFCURVE",
"428 435 OFFCURVE",
"402 435 CURVE SMOOTH"
);
}
);
};
layerId = UUID0;
paths = (
{
closed = 1;
nodes = (
"-3 0 LINE",
"330 0 LINE SMOOTH",
"483 0 OFFCURVE",
"621 66 OFFCURVE",
"621 225 CURVE SMOOTH",
"621 297 OFFCURVE",
"586 345 OFFCURVE",
"528 364 CURVE",
"615 400 OFFCURVE",
"665 485 OFFCURVE",
"665 564 CURVE SMOOTH",
"665 639 OFFCURVE",
"624 710 OFFCURVE",
"545 710 CURVE SMOOTH",
"148 710 LINE"
);
},
{
closed = 1;
nodes = (
"227 164 LINE",
"252 283 LINE",
"396 283 LINE SMOOTH",
"416 283 OFFCURVE",
"428 264 OFFCURVE",
"428 238 CURVE SMOOTH",
"428 192 OFFCURVE",
"397 164 OFFCURVE",
"365 164 CURVE SMOOTH"
);
},
{
closed = 1;
nodes = (
"284 435 LINE",
"308 544 LINE",
"431 544 LINE",
"448 544 OFFCURVE",
"461 533 OFFCURVE",
"461 506 CURVE SMOOTH",
"461 451 OFFCURVE",
"428 435 OFFCURVE",
"402 435 CURVE SMOOTH"
);
}
);
width = 667;
}
);
leftKerningGroup = I;
unicode = 0042;
},
{
glyphname = B.sc;
lastChange = "2016-08-18 22:46:43 +0000";
layers = (
{
background = {
paths = (
{
closed = 1;
nodes = (
"-9 0 LINE",
"286 0 LINE SMOOTH",
"418 0 OFFCURVE",
"538 49 OFFCURVE",
"538 178 CURVE SMOOTH",
"538 238 OFFCURVE",
"506 275 OFFCURVE",
"453 291 CURVE",
"527 319 OFFCURVE",
"570 386 OFFCURVE",
"570 448 CURVE SMOOTH",
"570 509 OFFCURVE",
"533 568 OFFCURVE",
"461 568 CURVE SMOOTH",
"112 568 LINE"
);
},
{
closed = 1;
nodes = (
"191 143 LINE",
"208 221 LINE",
"338 221 LINE SMOOTH",
"357 221 OFFCURVE",
"369 208 OFFCURVE",
"369 189 CURVE SMOOTH",
"369 158 OFFCURVE",
"344 143 OFFCURVE",
"316 143 CURVE SMOOTH"
);
},
{
closed = 1;
nodes = (
"236 354 LINE",
"251 423 LINE",
"362 423 LINE",
"378 423 OFFCURVE",
"392 417 OFFCURVE",
"392 397 CURVE SMOOTH",
"392 357 OFFCURVE",
"368 354 OFFCURVE",
"343 354 CURVE SMOOTH"
);
}
);
};
layerId = UUID0;
paths = (
{
closed = 1;
nodes = (
"-9 0 LINE",
"286 0 LINE SMOOTH",
"418 0 OFFCURVE",
"538 49 OFFCURVE",
"538 178 CURVE SMOOTH",
"538 238 OFFCURVE",
"506 275 OFFCURVE",
"453 291 CURVE",
"527 319 OFFCURVE",
"570 386 OFFCURVE",
"570 448 CURVE SMOOTH",
"570 509 OFFCURVE",
"533 568 OFFCURVE",
"461 568 CURVE SMOOTH",
"112 568 LINE"
);
},
{
closed = 1;
nodes = (
"191 143 LINE",
"208 221 LINE",
"338 221 LINE SMOOTH",
"357 221 OFFCURVE",
"369 208 OFFCURVE",
"369 189 CURVE SMOOTH",
"369 158 OFFCURVE",
"344 143 OFFCURVE",
"316 143 CURVE SMOOTH"
);
},
{
closed = 1;
nodes = (
"236 354 LINE",
"251 423 LINE",
"362 423 LINE",
"378 423 OFFCURVE",
"392 417 OFFCURVE",
"392 397 CURVE SMOOTH",
"392 357 OFFCURVE",
"368 354 OFFCURVE",
"343 354 CURVE SMOOTH"
);
}
);
width = 592;
}
);
leftKerningGroup = I.sc;
},
{
glyphname = C;
lastChange = "2016-08-18 22:46:43 +0000";
layers = (
{
anchors = (
{
name = bottom;
position = "{303, 0}";
},
{
name = top;
position = "{454, 708}";
}
);
background = {
paths = (
{
closed = 1;
nodes = (
"415 -6 OFFCURVE",
"563 54 OFFCURVE",
"625 159 CURVE",
"486 254 LINE",
"452 190 OFFCURVE",
"388 167 OFFCURVE",
"340 167 CURVE SMOOTH",
"264 167 OFFCURVE",
"227 233 OFFCURVE",
"227 311 CURVE SMOOTH",
"227 410 OFFCURVE",
"294 541 OFFCURVE",
"417 541 CURVE SMOOTH",
"466 541 OFFCURVE",
"523 522 OFFCURVE",
"533 453 CURVE",
"704 559 LINE",
"677 652 OFFCURVE",
"588 714 OFFCURVE",
"458 714 CURVE SMOOTH",
"211 714 OFFCURVE",
"28 495 OFFCURVE",
"28 298 CURVE SMOOTH",
"28 142 OFFCURVE",
"127 -6 OFFCURVE",
"299 -6 CURVE SMOOTH"
);
}
);
};
layerId = UUID0;
paths = (
{
closed = 1;
nodes = (
"299 -6 LINE SMOOTH",
"415 -6 OFFCURVE",
"563 54 OFFCURVE",
"625 159 CURVE",
"486 254 LINE",
"452 190 OFFCURVE",
"388 167 OFFCURVE",
"340 167 CURVE SMOOTH",
"264 167 OFFCURVE",
"227 233 OFFCURVE",
"227 311 CURVE SMOOTH",
"227 410 OFFCURVE",
"294 541 OFFCURVE",
"417 541 CURVE SMOOTH",
"466 541 OFFCURVE",
"523 522 OFFCURVE",
"533 453 CURVE",
"704 559 LINE",
"677 652 OFFCURVE",
"588 714 OFFCURVE",
"458 714 CURVE SMOOTH",
"211 714 OFFCURVE",
"28 495 OFFCURVE",
"28 298 CURVE SMOOTH",
"28 142 OFFCURVE",
"127 -6 OFFCURVE",
"299 -6 CURVE SMOOTH"
);
}
);
width = 664;
}
);
leftKerningGroup = O;
rightKerningGroup = C;
unicode = 0043;
},
{
glyphname = C.sc;
lastChange = "2016-08-18 22:46:43 +0000";
layers = (
{
anchors = (
{
name = bottom;
position = "{319, 0}";
},
{
name = top;
position = "{320, 707}";
}
);
background = {
paths = (
{
closed = 1;
nodes = (
"346 -5 OFFCURVE",
"468 43 OFFCURVE",
"521 127 CURVE",
"400 211 LINE",
"374 163 OFFCURVE",
"323 146 OFFCURVE",
"285 146 CURVE SMOOTH",
"221 146 OFFCURVE",
"189 196 OFFCURVE",
"189 254 CURVE SMOOTH",
"189 328 OFFCURVE",
"243 420 OFFCURVE",
"341 420 CURVE SMOOTH",
"378 420 OFFCURVE",
"425 406 OFFCURVE",
"434 354 CURVE",
"583 447 LINE",
"561 522 OFFCURVE",
"485 571 OFFCURVE",
"376 571 CURVE SMOOTH",
"167 571 OFFCURVE",
"15 398 OFFCURVE",
"15 241 CURVE SMOOTH",
"15 115 OFFCURVE",
"101 -5 OFFCURVE",
"249 -5 CURVE SMOOTH"
);
}
);
};
layerId = UUID0;
paths = (
{
closed = 1;
nodes = (
"249 -5 LINE SMOOTH",
"346 -5 OFFCURVE",
"468 43 OFFCURVE",
"521 127 CURVE",
"400 211 LINE",
"374 163 OFFCURVE",
"323 146 OFFCURVE",
"285 146 CURVE SMOOTH",
"221 146 OFFCURVE",
"189 196 OFFCURVE",
"189 254 CURVE SMOOTH",
"189 328 OFFCURVE",
"243 420 OFFCURVE",
"341 420 CURVE SMOOTH",
"378 420 OFFCURVE",
"425 406 OFFCURVE",
"434 354 CURVE",
"583 447 LINE",
"561 522 OFFCURVE",
"485 571 OFFCURVE",
"376 571 CURVE SMOOTH",
"167 571 OFFCURVE",
"15 398 OFFCURVE",
"15 241 CURVE SMOOTH",
"15 115 OFFCURVE",
"101 -5 OFFCURVE",
"249 -5 CURVE SMOOTH"
);
}
);
width = 570;
}
);
leftKerningGroup = O.sc;
},
{
glyphname = caron;
lastChange = "2016-08-18 22:46:43 +0000";
layers = (
{
anchors = (
{
name = _top;
position = "{171, 522}";
}
);
background = {
paths = (
{
closed = 1;
nodes = (
"102 573 LINE",
"238 573 LINE",
"371 688 LINE",
"284 730 LINE",
"190 667 LINE",
"123 730 LINE",
"18 688 LINE"
);
}
);
};
layerId = UUID0;
paths = (
{
closed = 1;
nodes = (
"102 573 LINE",
"238 573 LINE",
"371 688 LINE",
"284 730 LINE",
"190 667 LINE",
"123 730 LINE",
"18 688 LINE"
);
}
);
width = 388;
}
);
unicode = 02C7;
},
{
glyphname = cedilla;
lastChange = "2016-08-18 22:46:43 +0000";
layers = (
{
anchors = (
{
name = _bottom;
position = "{120, 0}";
}
);
background = {
paths = (
{
closed = 1;
nodes = (
"-22 -192 LINE",
"1 -203 OFFCURVE",
"36 -213 OFFCURVE",
"82 -213 CURVE SMOOTH",
"199 -213 OFFCURVE",
"254 -156 OFFCURVE",
"254 -95 CURVE SMOOTH",
"254 -50 OFFCURVE",
"218 -32 OFFCURVE",
"178 -32 CURVE SMOOTH",
"169 -32 OFFCURVE",
"160 -33 OFFCURVE",
"153 -34 CURVE",
"198 17 LINE",
"134 36 LINE",
"44 -96 LINE",
"59 -93 OFFCURVE",
"95 -87 OFFCURVE",
"121 -87 CURVE SMOOTH",
"150 -87 OFFCURVE",
"168 -94 OFFCURVE",
"168 -112 CURVE SMOOTH",
"168 -139 OFFCURVE",
"140 -148 OFFCURVE",
"108 -148 CURVE SMOOTH",
"73 -148 OFFCURVE",
"37 -137 OFFCURVE",
"26 -128 CURVE"
);
}
);
};
layerId = UUID0;
paths = (
{
closed = 1;
nodes = (
"-22 -192 LINE",
"1 -203 OFFCURVE",
"36 -213 OFFCURVE",
"82 -213 CURVE SMOOTH",
"199 -213 OFFCURVE",
"254 -156 OFFCURVE",
"254 -95 CURVE SMOOTH",
"254 -50 OFFCURVE",
"218 -32 OFFCURVE",
"178 -32 CURVE SMOOTH",
"169 -32 OFFCURVE",
"160 -33 OFFCURVE",
"153 -34 CURVE",
"198 17 LINE",
"134 36 LINE",
"44 -96 LINE",
"59 -93 OFFCURVE",
"95 -87 OFFCURVE",
"121 -87 CURVE SMOOTH",
"150 -87 OFFCURVE",
"168 -94 OFFCURVE",
"168 -112 CURVE SMOOTH",
"168 -139 OFFCURVE",
"140 -148 OFFCURVE",
"108 -148 CURVE SMOOTH",
"73 -148 OFFCURVE",
"37 -137 OFFCURVE",
"26 -128 CURVE"
);
}
);
width = 350;
}
);
unicode = 00B8;
},
{
glyphname = dotaccent;
lastChange = "2016-08-18 22:46:43 +0000";
layers = (
{
anchors = (
{
name = _top;
position = "{90, 522}";
}
);
background = {
paths = (
{
closed = 1;
nodes = (
"202 580 LINE",
"234 730 LINE",
"64 730 LINE",
"32 580 LINE"
);
}
);
};
layerId = UUID0;
paths = (
{
closed = 1;
nodes = (
"202 580 LINE",
"234 730 LINE",
"64 730 LINE",
"32 580 LINE"
);
}
);
width = 265;
}
);
unicode = 02D9;
},
{
glyphname = D;
lastChange = "2016-08-18 22:46:43 +0000";
layers = (
{
anchors = (
{
name = top;
position = "{420, 708}";
}
);
background = {
paths = (
{
closed = 1;
nodes = (
"-3 0 LINE",
"259 0 LINE",
"502 0 OFFCURVE",
"686 183 OFFCURVE",
"686 433 CURVE SMOOTH",
"686 588 OFFCURVE",
"598 710 OFFCURVE",
"410 710 CURVE SMOOTH",
"148 710 LINE"
);
},
{
closed = 1;
nodes = (
"228 170 LINE",
"307 540 LINE",
"374 540 LINE SMOOTH",
"446 540 OFFCURVE",
"485 486 OFFCURVE",
"485 405 CURVE SMOOTH",
"485 280 OFFCURVE",
"407 170 OFFCURVE",
"295 170 CURVE SMOOTH"
);
}
);
};
layerId = UUID0;
paths = (
{
closed = 1;
nodes = (
"-3 0 LINE",
"259 0 LINE",
"502 0 OFFCURVE",
"686 183 OFFCURVE",
"686 433 CURVE SMOOTH",
"686 588 OFFCURVE",
"598 710 OFFCURVE",
"410 710 CURVE SMOOTH",
"148 710 LINE"
);
},
{
closed = 1;
nodes = (
"228 170 LINE",
"307 540 LINE",
"374 540 LINE SMOOTH",
"446 540 OFFCURVE",
"485 486 OFFCURVE",
"485 405 CURVE SMOOTH",
"485 280 OFFCURVE",
"407 170 OFFCURVE",
"295 170 CURVE SMOOTH"
);
}
);
width = 693;
}
);
leftKerningGroup = I;
rightKerningGroup = D;
unicode = 0044;
},
{
glyphname = D.sc;
lastChange = "2016-08-18 22:46:43 +0000";
layers = (
{
anchors = (
{
name = top;
position = "{293, 707}";
}
);
background = {
paths = (
{
closed = 1;
nodes = (
"-9 0 LINE",
"226 0 LINE",
"441 0 OFFCURVE",
"602 142 OFFCURVE",
"602 340 CURVE SMOOTH",
"602 468 OFFCURVE",
"520 568 OFFCURVE",
"347 568 CURVE SMOOTH",
"112 568 LINE"
);
},
{
closed = 1;
nodes = (
"192 148 LINE",
"250 420 LINE",
"315 420 LINE SMOOTH",
"387 420 OFFCURVE",
"426 378 OFFCURVE",
"426 314 CURVE SMOOTH",
"426 223 OFFCURVE",
"359 148 OFFCURVE",
"257 148 CURVE SMOOTH"
);
}
);
};
layerId = UUID0;
paths = (
{
closed = 1;
nodes = (
"-9 0 LINE",
"226 0 LINE",
"441 0 OFFCURVE",
"602 142 OFFCURVE",
"602 340 CURVE SMOOTH",
"602 468 OFFCURVE",
"520 568 OFFCURVE",
"347 568 CURVE SMOOTH",
"112 568 LINE"
);
},
{
closed = 1;
nodes = (
"192 148 LINE",
"250 420 LINE",
"315 420 LINE SMOOTH",
"387 420 OFFCURVE",
"426 378 OFFCURVE",
"426 314 CURVE SMOOTH",
"426 223 OFFCURVE",
"359 148 OFFCURVE",
"257 148 CURVE SMOOTH"
);
}
);
width = 625;
}
);
leftKerningGroup = I.sc;
},
{
glyphname = Dcroat;
lastChange = "2016-08-18 22:46:43 +0000";
layers = (
{
background = {
paths = (
{
closed = 1;
nodes = (
"28 287 LINE",
"360 287 LINE",
"390 427 LINE",
"57 427 LINE"
);
},
{
closed = 1;
nodes = (
"0 0 LINE",
"262 0 LINE",
"505 0 OFFCURVE",
"689 183 OFFCURVE",
"689 433 CURVE SMOOTH",
"689 588 OFFCURVE",
"601 710 OFFCURVE",
"413 710 CURVE SMOOTH",
"151 710 LINE"
);
},
{
closed = 1;
nodes = (
"231 170 LINE",
"310 540 LINE",
"377 540 LINE SMOOTH",
"449 540 OFFCURVE",
"488 486 OFFCURVE",
"488 405 CURVE SMOOTH",
"488 280 OFFCURVE",
"410 170 OFFCURVE",
"298 170 CURVE SMOOTH"
);
}
);
};
layerId = UUID0;
paths = (
{
closed = 1;
nodes = (
"28 287 LINE",
"360 287 LINE",
"390 427 LINE",
"57 427 LINE"
);
},
{
closed = 1;
nodes = (
"0 0 LINE",
"262 0 LINE",
"505 0 OFFCURVE",
"689 183 OFFCURVE",
"689 433 CURVE SMOOTH",
"689 588 OFFCURVE",
"601 710 OFFCURVE",
"413 710 CURVE SMOOTH",
"151 710 LINE"
);
},
{
closed = 1;
nodes = (
"231 170 LINE",
"310 540 LINE",
"377 540 LINE SMOOTH",
"449 540 OFFCURVE",
"488 486 OFFCURVE",
"488 405 CURVE SMOOTH",
"488 280 OFFCURVE",
"410 170 OFFCURVE",
"298 170 CURVE SMOOTH"
);
}
);
width = 696;
}
);
leftKerningGroup = I;
rightKerningGroup = D;
unicode = 0110;
},
{
glyphname = E;
lastChange = "2016-08-18 22:46:43 +0000";
layers = (
{
anchors = (
{
name = bottom;
position = "{235, 0}";
},
{
name = top;
position = "{379, 708}";
}
);
background = {
paths = (
{
closed = 1;
nodes = (
"-3 0 LINE",
"480 0 LINE",
"516 170 LINE",
"228 170 LINE",
"252 282 LINE",
"490 282 LINE",
"524 440 LINE",
"286 440 LINE",
"307 540 LINE",
"586 540 LINE",
"622 710 LINE",
"148 710 LINE"
);
}
);
};
layerId = UUID0;
paths = (
{
closed = 1;
nodes = (
"-3 0 LINE",
"480 0 LINE",
"516 170 LINE",
"228 170 LINE",
"252 282 LINE",
"490 282 LINE",
"524 440 LINE",
"286 440 LINE",
"307 540 LINE",
"586 540 LINE",
"622 710 LINE",
"148 710 LINE"
);
}
);
width = 575;
}
);
leftKerningGroup = I;
rightKerningGroup = E;
unicode = 0045;
},
{
glyphname = E.sc;
lastChange = "2016-08-18 22:46:43 +0000";
layers = (
{
anchors = (
{
name = bottom;
position = "{284, 0}";
},
{
name = top;
position = "{284, 707}";
}
);
background = {
paths = (
{
closed = 1;
nodes = (
"-9 0 LINE",
"426 0 LINE",
"458 148 LINE",
"192 148 LINE",
"208 220 LINE",
"428 220 LINE",
"457 358 LINE",
"237 358 LINE",
"250 420 LINE",
"508 420 LINE",
"539 568 LINE",
"112 568 LINE"
);
}
);
};
layerId = UUID0;
paths = (
{
closed = 1;
nodes = (
"-9 0 LINE",
"426 0 LINE",
"458 148 LINE",
"192 148 LINE",
"208 220 LINE",
"428 220 LINE",
"457 358 LINE",
"237 358 LINE",
"250 420 LINE",
"508 420 LINE",
"539 568 LINE",
"112 568 LINE"
);
}
);
width = 523;
}
);
leftKerningGroup = I.sc;
},
{
glyphname = Eng;
lastChange = "2016-08-18 22:46:43 +0000";
layers = (
{
background = {
paths = (
{
closed = 1;
nodes = (
"450 -209 OFFCURVE",
"553 -125 OFFCURVE",
"581 5 CURVE SMOOTH",
"731 709 LINE",
"536 709 LINE",
"462 359 LINE",
"298 710 LINE",
"148 710 LINE",
"-3 0 LINE",
"192 0 LINE",
"265 343 LINE",
"400 44 LINE",
"390 -3 LINE SMOOTH",
"384 -30 OFFCURVE",
"369 -46 OFFCURVE",
"347 -46 CURVE SMOOTH",
"330 -46 OFFCURVE",
"315 -38 OFFCURVE",
"308 -26 CURVE",
"203 -155 LINE",
"236 -190 OFFCURVE",
"283 -209 OFFCURVE",
"336 -209 CURVE SMOOTH"
);
}
);
};
layerId = UUID0;
paths = (
{
closed = 1;
nodes = (
"336 -209 LINE SMOOTH",
"450 -209 OFFCURVE",
"553 -125 OFFCURVE",
"581 5 CURVE SMOOTH",
"731 709 LINE",
"536 709 LINE",
"462 359 LINE",
"298 710 LINE",
"148 710 LINE",
"-3 0 LINE",
"192 0 LINE",
"265 343 LINE",
"400 44 LINE",
"390 -3 LINE SMOOTH",
"384 -30 OFFCURVE",
"369 -46 OFFCURVE",
"347 -46 CURVE SMOOTH",
"330 -46 OFFCURVE",
"315 -38 OFFCURVE",
"308 -26 CURVE",
"203 -155 LINE",
"236 -190 OFFCURVE",
"283 -209 OFFCURVE",
"336 -209 CURVE SMOOTH"
);
}
);
width = 705;
}
);
leftKerningGroup = I;
rightKerningGroup = I;
unicode = 014A;
},
{
glyphname = Eth;
lastChange = "2016-08-18 22:46:43 +0000";
layers = (
{
background = {
paths = (
{
closed = 1;
nodes = (
"28 287 LINE",
"360 287 LINE",
"390 427 LINE",
"57 427 LINE"
);
},
{
closed = 1;
nodes = (
"0 0 LINE",
"262 0 LINE",
"505 0 OFFCURVE",
"689 183 OFFCURVE",
"689 433 CURVE SMOOTH",
"689 588 OFFCURVE",
"601 710 OFFCURVE",
"413 710 CURVE SMOOTH",
"151 710 LINE"
);
},
{
closed = 1;
nodes = (
"231 170 LINE",
"310 540 LINE",
"377 540 LINE SMOOTH",
"449 540 OFFCURVE",
"488 486 OFFCURVE",
"488 405 CURVE SMOOTH",
"488 280 OFFCURVE",
"410 170 OFFCURVE",
"298 170 CURVE SMOOTH"
);
}
);
};
layerId = UUID0;
paths = (
{
closed = 1;
nodes = (
"28 287 LINE",
"360 287 LINE",
"390 427 LINE",
"57 427 LINE"
);
},
{
closed = 1;
nodes = (
"0 0 LINE",
"262 0 LINE",
"505 0 OFFCURVE",
"689 183 OFFCURVE",
"689 433 CURVE SMOOTH",
"689 588 OFFCURVE",
"601 710 OFFCURVE",
"413 710 CURVE SMOOTH",
"151 710 LINE"
);
},
{
closed = 1;
nodes = (
"231 170 LINE",
"310 540 LINE",
"377 540 LINE SMOOTH",
"449 540 OFFCURVE",
"488 486 OFFCURVE",
"488 405 CURVE SMOOTH",
"488 280 OFFCURVE",
"410 170 OFFCURVE",
"298 170 CURVE SMOOTH"
);
}
);
width = 696;
}
);
leftKerningGroup = I;
rightKerningGroup = D;
unicode = 00D0;
},
{
glyphname = Euro;
lastChange = "2016-08-18 22:46:43 +0000";
layers = (
{
background = {
paths = (
{
closed = 1;
nodes = (
"398 221 LINE",
"459 321 LINE",
"79 321 LINE",
"18 221 LINE"
);
},
{
closed = 1;
nodes = (
"107 464 LINE",
"46 364 LINE",
"455 364 LINE",
"516 464 LINE"
);
},
{
closed = 1;
nodes = (
"102 142 OFFCURVE",
"200 -6 OFFCURVE",
"373 -6 CURVE SMOOTH",
"489 -6 OFFCURVE",
"637 54 OFFCURVE",
"699 159 CURVE",
"560 254 LINE",
"525 190 OFFCURVE",
"462 167 OFFCURVE",
"414 167 CURVE SMOOTH",
"338 167 OFFCURVE",
"301 233 OFFCURVE",
"301 311 CURVE SMOOTH",
"301 410 OFFCURVE",
"368 541 OFFCURVE",
"491 541 CURVE SMOOTH",
"540 541 OFFCURVE",
"597 522 OFFCURVE",
"607 453 CURVE",
"778 559 LINE",
"751 652 OFFCURVE",
"662 714 OFFCURVE",
"532 714 CURVE SMOOTH",
"285 714 OFFCURVE",
"102 495 OFFCURVE",
"102 298 CURVE SMOOTH"
);
}
);
};
layerId = UUID0;
paths = (
{
closed = 1;
nodes = (
"398 221 LINE",
"459 321 LINE",
"79 321 LINE",
"18 221 LINE"
);
},
{
closed = 1;
nodes = (
"107 464 LINE",
"46 364 LINE",
"455 364 LINE",
"516 464 LINE"
);
},
{
closed = 1;
nodes = (
"102 298 LINE SMOOTH",
"102 142 OFFCURVE",
"200 -6 OFFCURVE",
"373 -6 CURVE SMOOTH",
"489 -6 OFFCURVE",
"637 54 OFFCURVE",
"699 159 CURVE",
"560 254 LINE",
"525 190 OFFCURVE",
"462 167 OFFCURVE",
"414 167 CURVE SMOOTH",
"338 167 OFFCURVE",
"301 233 OFFCURVE",
"301 311 CURVE SMOOTH",
"301 410 OFFCURVE",
"368 541 OFFCURVE",
"491 541 CURVE SMOOTH",
"540 541 OFFCURVE",
"597 522 OFFCURVE",
"607 453 CURVE",
"778 559 LINE",
"751 652 OFFCURVE",
"662 714 OFFCURVE",
"532 714 CURVE SMOOTH",
"285 714 OFFCURVE",
"102 495 OFFCURVE",
"102 298 CURVE SMOOTH"
);
}
);
width = 768;
}
);
unicode = 20AC;
},
{
glyphname = F;
lastChange = "2016-08-18 22:46:43 +0000";
layers = (
{
background = {
paths = (
{
closed = 1;
nodes = (
"-3 0 LINE",
"192 0 LINE",
"248 264 LINE",
"467 264 LINE",
"500 422 LINE",
"282 422 LINE",
"307 540 LINE",
"576 540 LINE",
"612 710 LINE",
"148 710 LINE"
);
}
);
};
layerId = UUID0;
paths = (
{
closed = 1;
nodes = (
"-3 0 LINE",
"192 0 LINE",
"248 264 LINE",
"467 264 LINE",
"500 422 LINE",
"282 422 LINE",
"307 540 LINE",
"576 540 LINE",
"612 710 LINE",
"148 710 LINE"
);
}
);
width = 546;
}
);
leftKerningGroup = I;
unicode = 0046;
},
{
glyphname = F.sc;
lastChange = "2016-08-18 22:46:43 +0000";
layers = (
{
background = {
paths = (
{
closed = 1;
nodes = (
"-9 0 LINE",
"161 0 LINE",
"204 204 LINE",
"408 204 LINE",
"437 342 LINE",
"234 342 LINE",
"250 420 LINE",
"499 420 LINE",
"530 568 LINE",
"112 568 LINE"
);
}
);
};
layerId = UUID0;
paths = (
{
closed = 1;
nodes = (
"-9 0 LINE",
"161 0 LINE",
"204 204 LINE",
"408 204 LINE",
"437 342 LINE",
"234 342 LINE",
"250 420 LINE",
"499 420 LINE",
"530 568 LINE",
"112 568 LINE"
);
}
);
width = 494;
}
);
leftKerningGroup = I.sc;
},
{
glyphname = G;
lastChange = "2016-08-18 22:46:43 +0000";
layers = (
{
anchors = (
{
name = bottom;
position = "{295, 0}";
},
{
name = top;
position = "{459, 708}";
}
);
background = {
paths = (
{
closed = 1;
nodes = (
"357 -5 OFFCURVE",
"415 18 OFFCURVE",
"477 68 CURVE",
"518 258 LINE",
"463 200 OFFCURVE",
"402 168 OFFCURVE",
"344 168 CURVE SMOOTH",
"271 168 OFFCURVE",
"229 224 OFFCURVE",
"229 307 CURVE SMOOTH",
"229 438 OFFCURVE",
"319 542 OFFCURVE",
"419 542 CURVE SMOOTH",
"476 542 OFFCURVE",
"525 505 OFFCURVE",
"539 449 CURVE",
"707 560 LINE",
"679 656 OFFCURVE",
"584 715 OFFCURVE",
"463 715 CURVE SMOOTH",
"240 715 OFFCURVE",
"28 525 OFFCURVE",
"28 282 CURVE SMOOTH",
"28 102 OFFCURVE",
"141 -5 OFFCURVE",
"290 -5 CURVE SMOOTH"
);
},
{
closed = 1;
nodes = (
"454 0 LINE",
"614 0 LINE",
"695 378 LINE",
"411 378 LINE",
"382 238 LINE",
"504 238 LINE"
);
}
);
};
layerId = UUID0;
paths = (
{
closed = 1;
nodes = (
"290 -5 LINE SMOOTH",
"357 -5 OFFCURVE",
"415 18 OFFCURVE",
"477 68 CURVE",
"518 258 LINE",
"463 200 OFFCURVE",
"402 168 OFFCURVE",
"344 168 CURVE SMOOTH",
"271 168 OFFCURVE",
"229 224 OFFCURVE",
"229 307 CURVE SMOOTH",
"229 438 OFFCURVE",
"319 542 OFFCURVE",
"419 542 CURVE SMOOTH",
"476 542 OFFCURVE",
"525 505 OFFCURVE",
"539 449 CURVE",
"707 560 LINE",
"679 656 OFFCURVE",
"584 715 OFFCURVE",
"463 715 CURVE SMOOTH",
"240 715 OFFCURVE",
"28 525 OFFCURVE",
"28 282 CURVE SMOOTH",
"28 102 OFFCURVE",
"141 -5 OFFCURVE",
"290 -5 CURVE SMOOTH"
);
},
{
closed = 1;
nodes = (
"454 0 LINE",
"614 0 LINE",
"695 378 LINE",
"411 378 LINE",
"382 238 LINE",
"504 238 LINE"
);
}
);
width = 711;
}
);
leftKerningGroup = O;
rightKerningGroup = G;
unicode = 0047;
},
{
glyphname = G.alt;
lastChange = "2016-08-18 22:46:43 +0000";
layers = (
{
background = {
paths = (
{
closed = 1;
nodes = (
"484 -5 OFFCURVE",
"630 137 OFFCURVE",
"665 309 CURVE SMOOTH",
"671 339 OFFCURVE",
"677 368 OFFCURVE",
"684 398 CURVE",
"375 398 LINE",
"339 228 LINE",
"437 228 LINE",
"413 197 OFFCURVE",
"365 168 OFFCURVE",
"319 168 CURVE SMOOTH",
"249 168 OFFCURVE",
"227 236 OFFCURVE",
"227 299 CURVE SMOOTH",
"227 409 OFFCURVE",
"291 542 OFFCURVE",
"400 542 CURVE SMOOTH",
"482 542 OFFCURVE",
"495 463 OFFCURVE",
"495 449 CURVE",
"676 570 LINE",
"646 664 OFFCURVE",
"565 715 OFFCURVE",
"449 715 CURVE SMOOTH",
"205 715 OFFCURVE",
"29 498 OFFCURVE",
"29 295 CURVE SMOOTH",
"29 135 OFFCURVE",
"129 -5 OFFCURVE",
"303 -5 CURVE SMOOTH"
);
}
);
};
layerId = UUID0;
paths = (
{
closed = 1;
nodes = (
"303 -5 LINE SMOOTH",
"484 -5 OFFCURVE",
"630 137 OFFCURVE",
"665 309 CURVE SMOOTH",
"671 339 OFFCURVE",
"677 368 OFFCURVE",
"684 398 CURVE",
"375 398 LINE",
"339 228 LINE",
"437 228 LINE",
"413 197 OFFCURVE",
"365 168 OFFCURVE",
"319 168 CURVE SMOOTH",
"249 168 OFFCURVE",
"227 236 OFFCURVE",
"227 299 CURVE SMOOTH",
"227 409 OFFCURVE",
"291 542 OFFCURVE",
"400 542 CURVE SMOOTH",
"482 542 OFFCURVE",
"495 463 OFFCURVE",
"495 449 CURVE",
"676 570 LINE",
"646 664 OFFCURVE",
"565 715 OFFCURVE",
"449 715 CURVE SMOOTH",
"205 715 OFFCURVE",
"29 498 OFFCURVE",
"29 295 CURVE SMOOTH",
"29 135 OFFCURVE",
"129 -5 OFFCURVE",
"303 -5 CURVE SMOOTH"
);
}
);
width = 683;
}
);
leftKerningGroup = O;
},
{
glyphname = G.sc;
lastChange = "2016-08-18 22:46:43 +0000";
layers = (
{
anchors = (
{
name = bottom;
position = "{321, 0}";
},
{
name = top;
position = "{309, 707}";
}
);
background = {
paths = (
{
closed = 1;
nodes = (
"287 -4 OFFCURVE",
"333 12 OFFCURVE",
"382 49 CURVE",
"417 214 LINE",
"374 172 OFFCURVE",
"326 147 OFFCURVE",
"282 147 CURVE SMOOTH",
"224 147 OFFCURVE",
"190 187 OFFCURVE",
"190 250 CURVE SMOOTH",
"190 348 OFFCURVE",
"258 421 OFFCURVE",
"336 421 CURVE SMOOTH",
"379 421 OFFCURVE",
"418 392 OFFCURVE",
"428 351 CURVE",
"575 448 LINE",
"553 525 OFFCURVE",
"475 572 OFFCURVE",
"374 572 CURVE SMOOTH",
"188 572 OFFCURVE",
"16 423 OFFCURVE",
"16 238 CURVE SMOOTH",
"16 105 OFFCURVE",
"107 -4 OFFCURVE",
"235 -4 CURVE SMOOTH"
);
},
{
closed = 1;
nodes = (
"363 0 LINE",
"503 0 LINE",
"569 306 LINE",
"318 306 LINE",
"292 184 LINE",
"402 184 LINE"
);
}
);
};
layerId = UUID0;
paths = (
{
closed = 1;
nodes = (
"235 -4 LINE SMOOTH",
"287 -4 OFFCURVE",
"333 12 OFFCURVE",
"382 49 CURVE",
"417 214 LINE",
"374 172 OFFCURVE",
"326 147 OFFCURVE",
"282 147 CURVE SMOOTH",
"224 147 OFFCURVE",
"190 187 OFFCURVE",
"190 250 CURVE SMOOTH",
"190 348 OFFCURVE",
"258 421 OFFCURVE",
"336 421 CURVE SMOOTH",
"379 421 OFFCURVE",
"418 392 OFFCURVE",
"428 351 CURVE",
"575 448 LINE",
"553 525 OFFCURVE",
"475 572 OFFCURVE",
"374 572 CURVE SMOOTH",
"188 572 OFFCURVE",
"16 423 OFFCURVE",
"16 238 CURVE SMOOTH",
"16 105 OFFCURVE",
"107 -4 OFFCURVE",
"235 -4 CURVE SMOOTH"
);
},
{
closed = 1;
nodes = (
"363 0 LINE",
"503 0 LINE",
"569 306 LINE",
"318 306 LINE",
"292 184 LINE",
"402 184 LINE"
);
}
);
width = 601;
}
);
leftKerningGroup = O.sc;
},
{
glyphname = commaaccent;
lastChange = "2016-08-18 22:46:43 +0000";
layers = (
{
anchors = (
{
name = _bottom;
position = "{100, 0}";
}
);
background = {
paths = (
{
closed = 1;
nodes = (
"119 -213 LINE",
"186 -152 LINE",
"208 -46 LINE",
"52 -46 LINE",
"29 -152 LINE",
"86 -152 LINE",
"37 -213 LINE"
);
}
);
};
layerId = UUID0;
paths = (
{
closed = 1;
nodes = (
"119 -213 LINE",
"186 -152 LINE",
"208 -46 LINE",
"52 -46 LINE",
"29 -152 LINE",
"86 -152 LINE",
"37 -213 LINE"
);
}
);
width = 236;
}
);
unicode = F6C3;
},
{
glyphname = H;
lastChange = "2016-08-18 22:46:43 +0000";
layers = (
{
anchors = (
{
name = top;
position = "{449, 708}";
}
);
background = {
paths = (
{
closed = 1;
nodes = (
"-3 0 LINE",
"192 0 LINE",
"251 278 LINE",
"463 278 LINE",
"404 0 LINE",
"599 0 LINE",
"750 710 LINE",
"555 710 LINE",
"499 448 LINE",
"287 448 LINE",
"343 710 LINE",
"148 710 LINE"
);
}
);
};
layerId = UUID0;
paths = (
{
closed = 1;
nodes = (
"-3 0 LINE",
"192 0 LINE",
"251 278 LINE",
"463 278 LINE",
"404 0 LINE",
"599 0 LINE",
"750 710 LINE",
"555 710 LINE",
"499 448 LINE",
"287 448 LINE",
"343 710 LINE",
"148 710 LINE"
);
}
);
width = 724;
}
);
leftKerningGroup = I;
rightKerningGroup = I;
unicode = 0048;
},
{
glyphname = H.sc;
lastChange = "2016-08-18 22:46:43 +0000";
layers = (
{
anchors = (
{
name = top;
position = "{307, 707}";
}
);
background = {
paths = (
{
closed = 1;
nodes = (
"-9 0 LINE",
"161 0 LINE",
"207 216 LINE",
"408 216 LINE",
"362 0 LINE",
"532 0 LINE",
"653 568 LINE",
"483 568 LINE",
"439 365 LINE",
"238 365 LINE",
"282 568 LINE",
"112 568 LINE"
);
}
);
};
layerId = UUID0;
paths = (
{
closed = 1;
nodes = (
"-9 0 LINE",
"161 0 LINE",
"207 216 LINE",
"408 216 LINE",
"362 0 LINE",
"532 0 LINE",
"653 568 LINE",
"483 568 LINE",
"439 365 LINE",
"238 365 LINE",
"282 568 LINE",
"112 568 LINE"
);
}
);
width = 652;
}
);
leftKerningGroup = I.sc;
rightKerningGroup = I.sc;
},
{
glyphname = Hbar;
lastChange = "2016-08-18 22:46:43 +0000";
layers = (
{
background = {
paths = (
{
closed = 1;
nodes = (
"67 538 LINE",
"764 538 LINE",
"782 626 LINE",
"86 626 LINE"
);
},
{
closed = 1;
nodes = (
"0 0 LINE",
"195 0 LINE",
"254 278 LINE",
"466 278 LINE",
"407 0 LINE",
"602 0 LINE",
"753 710 LINE",
"558 710 LINE",
"502 448 LINE",
"290 448 LINE",
"346 710 LINE",
"151 710 LINE"
);
}
);
};
layerId = UUID0;
paths = (
{
closed = 1;
nodes = (
"67 538 LINE",
"764 538 LINE",
"782 626 LINE",
"86 626 LINE"
);
},
{
closed = 1;
nodes = (
"0 0 LINE",
"195 0 LINE",
"254 278 LINE",
"466 278 LINE",
"407 0 LINE",
"602 0 LINE",
"753 710 LINE",
"558 710 LINE",
"502 448 LINE",
"290 448 LINE",
"346 710 LINE",
"151 710 LINE"
);
}
);
width = 729;
}
);
leftKerningGroup = I;
rightKerningGroup = I;
unicode = 0126;
},
{
glyphname = I;
lastChange = "2016-08-18 22:46:43 +0000";
layers = (
{
anchors = (
{
name = bottom;
position = "{97, 0}";
},
{
name = top;
position = "{242, 708}";
}
);
background = {
paths = (
{
closed = 1;
nodes = (
"-3 0 LINE",
"192 0 LINE",
"343 710 LINE",
"148 710 LINE"
);
}
);
};
layerId = UUID0;
paths = (
{
closed = 1;
nodes = (
"-3 0 LINE",
"192 0 LINE",
"343 710 LINE",
"148 710 LINE"
);
}
);
width = 317;
}
);
leftKerningGroup = I;
rightKerningGroup = I;
unicode = 0049;
},
{
glyphname = I.sc;
lastChange = "2016-08-18 22:46:43 +0000";
layers = (
{
anchors = (
{
name = bottom;
position = "{50, 0}";
},
{
name = top;
position = "{49, 707}";
}
);
background = {
paths = (
{
closed = 1;
nodes = (
"-9 0 LINE",
"161 0 LINE",
"282 568 LINE",
"112 568 LINE"
);
}
);
};
layerId = UUID0;
paths = (
{
closed = 1;
nodes = (
"-9 0 LINE",
"161 0 LINE",
"282 568 LINE",
"112 568 LINE"
);
}
);
width = 281;
}
);
leftKerningGroup = I.sc;
rightKerningGroup = I.sc;
},
{
glyphname = J;
lastChange = "2016-08-18 22:46:43 +0000";
layers = (
{
anchors = (
{
name = top;
position = "{423, 708}";
}
);
background = {
paths = (
{
closed = 1;
nodes = (
"338 -11 OFFCURVE",
"399 133 OFFCURVE",
"445 349 CURVE SMOOTH",
"522 710 LINE",
"327 710 LINE",
"250 349 LINE SMOOTH",
"221 214 OFFCURVE",
"200 162 OFFCURVE",
"126 162 CURVE SMOOTH",
"72 162 OFFCURVE",
"31 186 OFFCURVE",
"26 192 CURVE",
"-48 33 LINE",
"-14 4 OFFCURVE",
"31 -11 OFFCURVE",
"89 -11 CURVE SMOOTH"
);
}
);
};
layerId = UUID0;
paths = (
{
closed = 1;
nodes = (
"89 -11 LINE SMOOTH",
"338 -11 OFFCURVE",
"399 133 OFFCURVE",
"445 349 CURVE SMOOTH",
"522 710 LINE",
"327 710 LINE",
"250 349 LINE SMOOTH",
"221 214 OFFCURVE",
"200 162 OFFCURVE",
"126 162 CURVE SMOOTH",
"72 162 OFFCURVE",
"31 186 OFFCURVE",
"26 192 CURVE",
"-48 33 LINE",
"-14 4 OFFCURVE",
"31 -11 OFFCURVE",
"89 -11 CURVE SMOOTH"
);
}
);
width = 488;
}
);
leftKerningGroup = J;
rightKerningGroup = J;
unicode = 004A;
},
{
glyphname = J.sc;
lastChange = "2016-08-18 22:46:43 +0000";
layers = (
{
anchors = (
{
name = top;
position = "{310, 707}";
}
);
background = {
paths = (
{
closed = 1;
nodes = (
"300 -9 OFFCURVE",
"351 106 OFFCURVE",
"388 279 CURVE SMOOTH",
"449 568 LINE",
"279 568 LINE",
"218 279 LINE SMOOTH",
"197 178 OFFCURVE",
"179 142 OFFCURVE",
"109 142 CURVE SMOOTH",
"60 142 OFFCURVE",
"24 156 OFFCURVE",
"17 165 CURVE",
"-48 26 LINE",
"-17 3 OFFCURVE",
"25 -9 OFFCURVE",
"77 -9 CURVE SMOOTH"
);
}
);
};
layerId = UUID0;
paths = (
{
closed = 1;
nodes = (
"77 -9 LINE SMOOTH",
"300 -9 OFFCURVE",
"351 106 OFFCURVE",
"388 279 CURVE SMOOTH",
"449 568 LINE",
"279 568 LINE",
"218 279 LINE SMOOTH",
"197 178 OFFCURVE",
"179 142 OFFCURVE",
"109 142 CURVE SMOOTH",
"60 142 OFFCURVE",
"24 156 OFFCURVE",
"17 165 CURVE",
"-48 26 LINE",
"-17 3 OFFCURVE",
"25 -9 OFFCURVE",
"77 -9 CURVE SMOOTH"
);
}
);
width = 441;
}
);
},
{
glyphname = K;
lastChange = "2016-08-18 22:46:43 +0000";
layers = (
{
anchors = (
{
name = bottom;
position = "{279, 0}";
}
);
background = {
paths = (
{
closed = 1;
nodes = (
"-3 0 LINE",
"192 0 LINE",
"236 205 LINE",
"292 261 LINE",
"396 0 LINE",
"621 0 LINE",
"444 392 LINE",
"755 710 LINE",
"534 710 LINE",
"286 440 LINE",
"343 710 LINE",
"148 710 LINE"
);
}
);
};
layerId = UUID0;
paths = (
{
closed = 1;
nodes = (
"-3 0 LINE",
"192 0 LINE",
"236 205 LINE",
"292 261 LINE",
"396 0 LINE",
"621 0 LINE",
"444 392 LINE",
"755 710 LINE",
"534 710 LINE",
"286 440 LINE",
"343 710 LINE",
"148 710 LINE"
);
}
);
width = 665;
}
);
leftKerningGroup = I;
rightKerningGroup = K;
unicode = 004B;
},
{
glyphname = K.sc;
lastChange = "2016-08-18 22:46:43 +0000";
layers = (
{
anchors = (
{
name = bottom;
position = "{254, 0}";
}
);
background = {
paths = (
{
closed = 1;
nodes = (
"-9 0 LINE",
"161 0 LINE",
"197 168 LINE",
"260 218 LINE",
"373 0 LINE",
"551 0 LINE",
"381 313 LINE",
"656 568 LINE",
"481 568 LINE",
"235 350 LINE",
"282 568 LINE",
"112 568 LINE"
);
}
);
};
layerId = UUID0;
paths = (
{
closed = 1;
nodes = (
"-9 0 LINE",
"161 0 LINE",
"197 168 LINE",
"260 218 LINE",
"373 0 LINE",
"551 0 LINE",
"381 313 LINE",
"656 568 LINE",
"481 568 LINE",
"235 350 LINE",
"282 568 LINE",
"112 568 LINE"
);
}
);
width = 603;
}
);
leftKerningGroup = I.sc;
},
{
glyphname = L;
lastChange = "2016-08-18 22:46:43 +0000";
layers = (
{
anchors = (
{
name = bottom;
position = "{240, 0}";
},
{
name = top;
position = "{242, 708}";
}
);
background = {
paths = (
{
closed = 1;
nodes = (
"-3 0 LINE",
"491 0 LINE",
"527 170 LINE",
"228 170 LINE",
"343 710 LINE",
"148 710 LINE"
);
}
);
};
layerId = UUID0;
paths = (
{
closed = 1;
nodes = (
"-3 0 LINE",
"491 0 LINE",
"527 170 LINE",
"228 170 LINE",
"343 710 LINE",
"148 710 LINE"
);
}
);
width = 564;
}
);
leftKerningGroup = I;
rightKerningGroup = L;
unicode = 004C;
},
{
glyphname = L.sc;
lastChange = "2016-08-18 22:46:43 +0000";
layers = (
{
anchors = (
{
name = bottom;
position = "{271, 0}";
},
{
name = top;
position = "{271, 707}";
}
);
background = {
paths = (
{
closed = 1;
nodes = (
"-9 0 LINE",
"390 0 LINE",
"422 148 LINE",
"192 148 LINE",
"282 568 LINE",
"112 568 LINE"
);
}
);
};
layerId = UUID0;
paths = (
{
closed = 1;
nodes = (
"-9 0 LINE",
"390 0 LINE",
"422 148 LINE",
"192 148 LINE",
"282 568 LINE",
"112 568 LINE"
);
}
);
width = 461;
}
);
leftKerningGroup = I.sc;
},
{
glyphname = caron.alt;
lastChange = "2016-08-18 22:46:43 +0000";
layers = (
{
anchors = (
{
name = _top;
position = "{91, 522}";
}
);
background = {
paths = (
{
closed = 1;
nodes = (
"128 556 LINE",
"260 730 LINE",
"92 730 LINE",
"15 588 LINE"
);
}
);
};
layerId = UUID0;
paths = (
{
closed = 1;
nodes = (
"128 556 LINE",
"260 730 LINE",
"92 730 LINE",
"15 588 LINE"
);
}
);
width = 274;
}
);
},
{
glyphname = periodcentered;
lastChange = "2016-08-18 22:46:43 +0000";
layers = (
{
background = {
paths = (
{
closed = 1;
nodes = (
"190 238 LINE",
"229 422 LINE",
"75 422 LINE",
"36 238 LINE"
);
}
);
};
layerId = UUID0;
paths = (
{
closed = 1;
nodes = (
"190 238 LINE",
"229 422 LINE",
"75 422 LINE",
"36 238 LINE"
);
}
);
width = 254;
}
);
unicode = 00B7;
},
{
glyphname = Lslash;
lastChange = "2016-08-18 22:46:43 +0000";
layers = (
{
background = {
paths = (
{
closed = 1;
nodes = (
"17 252 LINE",
"396 426 LINE",
"375 527 LINE",
"-4 353 LINE"
);
},
{
closed = 1;
nodes = (
"7 0 LINE",
"501 0 LINE",
"537 170 LINE",
"238 170 LINE",
"353 710 LINE",
"158 710 LINE"
);
}
);
};
layerId = UUID0;
paths = (
{
closed = 1;
nodes = (
"17 252 LINE",
"396 426 LINE",
"375 527 LINE",
"-4 353 LINE"
);
},
{
closed = 1;
nodes = (
"7 0 LINE",
"501 0 LINE",
"537 170 LINE",
"238 170 LINE",
"353 710 LINE",
"158 710 LINE"
);
}
);
width = 573;
}
);
leftKerningGroup = I;
rightKerningGroup = L;
unicode = 0141;
},
{
glyphname = M;
lastChange = "2016-08-18 22:46:43 +0000";
layers = (
{
background = {
paths = (
{
closed = 1;
nodes = (
"-3 0 LINE",
"192 0 LINE",
"272 374 LINE",
"318 111 LINE",
"421 111 LINE",
"579 374 LINE",
"500 0 LINE",
"695 0 LINE",
"846 710 LINE",
"634 710 LINE",
"426 376 LINE",
"361 710 LINE",
"148 710 LINE"
);
}
);
};
layerId = UUID0;
paths = (
{
closed = 1;
nodes = (
"-3 0 LINE",
"192 0 LINE",
"272 374 LINE",
"318 111 LINE",
"421 111 LINE",
"579 374 LINE",
"500 0 LINE",
"695 0 LINE",
"846 710 LINE",
"634 710 LINE",
"426 376 LINE",
"361 710 LINE",
"148 710 LINE"
);
}
);
width = 820;
}
);
leftKerningGroup = I;
rightKerningGroup = I;
unicode = 004D;
},
{
glyphname = M.sc;
lastChange = "2016-08-18 22:46:43 +0000";
layers = (
{
background = {
paths = (
{
closed = 1;
nodes = (
"-9 0 LINE",
"161 0 LINE",
"219 275 LINE",
"279 86 LINE",
"369 86 LINE",
"509 275 LINE",
"450 0 LINE",
"620 0 LINE",
"741 568 LINE",
"556 568 LINE",
"374 318 LINE",
"298 568 LINE",
"112 568 LINE"
);
}
);
};
layerId = UUID0;
paths = (
{
closed = 1;
nodes = (
"-9 0 LINE",
"161 0 LINE",
"219 275 LINE",
"279 86 LINE",
"369 86 LINE",
"509 275 LINE",
"450 0 LINE",
"620 0 LINE",
"741 568 LINE",
"556 568 LINE",
"374 318 LINE",
"298 568 LINE",
"112 568 LINE"
);
}
);
width = 740;
}
);
leftKerningGroup = I.sc;
rightKerningGroup = I.sc;
},
{
glyphname = N;
lastChange = "2016-08-18 22:46:43 +0000";
layers = (
{
anchors = (
{
name = bottom;
position = "{296, 0}";
},
{
name = top;
position = "{437, 708}";
}
);
background = {
paths = (
{
closed = 1;
nodes = (
"-3 0 LINE",
"192 0 LINE",
"266 349 LINE",
"446 0 LINE",
"600 0 LINE",
"751 710 LINE",
"556 710 LINE",
"480 349 LINE",
"300 710 LINE",
"148 710 LINE"
);
}
);
};
layerId = UUID0;
paths = (
{
closed = 1;
nodes = (
"-3 0 LINE",
"192 0 LINE",
"266 349 LINE",
"446 0 LINE",
"600 0 LINE",
"751 710 LINE",
"556 710 LINE",
"480 349 LINE",
"300 710 LINE",
"148 710 LINE"
);
}
);
width = 725;
}
);
leftKerningGroup = I;
rightKerningGroup = I;
unicode = 004E;
},
{
glyphname = N.sc;
lastChange = "2016-08-18 22:46:43 +0000";
layers = (
{
anchors = (
{
name = bottom;
position = "{334, 0}";
},
{
name = top;
position = "{333, 707}";
}
);
background = {
paths = (
{
closed = 1;
nodes = (
"-9 0 LINE",
"161 0 LINE",
"215 253 LINE",
"400 0 LINE",
"535 0 LINE",
"656 568 LINE",
"486 568 LINE",
"430 306 LINE",
"245 568 LINE",
"112 568 LINE"
);
}
);
};
layerId = UUID0;
paths = (
{
closed = 1;
nodes = (
"-9 0 LINE",
"161 0 LINE",
"215 253 LINE",
"400 0 LINE",
"535 0 LINE",
"656 568 LINE",
"486 568 LINE",
"430 306 LINE",
"245 568 LINE",
"112 568 LINE"
);
}
);
width = 655;
}
);
leftKerningGroup = I.sc;
rightKerningGroup = I.sc;
},
{
glyphname = O;
lastChange = "2016-08-18 22:46:43 +0000";
layers = (
{
anchors = (
{
name = bottom;
position = "{315, 0}";
},
{
name = top;
position = "{458, 708}";
}
);
background = {
paths = (
{
closed = 1;
nodes = (
"533 -6 OFFCURVE",
"733 203 OFFCURVE",
"733 416 CURVE SMOOTH",
"733 570 OFFCURVE",
"637 714 OFFCURVE",
"460 714 CURVE SMOOTH",
"230 714 OFFCURVE",
"28 507 OFFCURVE",
"28 292 CURVE SMOOTH",
"28 137 OFFCURVE",
"126 -6 OFFCURVE",
"303 -6 CURVE SMOOTH"
);
},
{
closed = 1;
nodes = (
"260 167 OFFCURVE",
"228 233 OFFCURVE",
"228 307 CURVE SMOOTH",
"228 411 OFFCURVE",
"294 541 OFFCURVE",
"420 541 CURVE SMOOTH",
"501 541 OFFCURVE",
"534 477 OFFCURVE",
"534 403 CURVE SMOOTH",
"534 300 OFFCURVE",
"469 167 OFFCURVE",
"341 167 CURVE SMOOTH"
);
}
);
};
layerId = UUID0;
paths = (
{
closed = 1;
nodes = (
"303 -6 LINE SMOOTH",
"533 -6 OFFCURVE",
"733 203 OFFCURVE",
"733 416 CURVE SMOOTH",
"733 570 OFFCURVE",
"637 714 OFFCURVE",
"460 714 CURVE SMOOTH",
"230 714 OFFCURVE",
"28 507 OFFCURVE",
"28 292 CURVE SMOOTH",
"28 137 OFFCURVE",
"126 -6 OFFCURVE",
"303 -6 CURVE SMOOTH"
);
},
{
closed = 1;
nodes = (
"341 167 LINE SMOOTH",
"260 167 OFFCURVE",
"228 233 OFFCURVE",
"228 307 CURVE SMOOTH",
"228 411 OFFCURVE",
"294 541 OFFCURVE",
"420 541 CURVE SMOOTH",
"501 541 OFFCURVE",
"534 477 OFFCURVE",
"534 403 CURVE SMOOTH",
"534 300 OFFCURVE",
"469 167 OFFCURVE",
"341 167 CURVE SMOOTH"
);
}
);
width = 738;
}
);
leftKerningGroup = O;
rightKerningGroup = O;
unicode = 004F;
},
{
glyphname = O.sc;
lastChange = "2016-08-18 22:46:43 +0000";
layers = (
{
anchors = (
{
name = bottom;
position = "{319, 0}";
},
{
name = top;
position = "{319, 707}";
}
);
background = {
paths = (
{
closed = 1;
nodes = (
"445 -5 OFFCURVE",
"612 161 OFFCURVE",
"612 329 CURVE SMOOTH",
"612 454 OFFCURVE",
"529 571 OFFCURVE",
"377 571 CURVE SMOOTH",
"185 571 OFFCURVE",
"15 408 OFFCURVE",
"15 237 CURVE SMOOTH",
"15 111 OFFCURVE",
"101 -5 OFFCURVE",
"251 -5 CURVE SMOOTH"
);
},
{
closed = 1;
nodes = (
"218 146 OFFCURVE",
"190 197 OFFCURVE",
"190 253 CURVE SMOOTH",
"190 329 OFFCURVE",
"243 420 OFFCURVE",
"343 420 CURVE SMOOTH",
"409 420 OFFCURVE",
"438 371 OFFCURVE",
"438 315 CURVE SMOOTH",
"438 240 OFFCURVE",
"385 146 OFFCURVE",
"285 146 CURVE SMOOTH"
);
}
);
};
layerId = UUID0;
paths = (
{
closed = 1;
nodes = (
"251 -5 LINE SMOOTH",
"445 -5 OFFCURVE",
"612 161 OFFCURVE",
"612 329 CURVE SMOOTH",
"612 454 OFFCURVE",
"529 571 OFFCURVE",
"377 571 CURVE SMOOTH",
"185 571 OFFCURVE",
"15 408 OFFCURVE",
"15 237 CURVE SMOOTH",
"15 111 OFFCURVE",
"101 -5 OFFCURVE",
"251 -5 CURVE SMOOTH"
);
},
{
closed = 1;
nodes = (
"285 146 LINE SMOOTH",
"218 146 OFFCURVE",
"190 197 OFFCURVE",
"190 253 CURVE SMOOTH",
"190 329 OFFCURVE",
"243 420 OFFCURVE",
"343 420 CURVE SMOOTH",
"409 420 OFFCURVE",
"438 371 OFFCURVE",
"438 315 CURVE SMOOTH",
"438 240 OFFCURVE",
"385 146 OFFCURVE",
"285 146 CURVE SMOOTH"
);
}
);
width = 634;
}
);
leftKerningGroup = O.sc;
rightKerningGroup = O.sc;
},
{
glyphname = OE;
lastChange = "2016-08-18 22:46:43 +0000";
layers = (
{
background = {
paths = (
{
closed = 1;
nodes = (
"331 -5 OFFCURVE",
"380 13 OFFCURVE",
"429 41 CURVE",
"420 0 LINE",
"883 0 LINE",
"919 170 LINE",
"651 170 LINE",
"674 276 LINE",
"882 276 LINE",
"918 446 LINE",
"710 446 LINE",
"730 540 LINE",
"989 540 LINE",
"1025 710 LINE",
"571 710 LINE",
"563 670 LINE",
"527 698 OFFCURVE",
"487 715 OFFCURVE",
"440 715 CURVE SMOOTH",
"223 715 OFFCURVE",
"28 505 OFFCURVE",
"28 288 CURVE SMOOTH",
"28 135 OFFCURVE",
"119 -5 OFFCURVE",
"282 -5 CURVE SMOOTH"
);
},
{
closed = 1;
nodes = (
"254 168 OFFCURVE",
"227 230 OFFCURVE",
"227 301 CURVE SMOOTH",
"227 405 OFFCURVE",
"289 542 OFFCURVE",
"400 542 CURVE SMOOTH",
"466 542 OFFCURVE",
"494 480 OFFCURVE",
"494 409 CURVE SMOOTH",
"494 306 OFFCURVE",
"434 168 OFFCURVE",
"321 168 CURVE SMOOTH"
);
}
);
};
layerId = UUID0;
paths = (
{
closed = 1;
nodes = (
"282 -5 LINE SMOOTH",
"331 -5 OFFCURVE",
"380 13 OFFCURVE",
"429 41 CURVE",
"420 0 LINE",
"883 0 LINE",
"919 170 LINE",
"651 170 LINE",
"674 276 LINE",
"882 276 LINE",
"918 446 LINE",
"710 446 LINE",
"730 540 LINE",
"989 540 LINE",
"1025 710 LINE",
"571 710 LINE",
"563 670 LINE",
"527 698 OFFCURVE",
"487 715 OFFCURVE",
"440 715 CURVE SMOOTH",
"223 715 OFFCURVE",
"28 505 OFFCURVE",
"28 288 CURVE SMOOTH",
"28 135 OFFCURVE",
"119 -5 OFFCURVE",
"282 -5 CURVE SMOOTH"
);
},
{
closed = 1;
nodes = (
"321 168 LINE SMOOTH",
"254 168 OFFCURVE",
"227 230 OFFCURVE",
"227 301 CURVE SMOOTH",
"227 405 OFFCURVE",
"289 542 OFFCURVE",
"400 542 CURVE SMOOTH",
"466 542 OFFCURVE",
"494 480 OFFCURVE",
"494 409 CURVE SMOOTH",
"494 306 OFFCURVE",
"434 168 OFFCURVE",
"321 168 CURVE SMOOTH"
);
}
);
width = 977;
}
);
leftKerningGroup = O;
rightKerningGroup = E;
unicode = 0152;
},
{
glyphname = hungarumlaut;
lastChange = "2016-08-18 22:46:43 +0000";
layers = (
{
anchors = (
{
name = _top;
position = "{149, 521}";
}
);
background = {
paths = (
{
closed = 1;
nodes = (
"202 730 LINE",
"64 730 LINE",
"-3 588 LINE",
"96 579 LINE"
);
},
{
closed = 1;
nodes = (
"387 730 LINE",
"249 730 LINE",
"183 588 LINE",
"281 579 LINE"
);
}
);
};
layerId = UUID0;
paths = (
{
closed = 1;
nodes = (
"202 730 LINE",
"64 730 LINE",
"-3 588 LINE",
"96 579 LINE"
);
},
{
closed = 1;
nodes = (
"387 730 LINE",
"249 730 LINE",
"183 588 LINE",
"281 579 LINE"
);
}
);
width = 384;
}
);
unicode = 02DD;
},
{
glyphname = slash;
lastChange = "2016-08-18 22:46:43 +0000";
layers = (
{
background = {
paths = (
{
closed = 1;
nodes = (
"616 710 LINE",
"-28 0 LINE",
"181 0 LINE",
"825 710 LINE"
);
}
);
};
layerId = UUID0;
paths = (
{
closed = 1;
nodes = (
"616 710 LINE",
"-28 0 LINE",
"181 0 LINE",
"825 710 LINE"
);
}
);
width = 771;
}
);
unicode = 002F;
},
{
glyphname = P;
lastChange = "2016-08-18 22:46:43 +0000";
layers = (
{
background = {
paths = (
{
closed = 1;
nodes = (
"-3 0 LINE",
"192 0 LINE",
"238 218 LINE",
"340 218 LINE SMOOTH",
"494 218 OFFCURVE",
"622 366 OFFCURVE",
"622 505 CURVE SMOOTH",
"622 609 OFFCURVE",
"554 710 OFFCURVE",
"440 710 CURVE SMOOTH",
"148 710 LINE"
);
},
{
closed = 1;
nodes = (
"275 388 LINE",
"307 540 LINE",
"390 540 LINE SMOOTH",
"405 540 OFFCURVE",
"422 528 OFFCURVE",
"422 489 CURVE SMOOTH",
"422 419 OFFCURVE",
"387 388 OFFCURVE",
"363 388 CURVE SMOOTH"
);
}
);
};
layerId = UUID0;
paths = (
{
closed = 1;
nodes = (
"-3 0 LINE",
"192 0 LINE",
"238 218 LINE",
"340 218 LINE SMOOTH",
"494 218 OFFCURVE",
"622 366 OFFCURVE",
"622 505 CURVE SMOOTH",
"622 609 OFFCURVE",
"554 710 OFFCURVE",
"440 710 CURVE SMOOTH",
"148 710 LINE"
);
},
{
closed = 1;
nodes = (
"275 388 LINE",
"307 540 LINE",
"390 540 LINE SMOOTH",
"405 540 OFFCURVE",
"422 528 OFFCURVE",
"422 489 CURVE SMOOTH",
"422 419 OFFCURVE",
"387 388 OFFCURVE",
"363 388 CURVE SMOOTH"
);
}
);
width = 602;
}
);
leftKerningGroup = I;
unicode = 0050;
},
{
glyphname = P.sc;
lastChange = "2016-08-18 22:46:43 +0000";
layers = (
{
background = {
paths = (
{
closed = 1;
nodes = (
"-9 0 LINE",
"161 0 LINE",
"197 169 LINE",
"294 169 LINE SMOOTH",
"431 169 OFFCURVE",
"543 287 OFFCURVE",
"543 399 CURVE SMOOTH",
"543 485 OFFCURVE",
"480 568 OFFCURVE",
"375 568 CURVE SMOOTH",
"112 568 LINE"
);
},
{
closed = 1;
nodes = (
"228 318 LINE",
"250 420 LINE",
"333 420 LINE SMOOTH",
"349 420 OFFCURVE",
"368 414 OFFCURVE",
"368 383 CURVE SMOOTH",
"368 330 OFFCURVE",
"339 318 OFFCURVE",
"315 318 CURVE SMOOTH"
);
}
);
};
layerId = UUID0;
paths = (
{
closed = 1;
nodes = (
"-9 0 LINE",
"161 0 LINE",
"197 169 LINE",
"294 169 LINE SMOOTH",
"431 169 OFFCURVE",
"543 287 OFFCURVE",
"543 399 CURVE SMOOTH",
"543 485 OFFCURVE",
"480 568 OFFCURVE",
"375 568 CURVE SMOOTH",
"112 568 LINE"
);
},
{
closed = 1;
nodes = (
"228 318 LINE",
"250 420 LINE",
"333 420 LINE SMOOTH",
"349 420 OFFCURVE",
"368 414 OFFCURVE",
"368 383 CURVE SMOOTH",
"368 330 OFFCURVE",
"339 318 OFFCURVE",
"315 318 CURVE SMOOTH"
);
}
);
width = 544;
}
);
leftKerningGroup = I.sc;
},
{
glyphname = Q;
lastChange = "2016-08-18 22:46:43 +0000";
layers = (
{
background = {
paths = (
{
closed = 1;
nodes = (
"532 -5 OFFCURVE",
"732 203 OFFCURVE",
"732 416 CURVE SMOOTH",
"732 570 OFFCURVE",
"636 715 OFFCURVE",
"459 715 CURVE SMOOTH",
"230 715 OFFCURVE",
"27 507 OFFCURVE",
"27 292 CURVE SMOOTH",
"27 137 OFFCURVE",
"126 -5 OFFCURVE",
"302 -5 CURVE SMOOTH"
);
},
{
closed = 1;
nodes = (
"260 168 OFFCURVE",
"227 234 OFFCURVE",
"227 307 CURVE SMOOTH",
"227 411 OFFCURVE",
"294 542 OFFCURVE",
"419 542 CURVE SMOOTH",
"500 542 OFFCURVE",
"533 477 OFFCURVE",
"533 403 CURVE SMOOTH",
"533 300 OFFCURVE",
"468 168 OFFCURVE",
"341 168 CURVE SMOOTH"
);
},
{
closed = 1;
nodes = (
"487 0 LINE",
"669 0 LINE",
"463 300 LINE",
"282 300 LINE"
);
}
);
};
layerId = UUID0;
paths = (
{
closed = 1;
nodes = (
"302 -5 LINE SMOOTH",
"532 -5 OFFCURVE",
"732 203 OFFCURVE",
"732 416 CURVE SMOOTH",
"732 570 OFFCURVE",
"636 715 OFFCURVE",
"459 715 CURVE SMOOTH",
"230 715 OFFCURVE",
"27 507 OFFCURVE",
"27 292 CURVE SMOOTH",
"27 137 OFFCURVE",
"126 -5 OFFCURVE",
"302 -5 CURVE SMOOTH"
);
},
{
closed = 1;
nodes = (
"341 168 LINE SMOOTH",
"260 168 OFFCURVE",
"227 234 OFFCURVE",
"227 307 CURVE SMOOTH",
"227 411 OFFCURVE",
"294 542 OFFCURVE",
"419 542 CURVE SMOOTH",
"500 542 OFFCURVE",
"533 477 OFFCURVE",
"533 403 CURVE SMOOTH",
"533 300 OFFCURVE",
"468 168 OFFCURVE",
"341 168 CURVE SMOOTH"
);
},
{
closed = 1;
nodes = (
"487 0 LINE",
"669 0 LINE",
"463 300 LINE",
"282 300 LINE"
);
}
);
width = 737;
}
);
leftKerningGroup = O;
rightKerningGroup = O;
unicode = 0051;
},
{
glyphname = Q.sc;
lastChange = "2016-08-18 22:46:43 +0000";
layers = (
{
background = {
paths = (
{
closed = 1;
nodes = (
"445 -4 OFFCURVE",
"611 161 OFFCURVE",
"611 329 CURVE SMOOTH",
"611 454 OFFCURVE",
"528 572 OFFCURVE",
"376 572 CURVE SMOOTH",
"184 572 OFFCURVE",
"14 407 OFFCURVE",
"14 237 CURVE SMOOTH",
"14 111 OFFCURVE",
"100 -4 OFFCURVE",
"250 -4 CURVE SMOOTH"
);
},
{
closed = 1;
nodes = (
"217 147 OFFCURVE",
"189 197 OFFCURVE",
"189 253 CURVE SMOOTH",
"189 329 OFFCURVE",
"243 421 OFFCURVE",
"342 421 CURVE SMOOTH",
"408 421 OFFCURVE",
"437 371 OFFCURVE",
"437 315 CURVE SMOOTH",
"437 240 OFFCURVE",
"384 147 OFFCURVE",
"285 147 CURVE SMOOTH"
);
},
{
closed = 1;
nodes = (
"420 0 LINE",
"579 0 LINE",
"393 249 LINE",
"234 249 LINE"
);
}
);
};
layerId = UUID0;
paths = (
{
closed = 1;
nodes = (
"250 -4 LINE SMOOTH",
"445 -4 OFFCURVE",
"611 161 OFFCURVE",
"611 329 CURVE SMOOTH",
"611 454 OFFCURVE",
"528 572 OFFCURVE",
"376 572 CURVE SMOOTH",
"184 572 OFFCURVE",
"14 407 OFFCURVE",
"14 237 CURVE SMOOTH",
"14 111 OFFCURVE",
"100 -4 OFFCURVE",
"250 -4 CURVE SMOOTH"
);
},
{
closed = 1;
nodes = (
"285 147 LINE SMOOTH",
"217 147 OFFCURVE",
"189 197 OFFCURVE",
"189 253 CURVE SMOOTH",
"189 329 OFFCURVE",
"243 421 OFFCURVE",
"342 421 CURVE SMOOTH",
"408 421 OFFCURVE",
"437 371 OFFCURVE",
"437 315 CURVE SMOOTH",
"437 240 OFFCURVE",
"384 147 OFFCURVE",
"285 147 CURVE SMOOTH"
);
},
{
closed = 1;
nodes = (
"420 0 LINE",
"579 0 LINE",
"393 249 LINE",
"234 249 LINE"
);
}
);
width = 637;
}
);
leftKerningGroup = O.sc;
rightKerningGroup = O.sc;
},
{
glyphname = R;
lastChange = "2016-08-18 22:46:43 +0000";
layers = (
{
anchors = (
{
name = bottom;
position = "{263, 0}";
},
{
name = top;
position = "{414, 710}";
}
);
background = {
paths = (
{
closed = 1;
nodes = (
"192 0 LINE",
"238 218 LINE",
"297 218 LINE",
"366 0 LINE",
"586 0 LINE",
"501 261 LINE",
"586 317 OFFCURVE",
"642 412 OFFCURVE",
"642 505 CURVE SMOOTH",
"642 609 OFFCURVE",
"575 710 OFFCURVE",
"460 710 CURVE SMOOTH",
"148 710 LINE",
"-3 0 LINE"
);
},
{
closed = 1;
nodes = (
"275 388 LINE",
"307 540 LINE",
"410 540 LINE SMOOTH",
"426 540 OFFCURVE",
"441 520 OFFCURVE",
"441 485 CURVE SMOOTH",
"441 428 OFFCURVE",
"405 388 OFFCURVE",
"383 388 CURVE SMOOTH"
);
}
);
};
layerId = UUID0;
paths = (
{
closed = 1;
nodes = (
"192 0 LINE",
"238 218 LINE",
"297 218 LINE",
"366 0 LINE",
"586 0 LINE",
"501 261 LINE",
"586 317 OFFCURVE",
"642 412 OFFCURVE",
"642 505 CURVE SMOOTH",
"642 609 OFFCURVE",
"575 710 OFFCURVE",
"460 710 CURVE SMOOTH",
"148 710 LINE",
"-3 0 LINE"
);
},
{
closed = 1;
nodes = (
"275 388 LINE",
"307 540 LINE",
"410 540 LINE SMOOTH",
"426 540 OFFCURVE",
"441 520 OFFCURVE",
"441 485 CURVE SMOOTH",
"441 428 OFFCURVE",
"405 388 OFFCURVE",
"383 388 CURVE SMOOTH"
);
}
);
width = 653;
}
);
leftKerningGroup = I;
rightKerningGroup = R;
unicode = 0052;
},
{
glyphname = R.sc;
lastChange = "2016-08-18 22:46:43 +0000";
layers = (
{
anchors = (
{
name = bottom;
position = "{256, 0}";
},
{
name = top;
position = "{256, 710}";
}
);
background = {
paths = (
{
closed = 1;
nodes = (
"-9 0 LINE",
"161 0 LINE",
"197 169 LINE",
"257 169 LINE",
"336 0 LINE",
"529 0 LINE",
"435 207 LINE",
"511 254 OFFCURVE",
"560 325 OFFCURVE",
"560 399 CURVE SMOOTH",
"560 485 OFFCURVE",
"497 568 OFFCURVE",
"392 568 CURVE SMOOTH",
"112 568 LINE"
);
},
{
closed = 1;
nodes = (
"228 318 LINE",
"250 420 LINE",
"350 420 LINE SMOOTH",
"367 420 OFFCURVE",
"385 407 OFFCURVE",
"385 380 CURVE SMOOTH",
"385 340 OFFCURVE",
"356 318 OFFCURVE",
"333 318 CURVE SMOOTH"
);
}
);
};
layerId = UUID0;
paths = (
{
closed = 1;
nodes = (
"-9 0 LINE",
"161 0 LINE",
"197 169 LINE",
"257 169 LINE",
"336 0 LINE",
"529 0 LINE",
"435 207 LINE",
"511 254 OFFCURVE",
"560 325 OFFCURVE",
"560 399 CURVE SMOOTH",
"560 485 OFFCURVE",
"497 568 OFFCURVE",
"392 568 CURVE SMOOTH",
"112 568 LINE"
);
},
{
closed = 1;
nodes = (
"228 318 LINE",
"250 420 LINE",
"350 420 LINE SMOOTH",
"367 420 OFFCURVE",
"385 407 OFFCURVE",
"385 380 CURVE SMOOTH",
"385 340 OFFCURVE",
"356 318 OFFCURVE",
"333 318 CURVE SMOOTH"
);
}
);
width = 598;
}
);
leftKerningGroup = I.sc;
},
{
glyphname = S;
lastChange = "2016-08-18 22:46:43 +0000";
layers = (
{
anchors = (
{
name = bottom;
position = "{244, 0}";
},
{
name = top;
position = "{398, 721}";
}
);
background = {
paths = (
{
closed = 1;
nodes = (
"388 -9 OFFCURVE",
"557 60 OFFCURVE",
"557 262 CURVE SMOOTH",
"557 361 OFFCURVE",
"492 401 OFFCURVE",
"396 437 CURVE SMOOTH",
"333 460 OFFCURVE",
"290 470 OFFCURVE",
"290 501 CURVE SMOOTH",
"290 530 OFFCURVE",
"314 543 OFFCURVE",
"343 543 CURVE SMOOTH",
"424 543 OFFCURVE",
"511 478 OFFCURVE",
"507 478 CURVE",
"625 639 LINE",
"571 671 OFFCURVE",
"485 716 OFFCURVE",
"386 716 CURVE SMOOTH",
"234 716 OFFCURVE",
"76 613 OFFCURVE",
"76 434 CURVE SMOOTH",
"76 358 OFFCURVE",
"119 312 OFFCURVE",
"207 277 CURVE SMOOTH",
"273 251 OFFCURVE",
"337 240 OFFCURVE",
"337 204 CURVE SMOOTH",
"337 185 OFFCURVE",
"330 167 OFFCURVE",
"285 167 CURVE SMOOTH",
"181 167 OFFCURVE",
"83 245 OFFCURVE",
"87 245 CURVE",
"-33 74 LINE",
"38 24 OFFCURVE",
"147 -9 OFFCURVE",
"245 -9 CURVE SMOOTH"
);
}
);
};
layerId = UUID0;
paths = (
{
closed = 1;
nodes = (
"245 -9 LINE SMOOTH",
"388 -9 OFFCURVE",
"557 60 OFFCURVE",
"557 262 CURVE SMOOTH",
"557 361 OFFCURVE",
"492 401 OFFCURVE",
"396 437 CURVE SMOOTH",
"333 460 OFFCURVE",
"290 470 OFFCURVE",
"290 501 CURVE SMOOTH",
"290 530 OFFCURVE",
"314 543 OFFCURVE",
"343 543 CURVE SMOOTH",
"424 543 OFFCURVE",
"511 478 OFFCURVE",
"507 478 CURVE",
"625 639 LINE",
"571 671 OFFCURVE",
"485 716 OFFCURVE",
"386 716 CURVE SMOOTH",
"234 716 OFFCURVE",
"76 613 OFFCURVE",
"76 434 CURVE SMOOTH",
"76 358 OFFCURVE",
"119 312 OFFCURVE",
"207 277 CURVE SMOOTH",
"273 251 OFFCURVE",
"337 240 OFFCURVE",
"337 204 CURVE SMOOTH",
"337 185 OFFCURVE",
"330 167 OFFCURVE",
"285 167 CURVE SMOOTH",
"181 167 OFFCURVE",
"83 245 OFFCURVE",
"87 245 CURVE",
"-33 74 LINE",
"38 24 OFFCURVE",
"147 -9 OFFCURVE",
"245 -9 CURVE SMOOTH"
);
}
);
width = 596;
}
);
leftKerningGroup = S;
rightKerningGroup = S;
unicode = 0053;
},
{
glyphname = S.sc;
lastChange = "2016-08-18 22:46:43 +0000";
layers = (
{
anchors = (
{
name = bottom;
position = "{248, 0}";
},
{
name = top;
position = "{248, 729}";
}
);
background = {
paths = (
{
closed = 1;
nodes = (
"329 -8 OFFCURVE",
"474 46 OFFCURVE",
"474 211 CURVE SMOOTH",
"474 292 OFFCURVE",
"418 326 OFFCURVE",
"333 355 CURVE SMOOTH",
"277 374 OFFCURVE",
"240 381 OFFCURVE",
"240 402 CURVE SMOOTH",
"240 417 OFFCURVE",
"257 422 OFFCURVE",
"281 422 CURVE SMOOTH",
"350 422 OFFCURVE",
"418 377 OFFCURVE",
"424 371 CURVE",
"526 512 LINE",
"479 537 OFFCURVE",
"404 573 OFFCURVE",
"319 573 CURVE SMOOTH",
"188 573 OFFCURVE",
"54 491 OFFCURVE",
"54 348 CURVE SMOOTH",
"54 284 OFFCURVE",
"91 245 OFFCURVE",
"169 216 CURVE SMOOTH",
"227 195 OFFCURVE",
"282 188 OFFCURVE",
"282 164 CURVE SMOOTH",
"282 154 OFFCURVE",
"273 146 OFFCURVE",
"242 146 CURVE SMOOTH",
"152 146 OFFCURVE",
"74 193 OFFCURVE",
"69 206 CURVE",
"-36 57 LINE",
"26 19 OFFCURVE",
"122 -8 OFFCURVE",
"206 -8 CURVE SMOOTH"
);
}
);
};
layerId = UUID0;
paths = (
{
closed = 1;
nodes = (
"206 -8 LINE SMOOTH",
"329 -8 OFFCURVE",
"474 46 OFFCURVE",
"474 211 CURVE SMOOTH",
"474 292 OFFCURVE",
"418 326 OFFCURVE",
"333 355 CURVE SMOOTH",
"277 374 OFFCURVE",
"240 381 OFFCURVE",
"240 402 CURVE SMOOTH",
"240 417 OFFCURVE",
"257 422 OFFCURVE",
"281 422 CURVE SMOOTH",
"350 422 OFFCURVE",
"418 377 OFFCURVE",
"424 371 CURVE",
"526 512 LINE",
"479 537 OFFCURVE",
"404 573 OFFCURVE",
"319 573 CURVE SMOOTH",
"188 573 OFFCURVE",
"54 491 OFFCURVE",
"54 348 CURVE SMOOTH",
"54 284 OFFCURVE",
"91 245 OFFCURVE",
"169 216 CURVE SMOOTH",
"227 195 OFFCURVE",
"282 188 OFFCURVE",
"282 164 CURVE SMOOTH",
"282 154 OFFCURVE",
"273 146 OFFCURVE",
"242 146 CURVE SMOOTH",
"152 146 OFFCURVE",
"74 193 OFFCURVE",
"69 206 CURVE",
"-36 57 LINE",
"26 19 OFFCURVE",
"122 -8 OFFCURVE",
"206 -8 CURVE SMOOTH"
);
}
);
width = 523;
}
);
},
{
glyphname = T;
lastChange = "2016-08-18 22:46:43 +0000";
layers = (
{
anchors = (
{
name = bottom;
position = "{234, 0}";
},
{
name = top;
position = "{385, 708}";
}
);
background = {
paths = (
{
closed = 1;
nodes = (
"139 0 LINE",
"334 0 LINE",
"449 540 LINE",
"639 540 LINE",
"675 710 LINE",
"99 710 LINE",
"63 540 LINE",
"254 540 LINE"
);
}
);
};
layerId = UUID0;
paths = (
{
closed = 1;
nodes = (
"139 0 LINE",
"334 0 LINE",
"449 540 LINE",
"639 540 LINE",
"675 710 LINE",
"99 710 LINE",
"63 540 LINE",
"254 540 LINE"
);
}
);
width = 600;
}
);
leftKerningGroup = T;
rightKerningGroup = T;
unicode = 0054;
},
{
glyphname = T.sc;
lastChange = "2016-08-18 22:46:43 +0000";
layers = (
{
anchors = (
{
name = bottom;
position = "{238, 0}";
},
{
name = top;
position = "{238, 707}";
}
);
background = {
paths = (
{
closed = 1;
nodes = (
"123 0 LINE",
"294 0 LINE",
"384 420 LINE",
"557 420 LINE",
"589 568 LINE",
"69 568 LINE",
"38 420 LINE",
"213 420 LINE"
);
}
);
};
layerId = UUID0;
paths = (
{
closed = 1;
nodes = (
"123 0 LINE",
"294 0 LINE",
"384 420 LINE",
"557 420 LINE",
"589 568 LINE",
"69 568 LINE",
"38 420 LINE",
"213 420 LINE"
);
}
);
width = 545;
}
);
},
{
glyphname = Tbar;
lastChange = "2016-08-18 22:46:43 +0000";
layers = (
{
background = {
paths = (
{
closed = 1;
nodes = (
"53 268 LINE",
"552 268 LINE",
"571 356 LINE",
"72 356 LINE"
);
},
{
closed = 1;
nodes = (
"149 0 LINE",
"344 0 LINE",
"458 540 LINE",
"648 540 LINE",
"684 710 LINE",
"108 710 LINE",
"72 540 LINE",
"263 540 LINE"
);
}
);
};
layerId = UUID0;
paths = (
{
closed = 1;
nodes = (
"53 268 LINE",
"552 268 LINE",
"571 356 LINE",
"72 356 LINE"
);
},
{
closed = 1;
nodes = (
"149 0 LINE",
"344 0 LINE",
"458 540 LINE",
"648 540 LINE",
"684 710 LINE",
"108 710 LINE",
"72 540 LINE",
"263 540 LINE"
);
}
);
width = 620;
}
);
leftKerningGroup = T;
rightKerningGroup = T;
unicode = 0166;
},
{
glyphname = Thorn;
lastChange = "2016-08-18 22:46:43 +0000";
layers = (
{
background = {
paths = (
{
closed = 1;
nodes = (
"-3 0 LINE",
"192 0 LINE",
"213 101 LINE",
"301 101 LINE SMOOTH",
"455 101 OFFCURVE",
"583 248 OFFCURVE",
"583 388 CURVE SMOOTH",
"583 492 OFFCURVE",
"515 592 OFFCURVE",
"400 592 CURVE",
"318 592 LINE",
"343 710 LINE",
"148 710 LINE"
);
},
{
closed = 1;
nodes = (
"250 271 LINE",
"282 422 LINE",
"354 422 LINE SMOOTH",
"370 422 OFFCURVE",
"386 403 OFFCURVE",
"386 368 CURVE SMOOTH",
"386 313 OFFCURVE",
"351 271 OFFCURVE",
"327 271 CURVE"
);
}
);
};
layerId = UUID0;
paths = (
{
closed = 1;
nodes = (
"-3 0 LINE",
"192 0 LINE",
"213 101 LINE",
"301 101 LINE SMOOTH",
"455 101 OFFCURVE",
"583 248 OFFCURVE",
"583 388 CURVE SMOOTH",
"583 492 OFFCURVE",
"515 592 OFFCURVE",
"400 592 CURVE",
"318 592 LINE",
"343 710 LINE",
"148 710 LINE"
);
},
{
closed = 1;
nodes = (
"250 271 LINE",
"282 422 LINE",
"354 422 LINE SMOOTH",
"370 422 OFFCURVE",
"386 403 OFFCURVE",
"386 368 CURVE SMOOTH",
"386 313 OFFCURVE",
"351 271 OFFCURVE",
"327 271 CURVE"
);
}
);
width = 585;
}
);
leftKerningGroup = I;
unicode = 00DE;
},
{
glyphname = U;
lastChange = "2016-08-18 22:46:43 +0000";
layers = (
{
anchors = (
{
name = bottom;
position = "{290, 0}";
},
{
name = top;
position = "{318, 708}";
}
);
background = {
paths = (
{
closed = 1;
nodes = (
"500 -6 OFFCURVE",
"630 147 OFFCURVE",
"672 345 CURVE SMOOTH",
"750 710 LINE",
"555 710 LINE",
"477 345 LINE SMOOTH",
"457 253 OFFCURVE",
"408 167 OFFCURVE",
"328 167 CURVE SMOOTH",
"270 167 OFFCURVE",
"247 212 OFFCURVE",
"247 274 CURVE SMOOTH",
"247 296 OFFCURVE",
"250 320 OFFCURVE",
"255 345 CURVE SMOOTH",
"333 710 LINE",
"138 710 LINE",
"60 345 LINE SMOOTH",
"52 308 OFFCURVE",
"48 272 OFFCURVE",
"48 238 CURVE SMOOTH",
"48 99 OFFCURVE",
"117 -6 OFFCURVE",
"291 -6 CURVE SMOOTH"
);
}
);
};
layerId = UUID0;
paths = (
{
closed = 1;
nodes = (
"291 -6 LINE SMOOTH",
"500 -6 OFFCURVE",
"630 147 OFFCURVE",
"672 345 CURVE SMOOTH",
"750 710 LINE",
"555 710 LINE",
"477 345 LINE SMOOTH",
"457 253 OFFCURVE",
"408 167 OFFCURVE",
"328 167 CURVE SMOOTH",
"270 167 OFFCURVE",
"247 212 OFFCURVE",
"247 274 CURVE SMOOTH",
"247 296 OFFCURVE",
"250 320 OFFCURVE",
"255 345 CURVE SMOOTH",
"333 710 LINE",
"138 710 LINE",
"60 345 LINE SMOOTH",
"52 308 OFFCURVE",
"48 272 OFFCURVE",
"48 238 CURVE SMOOTH",
"48 99 OFFCURVE",
"117 -6 OFFCURVE",
"291 -6 CURVE SMOOTH"
);
}
);
width = 713;
}
);
leftKerningGroup = U;
rightKerningGroup = U;
unicode = 0055;
},
{
glyphname = U.sc;
lastChange = "2016-08-18 22:46:43 +0000";
layers = (
{
anchors = (
{
name = bottom;
position = "{318, 0}";
},
{
name = top;
position = "{318, 707}";
}
);
background = {
paths = (
{
closed = 1;
nodes = (
"434 -5 OFFCURVE",
"545 116 OFFCURVE",
"579 275 CURVE SMOOTH",
"641 568 LINE",
"471 568 LINE",
"409 275 LINE SMOOTH",
"395 208 OFFCURVE",
"355 146 OFFCURVE",
"282 146 CURVE SMOOTH",
"228 146 OFFCURVE",
"206 182 OFFCURVE",
"206 231 CURVE SMOOTH",
"206 245 OFFCURVE",
"208 259 OFFCURVE",
"211 275 CURVE SMOOTH",
"273 568 LINE",
"103 568 LINE",
"41 275 LINE SMOOTH",
"35 247 OFFCURVE",
"32 221 OFFCURVE",
"32 195 CURVE SMOOTH",
"32 81 OFFCURVE",
"94 -5 OFFCURVE",
"250 -5 CURVE SMOOTH"
);
}
);
};
layerId = UUID0;
paths = (
{
closed = 1;
nodes = (
"250 -5 LINE SMOOTH",
"434 -5 OFFCURVE",
"545 116 OFFCURVE",
"579 275 CURVE SMOOTH",
"641 568 LINE",
"471 568 LINE",
"409 275 LINE SMOOTH",
"395 208 OFFCURVE",
"355 146 OFFCURVE",
"282 146 CURVE SMOOTH",
"228 146 OFFCURVE",
"206 182 OFFCURVE",
"206 231 CURVE SMOOTH",
"206 245 OFFCURVE",
"208 259 OFFCURVE",
"211 275 CURVE SMOOTH",
"273 568 LINE",
"103 568 LINE",
"41 275 LINE SMOOTH",
"35 247 OFFCURVE",
"32 221 OFFCURVE",
"32 195 CURVE SMOOTH",
"32 81 OFFCURVE",
"94 -5 OFFCURVE",
"250 -5 CURVE SMOOTH"
);
}
);
width = 630;
}
);
},
{
glyphname = V;
lastChange = "2016-08-18 22:46:43 +0000";
layers = (
{
background = {
paths = (
{
closed = 1;
nodes = (
"173 0 LINE",
"335 0 LINE",
"731 710 LINE",
"526 710 LINE",
"306 245 LINE",
"282 710 LINE",
"76 710 LINE"
);
}
);
};
layerId = UUID0;
paths = (
{
closed = 1;
nodes = (
"173 0 LINE",
"335 0 LINE",
"731 710 LINE",
"526 710 LINE",
"306 245 LINE",
"282 710 LINE",
"76 710 LINE"
);
}
);
width = 641;
}
);
unicode = 0056;
},
{
glyphname = V.sc;
lastChange = "2016-08-18 22:46:43 +0000";
layers = (
{
background = {
paths = (
{
closed = 1;
nodes = (
"154 0 LINE",
"295 0 LINE",
"639 568 LINE",
"460 568 LINE",
"276 241 LINE",
"228 568 LINE",
"48 568 LINE"
);
}
);
};
layerId = UUID0;
paths = (
{
closed = 1;
nodes = (
"154 0 LINE",
"295 0 LINE",
"639 568 LINE",
"460 568 LINE",
"276 241 LINE",
"228 568 LINE",
"48 568 LINE"
);
}
);
width = 581;
}
);
},
{
glyphname = W;
lastChange = "2016-08-18 22:46:43 +0000";
layers = (
{
anchors = (
{
name = top;
position = "{582, 708}";
}
);
background = {
paths = (
{
closed = 1;
nodes = (
"181 0 LINE",
"342 0 LINE",
"487 254 LINE",
"526 0 LINE",
"687 0 LINE",
"1101 710 LINE",
"888 710 LINE",
"648 223 LINE",
"637 371 LINE",
"820 710 LINE",
"641 710 LINE",
"538 491 LINE",
"528 710 LINE",
"350 710 LINE",
"386 371 LINE",
"315 223 LINE",
"280 710 LINE",
"69 710 LINE"
);
}
);
};
layerId = UUID0;
paths = (
{
closed = 1;
nodes = (
"181 0 LINE",
"342 0 LINE",
"487 254 LINE",
"526 0 LINE",
"687 0 LINE",
"1101 710 LINE",
"888 710 LINE",
"648 223 LINE",
"637 371 LINE",
"820 710 LINE",
"641 710 LINE",
"538 491 LINE",
"528 710 LINE",
"350 710 LINE",
"386 371 LINE",
"315 223 LINE",
"280 710 LINE",
"69 710 LINE"
);
}
);
width = 1002;
}
);
leftKerningGroup = W;
rightKerningGroup = W;
unicode = 0057;
},
{
glyphname = W.alt;
lastChange = "2016-08-18 22:46:43 +0000";
layers = (
{
background = {
paths = (
{
closed = 1;
nodes = (
"141 0 LINE",
"343 0 LINE",
"567 391 LINE",
"625 1 LINE",
"827 1 LINE",
"1186 711 LINE",
"964 711 LINE",
"769 296 LINE",
"741 710 LINE",
"529 710 LINE",
"324 295 LINE",
"305 710 LINE",
"84 710 LINE"
);
}
);
};
layerId = UUID0;
paths = (
{
closed = 1;
nodes = (
"141 0 LINE",
"343 0 LINE",
"567 391 LINE",
"625 1 LINE",
"827 1 LINE",
"1186 711 LINE",
"964 711 LINE",
"769 296 LINE",
"741 710 LINE",
"529 710 LINE",
"324 295 LINE",
"305 710 LINE",
"84 710 LINE"
);
}
);
width = 1101;
}
);
},
{
glyphname = W.sc;
lastChange = "2016-08-18 22:46:43 +0000";
layers = (
{
anchors = (
{
name = top;
position = "{438, 707}";
}
);
background = {
paths = (
{
closed = 1;
nodes = (
"164 0 LINE",
"305 0 LINE",
"431 192 LINE",
"476 0 LINE",
"617 0 LINE",
"977 568 LINE",
"791 568 LINE",
"576 204 LINE",
"562 293 LINE",
"721 568 LINE",
"564 568 LINE",
"475 397 LINE",
"458 568 LINE",
"302 568 LINE",
"342 293 LINE",
"292 204 LINE",
"230 568 LINE",
"46 568 LINE"
);
}
);
};
layerId = UUID0;
paths = (
{
closed = 1;
nodes = (
"164 0 LINE",
"305 0 LINE",
"431 192 LINE",
"476 0 LINE",
"617 0 LINE",
"977 568 LINE",
"791 568 LINE",
"576 204 LINE",
"562 293 LINE",
"721 568 LINE",
"564 568 LINE",
"475 397 LINE",
"458 568 LINE",
"302 568 LINE",
"342 293 LINE",
"292 204 LINE",
"230 568 LINE",
"46 568 LINE"
);
}
);
width = 915;
}
);
},
{
glyphname = X;
lastChange = "2016-08-18 22:46:43 +0000";
layers = (
{
background = {
paths = (
{
closed = 1;
nodes = (
"-66 0 LINE",
"145 0 LINE",
"297 214 LINE",
"358 0 LINE",
"568 0 LINE",
"428 350 LINE",
"727 710 LINE",
"517 710 LINE",
"355 486 LINE",
"288 710 LINE",
"77 710 LINE",
"223 350 LINE"
);
}
);
};
layerId = UUID0;
paths = (
{
closed = 1;
nodes = (
"-66 0 LINE",
"145 0 LINE",
"297 214 LINE",
"358 0 LINE",
"568 0 LINE",
"428 350 LINE",
"727 710 LINE",
"517 710 LINE",
"355 486 LINE",
"288 710 LINE",
"77 710 LINE",
"223 350 LINE"
);
}
);
width = 631;
}
);
unicode = 0058;
},
{
glyphname = X.sc;
lastChange = "2016-08-18 22:46:43 +0000";
layers = (
{
background = {
paths = (
{
closed = 1;
nodes = (
"-62 0 LINE",
"123 0 LINE",
"259 161 LINE",
"326 0 LINE",
"510 0 LINE",
"373 280 LINE",
"637 568 LINE",
"453 568 LINE",
"309 399 LINE",
"236 568 LINE",
"52 568 LINE",
"194 280 LINE"
);
}
);
};
layerId = UUID0;
paths = (
{
closed = 1;
nodes = (
"-62 0 LINE",
"123 0 LINE",
"259 161 LINE",
"326 0 LINE",
"510 0 LINE",
"373 280 LINE",
"637 568 LINE",
"453 568 LINE",
"309 399 LINE",
"236 568 LINE",
"52 568 LINE",
"194 280 LINE"
);
}
);
width = 577;
}
);
},
{
glyphname = Y;
lastChange = "2016-08-18 22:46:43 +0000";
layers = (
{
anchors = (
{
name = top;
position = "{393, 708}";
}
);
background = {
paths = (
{
closed = 1;
nodes = (
"147 0 LINE",
"341 0 LINE",
"391 235 LINE",
"723 710 LINE",
"511 710 LINE",
"330 403 LINE",
"283 710 LINE",
"72 710 LINE",
"198 237 LINE"
);
}
);
};
layerId = UUID0;
paths = (
{
closed = 1;
nodes = (
"147 0 LINE",
"341 0 LINE",
"391 235 LINE",
"723 710 LINE",
"511 710 LINE",
"330 403 LINE",
"283 710 LINE",
"72 710 LINE",
"198 237 LINE"
);
}
);
width = 627;
}
);
leftKerningGroup = Y;
rightKerningGroup = Y;
unicode = 0059;
},
{
glyphname = Y.sc;
lastChange = "2016-08-18 22:46:43 +0000";
layers = (
{
anchors = (
{
name = top;
position = "{231, 707}";
}
);
background = {
paths = (
{
closed = 1;
nodes = (
"130 0 LINE",
"300 0 LINE",
"340 185 LINE",
"630 568 LINE",
"445 568 LINE",
"286 331 LINE",
"229 568 LINE",
"45 568 LINE",
"170 186 LINE"
);
}
);
};
layerId = UUID0;
paths = (
{
closed = 1;
nodes = (
"130 0 LINE",
"300 0 LINE",
"340 185 LINE",
"630 568 LINE",
"445 568 LINE",
"286 331 LINE",
"229 568 LINE",
"45 568 LINE",
"170 186 LINE"
);
}
);
width = 567;
}
);
},
{
glyphname = Z;
lastChange = "2016-08-18 22:46:43 +0000";
layers = (
{
anchors = (
{
name = top;
position = "{380, 708}";
}
);
background = {
paths = (
{
closed = 1;
nodes = (
"-37 0 LINE",
"498 0 LINE",
"534 170 LINE",
"244 170 LINE",
"612 565 LINE",
"643 710 LINE",
"129 710 LINE",
"93 540 LINE",
"381 540 LINE",
"-6 145 LINE"
);
}
);
};
layerId = UUID0;
paths = (
{
closed = 1;
nodes = (
"-37 0 LINE",
"498 0 LINE",
"534 170 LINE",
"244 170 LINE",
"612 565 LINE",
"643 710 LINE",
"129 710 LINE",
"93 540 LINE",
"381 540 LINE",
"-6 145 LINE"
);
}
);
width = 593;
}
);
leftKerningGroup = Z;
rightKerningGroup = Z;
unicode = 005A;
},
{
glyphname = Z.sc;
lastChange = "2016-08-18 22:46:43 +0000";
layers = (
{
anchors = (
{
name = top;
position = "{272, 707}";
}
);
background = {
paths = (
{
closed = 1;
nodes = (
"-35 0 LINE",
"449 0 LINE",
"481 148 LINE",
"210 148 LINE",
"538 442 LINE",
"565 568 LINE",
"99 568 LINE",
"67 420 LINE",
"336 420 LINE",
"-8 126 LINE"
);
}
);
};
layerId = UUID0;
paths = (
{
closed = 1;
nodes = (
"-35 0 LINE",
"449 0 LINE",
"481 148 LINE",
"210 148 LINE",
"538 442 LINE",
"565 568 LINE",
"99 568 LINE",
"67 420 LINE",
"336 420 LINE",
"-8 126 LINE"
);
}
);
width = 546;
}
);
},
{
glyphname = a;
lastChange = "2016-08-18 22:46:43 +0000";
layers = (
{
anchors = (
{
name = bottom;
position = "{469, 7}";
},
{
name = top;
position = "{317, 522}";
}
);
background = {
paths = (
{
closed = 1;
nodes = (
"258 -10 OFFCURVE",
"325 18 OFFCURVE",
"373 82 CURVE",
"372 77 OFFCURVE",
"372 72 OFFCURVE",
"372 67 CURVE SMOOTH",
"372 10 OFFCURVE",
"410 -10 OFFCURVE",
"469 -10 CURVE SMOOTH",
"488 -10 OFFCURVE",
"515 -7 OFFCURVE",
"550 0 CURVE",
"584 160 LINE",
"565 161 OFFCURVE",
"557 168 OFFCURVE",
"557 186 CURVE SMOOTH",
"557 192 OFFCURVE",
"558 200 OFFCURVE",
"560 210 CURVE SMOOTH",
"627 522 LINE",
"436 522 LINE",
"420 448 LINE",
"404 503 OFFCURVE",
"354 536 OFFCURVE",
"291 536 CURVE SMOOTH",
"139 536 OFFCURVE",
"7 383 OFFCURVE",
"7 202 CURVE SMOOTH",
"7 77 OFFCURVE",
"77 -10 OFFCURVE",
"193 -10 CURVE SMOOTH"
);
},
{
closed = 1;
nodes = (
"233 150 OFFCURVE",
"207 183 OFFCURVE",
"207 233 CURVE SMOOTH",
"207 308 OFFCURVE",
"263 376 OFFCURVE",
"319 376 CURVE SMOOTH",
"355 376 OFFCURVE",
"383 344 OFFCURVE",
"390 298 CURVE",
"370 204 LINE",
"337 168 OFFCURVE",
"311 150 OFFCURVE",
"279 150 CURVE SMOOTH"
);
}
);
};
layerId = UUID0;
paths = (
{
closed = 1;
nodes = (
"193 -10 LINE SMOOTH",
"258 -10 OFFCURVE",
"325 18 OFFCURVE",
"373 82 CURVE",
"372 77 OFFCURVE",
"372 72 OFFCURVE",
"372 67 CURVE SMOOTH",
"372 10 OFFCURVE",
"410 -10 OFFCURVE",
"469 -10 CURVE SMOOTH",
"488 -10 OFFCURVE",
"515 -7 OFFCURVE",
"550 0 CURVE",
"584 160 LINE",
"565 161 OFFCURVE",
"557 168 OFFCURVE",
"557 186 CURVE SMOOTH",
"557 192 OFFCURVE",
"558 200 OFFCURVE",
"560 210 CURVE SMOOTH",
"627 522 LINE",
"436 522 LINE",
"420 448 LINE",
"404 503 OFFCURVE",
"354 536 OFFCURVE",
"291 536 CURVE SMOOTH",
"139 536 OFFCURVE",
"7 383 OFFCURVE",
"7 202 CURVE SMOOTH",
"7 77 OFFCURVE",
"77 -10 OFFCURVE",
"193 -10 CURVE SMOOTH"
);
},
{
closed = 1;
nodes = (
"279 150 LINE SMOOTH",
"233 150 OFFCURVE",
"207 183 OFFCURVE",
"207 233 CURVE SMOOTH",
"207 308 OFFCURVE",
"263 376 OFFCURVE",
"319 376 CURVE SMOOTH",
"355 376 OFFCURVE",
"383 344 OFFCURVE",
"390 298 CURVE",
"370 204 LINE",
"337 168 OFFCURVE",
"311 150 OFFCURVE",
"279 150 CURVE SMOOTH"
);
}
);
width = 646;
}
);
leftKerningGroup = a;
rightKerningGroup = a;
unicode = 0061;
},
{
glyphname = a.alt;
lastChange = "2016-08-18 22:46:43 +0000";
layers = (
{
background = {
paths = (
{
closed = 1;
nodes = (
"257 -10 OFFCURVE",
"302 16 OFFCURVE",
"341 69 CURVE",
"326 0 LINE",
"515 0 LINE",
"625 518 LINE",
"435 518 LINE",
"420 448 LINE",
"404 503 OFFCURVE",
"355 536 OFFCURVE",
"290 536 CURVE SMOOTH",
"140 536 OFFCURVE",
"7 383 OFFCURVE",
"7 203 CURVE SMOOTH",
"7 77 OFFCURVE",
"78 -10 OFFCURVE",
"193 -10 CURVE SMOOTH"
);
},
{
closed = 1;
nodes = (
"234 150 OFFCURVE",
"207 184 OFFCURVE",
"207 234 CURVE SMOOTH",
"207 307 OFFCURVE",
"263 376 OFFCURVE",
"318 376 CURVE SMOOTH",
"353 376 OFFCURVE",
"382 346 OFFCURVE",
"389 298 CURVE",
"369 204 LINE",
"338 168 OFFCURVE",
"311 150 OFFCURVE",
"278 150 CURVE SMOOTH"
);
}
);
};
layerId = UUID0;
paths = (
{
closed = 1;
nodes = (
"193 -10 LINE SMOOTH",
"257 -10 OFFCURVE",
"302 16 OFFCURVE",
"341 69 CURVE",
"326 0 LINE",
"515 0 LINE",
"625 518 LINE",
"435 518 LINE",
"420 448 LINE",
"404 503 OFFCURVE",
"355 536 OFFCURVE",
"290 536 CURVE SMOOTH",
"140 536 OFFCURVE",
"7 383 OFFCURVE",
"7 203 CURVE SMOOTH",
"7 77 OFFCURVE",
"78 -10 OFFCURVE",
"193 -10 CURVE SMOOTH"
);
},
{
closed = 1;
nodes = (
"278 150 LINE SMOOTH",
"234 150 OFFCURVE",
"207 184 OFFCURVE",
"207 234 CURVE SMOOTH",
"207 307 OFFCURVE",
"263 376 OFFCURVE",
"318 376 CURVE SMOOTH",
"353 376 OFFCURVE",
"382 346 OFFCURVE",
"389 298 CURVE",
"369 204 LINE",
"338 168 OFFCURVE",
"311 150 OFFCURVE",
"278 150 CURVE SMOOTH"
);
}
);
width = 627;
}
);
leftKerningGroup = a;
rightKerningGroup = a.alt;
},
{
glyphname = a.alt2;
lastChange = "2016-08-18 22:46:43 +0000";
layers = (
{
background = {
paths = (
{
closed = 1;
nodes = (
"195 -10 OFFCURVE",
"249 16 OFFCURVE",
"290 65 CURVE",
"277 0 LINE",
"460 0 LINE",
"526 312 LINE SMOOTH",
"531 334 OFFCURVE",
"533 354 OFFCURVE",
"533 373 CURVE SMOOTH",
"533 481 OFFCURVE",
"458 536 OFFCURVE",
"320 536 CURVE SMOOTH",
"234 536 OFFCURVE",
"155 514 OFFCURVE",
"78 469 CURVE",
"107 351 LINE",
"168 388 OFFCURVE",
"218 408 OFFCURVE",
"274 408 CURVE SMOOTH",
"323 408 OFFCURVE",
"343 391 OFFCURVE",
"343 357 CURVE SMOOTH",
"343 350 OFFCURVE",
"342 343 OFFCURVE",
"341 335 CURVE SMOOTH",
"338 319 LINE",
"314 332 OFFCURVE",
"282 339 OFFCURVE",
"245 339 CURVE SMOOTH",
"99 339 OFFCURVE",
"-14 249 OFFCURVE",
"-14 129 CURVE SMOOTH",
"-14 48 OFFCURVE",
"43 -10 OFFCURVE",
"130 -10 CURVE SMOOTH"
);
},
{
closed = 1;
nodes = (
"188 126 OFFCURVE",
"171 143 OFFCURVE",
"171 167 CURVE SMOOTH",
"171 205 OFFCURVE",
"209 236 OFFCURVE",
"256 236 CURVE SMOOTH",
"274 236 OFFCURVE",
"299 230 OFFCURVE",
"316 222 CURVE",
"308 183 LINE SMOOTH",
"305 170 OFFCURVE",
"292 156 OFFCURVE",
"276 146 CURVE SMOOTH",
"257 134 OFFCURVE",
"235 126 OFFCURVE",
"216 126 CURVE SMOOTH"
);
}
);
};
layerId = UUID0;
paths = (
{
closed = 1;
nodes = (
"130 -10 LINE SMOOTH",
"195 -10 OFFCURVE",
"249 16 OFFCURVE",
"290 65 CURVE",
"277 0 LINE",
"460 0 LINE",
"526 312 LINE SMOOTH",
"531 334 OFFCURVE",
"533 354 OFFCURVE",
"533 373 CURVE SMOOTH",
"533 481 OFFCURVE",
"458 536 OFFCURVE",
"320 536 CURVE SMOOTH",
"234 536 OFFCURVE",
"155 514 OFFCURVE",
"78 469 CURVE",
"107 351 LINE",
"168 388 OFFCURVE",
"218 408 OFFCURVE",
"274 408 CURVE SMOOTH",
"323 408 OFFCURVE",
"343 391 OFFCURVE",
"343 357 CURVE SMOOTH",
"343 350 OFFCURVE",
"342 343 OFFCURVE",
"341 335 CURVE SMOOTH",
"338 319 LINE",
"314 332 OFFCURVE",
"282 339 OFFCURVE",
"245 339 CURVE SMOOTH",
"99 339 OFFCURVE",
"-14 249 OFFCURVE",
"-14 129 CURVE SMOOTH",
"-14 48 OFFCURVE",
"43 -10 OFFCURVE",
"130 -10 CURVE SMOOTH"
);
},
{
closed = 1;
nodes = (
"216 126 LINE SMOOTH",
"188 126 OFFCURVE",
"171 143 OFFCURVE",
"171 167 CURVE SMOOTH",
"171 205 OFFCURVE",
"209 236 OFFCURVE",
"256 236 CURVE SMOOTH",
"274 236 OFFCURVE",
"299 230 OFFCURVE",
"316 222 CURVE",
"308 183 LINE SMOOTH",
"305 170 OFFCURVE",
"292 156 OFFCURVE",
"276 146 CURVE SMOOTH",
"257 134 OFFCURVE",
"235 126 OFFCURVE",
"216 126 CURVE SMOOTH"
);
}
);
width = 565;
}
);
leftKerningGroup = a.alt2;
},
{
glyphname = ae;
lastChange = "2016-08-18 22:46:43 +0000";
layers = (
{
anchors = (
{
name = top;
position = "{493, 522}";
}
);
background = {
paths = (
{
closed = 1;
nodes = (
"192 -10 OFFCURVE",
"279 20 OFFCURVE",
"344 92 CURVE",
"376 31 OFFCURVE",
"443 -10 OFFCURVE",
"545 -10 CURVE SMOOTH",
"668 -10 OFFCURVE",
"768 49 OFFCURVE",
"827 133 CURVE",
"676 179 LINE",
"659 146 OFFCURVE",
"616 126 OFFCURVE",
"581 126 CURVE SMOOTH",
"547 126 OFFCURVE",
"516 144 OFFCURVE",
"516 186 CURVE SMOOTH",
"516 194 OFFCURVE",
"517 199 OFFCURVE",
"518 205 CURVE",
"861 205 LINE",
"872 231 OFFCURVE",
"886 266 OFFCURVE",
"886 318 CURVE SMOOTH",
"886 436 OFFCURVE",
"814 536 OFFCURVE",
"661 536 CURVE SMOOTH",
"594 536 OFFCURVE",
"535 517 OFFCURVE",
"486 486 CURVE",
"449 519 OFFCURVE",
"395 536 OFFCURVE",
"320 536 CURVE SMOOTH",
"234 536 OFFCURVE",
"154 514 OFFCURVE",
"78 469 CURVE",
"108 351 LINE",
"168 388 OFFCURVE",
"218 408 OFFCURVE",
"274 408 CURVE SMOOTH",
"323 408 OFFCURVE",
"344 392 OFFCURVE",
"344 359 CURVE SMOOTH",
"344 347 OFFCURVE",
"341 332 OFFCURVE",
"339 319 CURVE",
"317 332 OFFCURVE",
"284 339 OFFCURVE",
"245 339 CURVE SMOOTH",
"102 339 OFFCURVE",
"-14 248 OFFCURVE",
"-14 130 CURVE SMOOTH",
"-14 48 OFFCURVE",
"43 -10 OFFCURVE",
"130 -10 CURVE SMOOTH"
);
},
{
closed = 1;
nodes = (
"187 126 OFFCURVE",
"171 143 OFFCURVE",
"171 167 CURVE SMOOTH",
"171 205 OFFCURVE",
"212 236 OFFCURVE",
"255 236 CURVE SMOOTH",
"274 236 OFFCURVE",
"300 230 OFFCURVE",
"318 222 CURVE",
"316 203 OFFCURVE",
"314 189 OFFCURVE",
"314 175 CURVE SMOOTH",
"314 170 OFFCURVE",
"314 164 OFFCURVE",
"315 159 CURVE",
"289 141 OFFCURVE",
"250 126 OFFCURVE",
"219 126 CURVE SMOOTH"
);
},
{
closed = 1;
nodes = (
"538 319 LINE",
"554 370 OFFCURVE",
"588 401 OFFCURVE",
"629 401 CURVE SMOOTH",
"666 401 OFFCURVE",
"687 375 OFFCURVE",
"687 335 CURVE SMOOTH",
"687 326 OFFCURVE",
"686 325 OFFCURVE",
"686 319 CURVE"
);
}
);
};
layerId = UUID0;
paths = (
{
closed = 1;
nodes = (
"130 -10 LINE SMOOTH",
"192 -10 OFFCURVE",
"279 20 OFFCURVE",
"344 92 CURVE",
"376 31 OFFCURVE",
"443 -10 OFFCURVE",
"545 -10 CURVE SMOOTH",
"668 -10 OFFCURVE",
"768 49 OFFCURVE",
"827 133 CURVE",
"676 179 LINE",
"659 146 OFFCURVE",
"616 126 OFFCURVE",
"581 126 CURVE SMOOTH",
"547 126 OFFCURVE",
"516 144 OFFCURVE",
"516 186 CURVE SMOOTH",
"516 194 OFFCURVE",
"517 199 OFFCURVE",
"518 205 CURVE",
"861 205 LINE",
"872 231 OFFCURVE",
"886 266 OFFCURVE",
"886 318 CURVE SMOOTH",
"886 436 OFFCURVE",
"814 536 OFFCURVE",
"661 536 CURVE SMOOTH",
"594 536 OFFCURVE",
"535 517 OFFCURVE",
"486 486 CURVE",
"449 519 OFFCURVE",
"395 536 OFFCURVE",
"320 536 CURVE SMOOTH",
"234 536 OFFCURVE",
"154 514 OFFCURVE",
"78 469 CURVE",
"108 351 LINE",
"168 388 OFFCURVE",
"218 408 OFFCURVE",
"274 408 CURVE SMOOTH",
"323 408 OFFCURVE",
"344 392 OFFCURVE",
"344 359 CURVE SMOOTH",
"344 347 OFFCURVE",
"341 332 OFFCURVE",
"339 319 CURVE",
"317 332 OFFCURVE",
"284 339 OFFCURVE",
"245 339 CURVE SMOOTH",
"102 339 OFFCURVE",
"-14 248 OFFCURVE",
"-14 130 CURVE SMOOTH",
"-14 48 OFFCURVE",
"43 -10 OFFCURVE",
"130 -10 CURVE SMOOTH"
);
},
{
closed = 1;
nodes = (
"219 126 LINE SMOOTH",
"187 126 OFFCURVE",
"171 143 OFFCURVE",
"171 167 CURVE SMOOTH",
"171 205 OFFCURVE",
"212 236 OFFCURVE",
"255 236 CURVE SMOOTH",
"274 236 OFFCURVE",
"300 230 OFFCURVE",
"318 222 CURVE",
"316 203 OFFCURVE",
"314 189 OFFCURVE",
"314 175 CURVE SMOOTH",
"314 170 OFFCURVE",
"314 164 OFFCURVE",
"315 159 CURVE",
"289 141 OFFCURVE",
"250 126 OFFCURVE",
"219 126 CURVE SMOOTH"
);
},
{
closed = 1;
nodes = (
"538 319 LINE",
"554 370 OFFCURVE",
"588 401 OFFCURVE",
"629 401 CURVE SMOOTH",
"666 401 OFFCURVE",
"687 375 OFFCURVE",
"687 335 CURVE SMOOTH",
"687 326 OFFCURVE",
"686 325 OFFCURVE",
"686 319 CURVE"
);
}
);
width = 902;
}
);
leftKerningGroup = a.alt2;
rightKerningGroup = e;
unicode = 00E6;
},
{
glyphname = ampersand;
lastChange = "2016-08-18 22:46:43 +0000";
layers = (
{
background = {
paths = (
{
closed = 1;
nodes = (
"375 -10 OFFCURVE",
"596 123 OFFCURVE",
"660 416 CURVE",
"507 416 LINE",
"482 232 OFFCURVE",
"357 134 OFFCURVE",
"264 134 CURVE SMOOTH",
"226 134 OFFCURVE",
"197 153 OFFCURVE",
"197 195 CURVE SMOOTH",
"197 242 OFFCURVE",
"231 266 OFFCURVE",
"355 318 CURVE",
"273 444 LINE",
"146 371 OFFCURVE",
"12 317 OFFCURVE",
"12 176 CURVE SMOOTH",
"12 82 OFFCURVE",
"72 -10 OFFCURVE",
"210 -10 CURVE SMOOTH"
);
},
{
closed = 1;
nodes = (
"415 0 LINE",
"663 0 LINE",
"361 438 LINE SMOOTH",
"319 499 OFFCURVE",
"297 513 OFFCURVE",
"297 539 CURVE SMOOTH",
"297 568 OFFCURVE",
"323 582 OFFCURVE",
"345 582 CURVE SMOOTH",
"371 582 OFFCURVE",
"399 564 OFFCURVE",
"409 515 CURVE",
"543 565 LINE",
"523 673 OFFCURVE",
"443 719 OFFCURVE",
"355 719 CURVE SMOOTH",
"234 719 OFFCURVE",
"120 633 OFFCURVE",
"120 507 CURVE SMOOTH",
"120 452 OFFCURVE",
"141 410 OFFCURVE",
"189 338 CURVE SMOOTH"
);
},
{
closed = 1;
nodes = (
"503 287 LINE",
"679 287 LINE",
"694 416 LINE",
"518 416 LINE"
);
}
);
};
layerId = UUID0;
paths = (
{
closed = 1;
nodes = (
"210 -10 LINE SMOOTH",
"375 -10 OFFCURVE",
"596 123 OFFCURVE",
"660 416 CURVE",
"507 416 LINE",
"482 232 OFFCURVE",
"357 134 OFFCURVE",
"264 134 CURVE SMOOTH",
"226 134 OFFCURVE",
"197 153 OFFCURVE",
"197 195 CURVE SMOOTH",
"197 242 OFFCURVE",
"231 266 OFFCURVE",
"355 318 CURVE",
"273 444 LINE",
"146 371 OFFCURVE",
"12 317 OFFCURVE",
"12 176 CURVE SMOOTH",
"12 82 OFFCURVE",
"72 -10 OFFCURVE",
"210 -10 CURVE SMOOTH"
);
},
{
closed = 1;
nodes = (
"415 0 LINE",
"663 0 LINE",
"361 438 LINE SMOOTH",
"319 499 OFFCURVE",
"297 513 OFFCURVE",
"297 539 CURVE SMOOTH",
"297 568 OFFCURVE",
"323 582 OFFCURVE",
"345 582 CURVE SMOOTH",
"371 582 OFFCURVE",
"399 564 OFFCURVE",
"409 515 CURVE",
"543 565 LINE",
"523 673 OFFCURVE",
"443 719 OFFCURVE",
"355 719 CURVE SMOOTH",
"234 719 OFFCURVE",
"120 633 OFFCURVE",
"120 507 CURVE SMOOTH",
"120 452 OFFCURVE",
"141 410 OFFCURVE",
"189 338 CURVE SMOOTH"
);
},
{
closed = 1;
nodes = (
"503 287 LINE",
"679 287 LINE",
"694 416 LINE",
"518 416 LINE"
);
}
);
width = 728;
}
);
unicode = 0026;
},
{
glyphname = apostrophe;
lastChange = "2016-08-18 22:46:43 +0000";
layers = (
{
anchors = (
{
name = _top;
position = "{327, 522}";
}
);
background = {
paths = (
{
closed = 1;
nodes = (
"328 556 LINE",
"460 730 LINE",
"262 730 LINE",
"262 675 LINE",
"215 588 LINE"
);
}
);
};
layerId = UUID0;
paths = (
{
closed = 1;
nodes = (
"328 556 LINE",
"460 730 LINE",
"262 730 LINE",
"262 675 LINE",
"215 588 LINE"
);
}
);
width = 506;
}
);
unicode = 02BC;
},
{
glyphname = asciicircum;
lastChange = "2016-08-18 22:46:43 +0000";
layers = (
{
background = {
paths = (
{
closed = 1;
nodes = (
"195 303 LINE",
"321 556 LINE",
"444 303 LINE",
"597 303 LINE",
"400 710 LINE",
"242 710 LINE",
"44 303 LINE"
);
}
);
};
layerId = UUID0;
paths = (
{
closed = 1;
nodes = (
"195 303 LINE",
"321 556 LINE",
"444 303 LINE",
"597 303 LINE",
"400 710 LINE",
"242 710 LINE",
"44 303 LINE"
);
}
);
width = 630;
}
);
unicode = 005E;
},
{
glyphname = asciitilde;
lastChange = "2016-08-18 22:46:43 +0000";
layers = (
{
background = {
paths = (
{
closed = 1;
nodes = (
"133 216 LINE",
"133 218 OFFCURVE",
"135 264 OFFCURVE",
"197 264 CURVE SMOOTH",
"261 264 OFFCURVE",
"309 216 OFFCURVE",
"386 216 CURVE SMOOTH",
"516 216 OFFCURVE",
"556 353 OFFCURVE",
"556 374 CURVE",
"456 374 LINE",
"456 370 OFFCURVE",
"447 323 OFFCURVE",
"387 323 CURVE SMOOTH",
"324 323 OFFCURVE",
"279 374 OFFCURVE",
"198 374 CURVE SMOOTH",
"71 374 OFFCURVE",
"32 249 OFFCURVE",
"32 216 CURVE"
);
}
);
};
layerId = UUID0;
paths = (
{
closed = 1;
nodes = (
"32 216 LINE",
"133 216 LINE",
"133 218 OFFCURVE",
"135 264 OFFCURVE",
"197 264 CURVE SMOOTH",
"261 264 OFFCURVE",
"309 216 OFFCURVE",
"386 216 CURVE SMOOTH",
"516 216 OFFCURVE",
"556 353 OFFCURVE",
"556 374 CURVE",
"456 374 LINE",
"456 370 OFFCURVE",
"447 323 OFFCURVE",
"387 323 CURVE SMOOTH",
"324 323 OFFCURVE",
"279 374 OFFCURVE",
"198 374 CURVE SMOOTH",
"71 374 OFFCURVE",
"32 249 OFFCURVE",
"32 216 CURVE"
);
}
);
width = 587;
}
);
unicode = 007E;
},
{
glyphname = asterisk;
lastChange = "2016-08-18 22:46:43 +0000";
layers = (
{
background = {
paths = (
{
closed = 1;
nodes = (
"166 454 LINE",
"229 537 LINE",
"258 454 LINE",
"336 499 LINE",
"305 577 LINE",
"378 598 LINE",
"371 675 LINE",
"292 639 LINE",
"316 721 LINE",
"221 721 LINE",
"210 639 LINE",
"146 675 LINE",
"106 598 LINE",
"170 577 LINE",
"107 499 LINE"
);
}
);
};
layerId = UUID0;
paths = (
{
closed = 1;
nodes = (
"166 454 LINE",
"229 537 LINE",
"258 454 LINE",
"336 499 LINE",
"305 577 LINE",
"378 598 LINE",
"371 675 LINE",
"292 639 LINE",
"316 721 LINE",
"221 721 LINE",
"210 639 LINE",
"146 675 LINE",
"106 598 LINE",
"170 577 LINE",
"107 499 LINE"
);
}
);
width = 356;
}
);
unicode = 002A;
},
{
glyphname = at;
lastChange = "2016-08-18 22:46:43 +0000";
layers = (
{
background = {
paths = (
{
closed = 1;
nodes = (
"568 64 OFFCURVE",
"556 79 OFFCURVE",
"556 102 CURVE SMOOTH",
"556 111 OFFCURVE",
"558 125 OFFCURVE",
"560 135 CURVE SMOOTH",
"619 450 LINE",
"536 450 LINE",
"526 394 LINE",
"517 439 OFFCURVE",
"473 468 OFFCURVE",
"412 468 CURVE SMOOTH",
"279 468 OFFCURVE",
"157 332 OFFCURVE",
"157 178 CURVE SMOOTH",
"157 68 OFFCURVE",
"220 -6 OFFCURVE",
"319 -6 CURVE SMOOTH",
"369 -6 OFFCURVE",
"415 13 OFFCURVE",
"470 60 CURVE",
"469 58 OFFCURVE",
"469 54 OFFCURVE",
"469 49 CURVE SMOOTH",
"469 8 OFFCURVE",
"502 -16 OFFCURVE",
"550 -16 CURVE SMOOTH",
"676 -16 OFFCURVE",
"771 147 OFFCURVE",
"771 311 CURVE SMOOTH",
"771 496 OFFCURVE",
"650 603 OFFCURVE",
"467 603 CURVE SMOOTH",
"218 603 OFFCURVE",
"16 404 OFFCURVE",
"16 155 CURVE SMOOTH",
"16 -28 OFFCURVE",
"126 -146 OFFCURVE",
"299 -146 CURVE SMOOTH",
"358 -146 OFFCURVE",
"417 -132 OFFCURVE",
"473 -106 CURVE",
"466 -38 LINE",
"405 -65 OFFCURVE",
"361 -76 OFFCURVE",
"313 -76 CURVE SMOOTH",
"175 -76 OFFCURVE",
"91 14 OFFCURVE",
"91 164 CURVE SMOOTH",
"91 369 OFFCURVE",
"249 533 OFFCURVE",
"449 533 CURVE SMOOTH",
"600 533 OFFCURVE",
"696 440 OFFCURVE",
"696 291 CURVE SMOOTH",
"696 180 OFFCURVE",
"642 64 OFFCURVE",
"588 64 CURVE SMOOTH"
);
},
{
closed = 1;
nodes = (
"289 82 OFFCURVE",
"266 130 OFFCURVE",
"266 186 CURVE SMOOTH",
"266 285 OFFCURVE",
"337 363 OFFCURVE",
"403 363 CURVE SMOOTH",
"449 363 OFFCURVE",
"476 326 OFFCURVE",
"479 284 CURVE",
"463 169 LINE",
"439 113 OFFCURVE",
"407 82 OFFCURVE",
"354 82 CURVE SMOOTH"
);
}
);
};
layerId = UUID0;
paths = (
{
closed = 1;
nodes = (
"588 64 LINE SMOOTH",
"568 64 OFFCURVE",
"556 79 OFFCURVE",
"556 102 CURVE SMOOTH",
"556 111 OFFCURVE",
"558 125 OFFCURVE",
"560 135 CURVE SMOOTH",
"619 450 LINE",
"536 450 LINE",
"526 394 LINE",
"517 439 OFFCURVE",
"473 468 OFFCURVE",
"412 468 CURVE SMOOTH",
"279 468 OFFCURVE",
"157 332 OFFCURVE",
"157 178 CURVE SMOOTH",
"157 68 OFFCURVE",
"220 -6 OFFCURVE",
"319 -6 CURVE SMOOTH",
"369 -6 OFFCURVE",
"415 13 OFFCURVE",
"470 60 CURVE",
"469 58 OFFCURVE",
"469 54 OFFCURVE",
"469 49 CURVE SMOOTH",
"469 8 OFFCURVE",
"502 -16 OFFCURVE",
"550 -16 CURVE SMOOTH",
"676 -16 OFFCURVE",
"771 147 OFFCURVE",
"771 311 CURVE SMOOTH",
"771 496 OFFCURVE",
"650 603 OFFCURVE",
"467 603 CURVE SMOOTH",
"218 603 OFFCURVE",
"16 404 OFFCURVE",
"16 155 CURVE SMOOTH",
"16 -28 OFFCURVE",
"126 -146 OFFCURVE",
"299 -146 CURVE SMOOTH",
"358 -146 OFFCURVE",
"417 -132 OFFCURVE",
"473 -106 CURVE",
"466 -38 LINE",
"405 -65 OFFCURVE",
"361 -76 OFFCURVE",
"313 -76 CURVE SMOOTH",
"175 -76 OFFCURVE",
"91 14 OFFCURVE",
"91 164 CURVE SMOOTH",
"91 369 OFFCURVE",
"249 533 OFFCURVE",
"449 533 CURVE SMOOTH",
"600 533 OFFCURVE",
"696 440 OFFCURVE",
"696 291 CURVE SMOOTH",
"696 180 OFFCURVE",
"642 64 OFFCURVE",
"588 64 CURVE SMOOTH"
);
},
{
closed = 1;
nodes = (
"354 82 LINE SMOOTH",
"289 82 OFFCURVE",
"266 130 OFFCURVE",
"266 186 CURVE SMOOTH",
"266 285 OFFCURVE",
"337 363 OFFCURVE",
"403 363 CURVE SMOOTH",
"449 363 OFFCURVE",
"476 326 OFFCURVE",
"479 284 CURVE",
"463 169 LINE",
"439 113 OFFCURVE",
"407 82 OFFCURVE",
"354 82 CURVE SMOOTH"
);
}
);
width = 820;
}
);
unicode = 0040;
},
{
glyphname = b;
lastChange = "2016-08-18 22:46:43 +0000";
layers = (
{
background = {
paths = (
{
closed = 1;
nodes = (
"462 -10 OFFCURVE",
"604 138 OFFCURVE",
"604 325 CURVE SMOOTH",
"604 448 OFFCURVE",
"543 536 OFFCURVE",
"436 536 CURVE SMOOTH",
"370 536 OFFCURVE",
"306 502 OFFCURVE",
"269 448 CURVE",
"329 730 LINE",
"139 730 LINE",
"-16 0 LINE",
"149 0 LINE",
"166 82 LINE",
"184 22 OFFCURVE",
"232 -10 OFFCURVE",
"305 -10 CURVE SMOOTH"
);
},
{
closed = 1;
nodes = (
"252 150 OFFCURVE",
"235 168 OFFCURVE",
"217 204 CURVE",
"237 298 LINE",
"263 344 OFFCURVE",
"306 376 OFFCURVE",
"341 376 CURVE SMOOTH",
"380 376 OFFCURVE",
"404 338 OFFCURVE",
"404 287 CURVE SMOOTH",
"404 210 OFFCURVE",
"350 150 OFFCURVE",
"287 150 CURVE SMOOTH"
);
}
);
};
layerId = UUID0;
paths = (
{
closed = 1;
nodes = (
"305 -10 LINE SMOOTH",
"462 -10 OFFCURVE",
"604 138 OFFCURVE",
"604 325 CURVE SMOOTH",
"604 448 OFFCURVE",
"543 536 OFFCURVE",
"436 536 CURVE SMOOTH",
"370 536 OFFCURVE",
"306 502 OFFCURVE",
"269 448 CURVE",
"329 730 LINE",
"139 730 LINE",
"-16 0 LINE",
"149 0 LINE",
"166 82 LINE",
"184 22 OFFCURVE",
"232 -10 OFFCURVE",
"305 -10 CURVE SMOOTH"
);
},
{
closed = 1;
nodes = (
"287 150 LINE SMOOTH",
"252 150 OFFCURVE",
"235 168 OFFCURVE",
"217 204 CURVE",
"237 298 LINE",
"263 344 OFFCURVE",
"306 376 OFFCURVE",
"341 376 CURVE SMOOTH",
"380 376 OFFCURVE",
"404 338 OFFCURVE",
"404 287 CURVE SMOOTH",
"404 210 OFFCURVE",
"350 150 OFFCURVE",
"287 150 CURVE SMOOTH"
);
}
);
width = 627;
}
);
leftKerningGroup = h;
rightKerningGroup = b;
unicode = 0062;
},
{
glyphname = backslash;
lastChange = "2016-08-18 22:46:43 +0000";
layers = (
{
background = {
paths = (
{
closed = 1;
nodes = (
"106 710 LINE",
"369 0 LINE",
"578 0 LINE",
"316 710 LINE"
);
}
);
};
layerId = UUID0;
paths = (
{
closed = 1;
nodes = (
"106 710 LINE",
"369 0 LINE",
"578 0 LINE",
"316 710 LINE"
);
}
);
width = 663;
}
);
unicode = 005C;
},
{
glyphname = bar;
lastChange = "2016-08-18 22:46:43 +0000";
layers = (
{
background = {
paths = (
{
closed = 1;
nodes = (
"264 -130 LINE",
"264 775 LINE",
"104 775 LINE",
"104 -130 LINE"
);
}
);
};
layerId = UUID0;
paths = (
{
closed = 1;
nodes = (
"264 -130 LINE",
"264 775 LINE",
"104 775 LINE",
"104 -130 LINE"
);
}
);
width = 358;
}
);
unicode = 007C;
},
{
glyphname = braceleft;
lastChange = "2016-08-18 22:46:43 +0000";
layers = (
{
background = {
paths = (
{
closed = 1;
nodes = (
"377 590 LINE",
"409 740 LINE",
"209 740 LINE SMOOTH",
"201 740 OFFCURVE",
"185 734 OFFCURVE",
"180 710 CURVE SMOOTH",
"136 501 LINE SMOOTH",
"128 464 OFFCURVE",
"88 426 OFFCURVE",
"61 426 CURVE",
"34 296 LINE",
"55 291 OFFCURVE",
"78 269 OFFCURVE",
"78 236 CURVE SMOOTH",
"78 230 OFFCURVE",
"77 225 OFFCURVE",
"76 219 CURVE SMOOTH",
"29 -1 LINE SMOOTH",
"28 -5 OFFCURVE",
"28 -8 OFFCURVE",
"28 -11 CURVE SMOOTH",
"28 -28 OFFCURVE",
"38 -31 OFFCURVE",
"45 -31 CURVE SMOOTH",
"245 -31 LINE",
"277 119 LINE",
"225 119 LINE",
"260 284 LINE SMOOTH",
"261 290 OFFCURVE",
"262 296 OFFCURVE",
"262 302 CURVE SMOOTH",
"262 327 OFFCURVE",
"248 345 OFFCURVE",
"236 360 CURVE",
"260 379 OFFCURVE",
"284 399 OFFCURVE",
"292 436 CURVE SMOOTH",
"325 590 LINE"
);
}
);
};
layerId = UUID0;
paths = (
{
closed = 1;
nodes = (
"377 590 LINE",
"409 740 LINE",
"209 740 LINE SMOOTH",
"201 740 OFFCURVE",
"185 734 OFFCURVE",
"180 710 CURVE SMOOTH",
"136 501 LINE SMOOTH",
"128 464 OFFCURVE",
"88 426 OFFCURVE",
"61 426 CURVE",
"34 296 LINE",
"55 291 OFFCURVE",
"78 269 OFFCURVE",
"78 236 CURVE SMOOTH",
"78 230 OFFCURVE",
"77 225 OFFCURVE",
"76 219 CURVE SMOOTH",
"29 -1 LINE SMOOTH",
"28 -5 OFFCURVE",
"28 -8 OFFCURVE",
"28 -11 CURVE SMOOTH",
"28 -28 OFFCURVE",
"38 -31 OFFCURVE",
"45 -31 CURVE SMOOTH",
"245 -31 LINE",
"277 119 LINE",
"225 119 LINE",
"260 284 LINE SMOOTH",
"261 290 OFFCURVE",
"262 296 OFFCURVE",
"262 302 CURVE SMOOTH",
"262 327 OFFCURVE",
"248 345 OFFCURVE",
"236 360 CURVE",
"260 379 OFFCURVE",
"284 399 OFFCURVE",
"292 436 CURVE SMOOTH",
"325 590 LINE"
);
}
);
width = 360;
}
);
unicode = 007B;
},
{
glyphname = braceright;
lastChange = "2016-08-18 22:46:43 +0000";
layers = (
{
background = {
paths = (
{
closed = 1;
nodes = (
"164 590 LINE",
"131 436 LINE SMOOTH",
"129 429 OFFCURVE",
"129 423 OFFCURVE",
"129 417 CURVE SMOOTH",
"129 392 OFFCURVE",
"142 375 OFFCURVE",
"154 360 CURVE",
"132 342 OFFCURVE",
"106 320 OFFCURVE",
"98 284 CURVE SMOOTH",
"63 119 LINE",
"11 119 LINE",
"-21 -31 LINE",
"179 -31 LINE SMOOTH",
"186 -31 OFFCURVE",
"203 -26 OFFCURVE",
"208 -1 CURVE SMOOTH",
"254 219 LINE SMOOTH",
"263 261 OFFCURVE",
"301 290 OFFCURVE",
"329 296 CURVE",
"357 426 LINE",
"333 426 OFFCURVE",
"312 454 OFFCURVE",
"312 486 CURVE SMOOTH",
"312 491 OFFCURVE",
"313 496 OFFCURVE",
"314 501 CURVE SMOOTH",
"359 710 LINE SMOOTH",
"360 714 OFFCURVE",
"360 717 OFFCURVE",
"360 720 CURVE SMOOTH",
"360 735 OFFCURVE",
"350 740 OFFCURVE",
"343 740 CURVE SMOOTH",
"143 740 LINE",
"111 590 LINE"
);
}
);
};
layerId = UUID0;
paths = (
{
closed = 1;
nodes = (
"164 590 LINE",
"131 436 LINE SMOOTH",
"129 429 OFFCURVE",
"129 423 OFFCURVE",
"129 417 CURVE SMOOTH",
"129 392 OFFCURVE",
"142 375 OFFCURVE",
"154 360 CURVE",
"132 342 OFFCURVE",
"106 320 OFFCURVE",
"98 284 CURVE SMOOTH",
"63 119 LINE",
"11 119 LINE",
"-21 -31 LINE",
"179 -31 LINE SMOOTH",
"186 -31 OFFCURVE",
"203 -26 OFFCURVE",
"208 -1 CURVE SMOOTH",
"254 219 LINE SMOOTH",
"263 261 OFFCURVE",
"301 290 OFFCURVE",
"329 296 CURVE",
"357 426 LINE",
"333 426 OFFCURVE",
"312 454 OFFCURVE",
"312 486 CURVE SMOOTH",
"312 491 OFFCURVE",
"313 496 OFFCURVE",
"314 501 CURVE SMOOTH",
"359 710 LINE SMOOTH",
"360 714 OFFCURVE",
"360 717 OFFCURVE",
"360 720 CURVE SMOOTH",
"360 735 OFFCURVE",
"350 740 OFFCURVE",
"343 740 CURVE SMOOTH",
"143 740 LINE",
"111 590 LINE"
);
}
);
width = 364;
}
);
unicode = 007D;
},
{
glyphname = bracketleft;
lastChange = "2016-08-18 22:46:43 +0000";
layers = (
{
background = {
paths = (
{
closed = 1;
nodes = (
"233 -40 LINE",
"264 110 LINE",
"197 110 LINE",
"299 590 LINE",
"366 590 LINE",
"398 740 LINE",
"156 740 LINE",
"-10 -40 LINE"
);
}
);
};
layerId = UUID0;
paths = (
{
closed = 1;
nodes = (
"233 -40 LINE",
"264 110 LINE",
"197 110 LINE",
"299 590 LINE",
"366 590 LINE",
"398 740 LINE",
"156 740 LINE",
"-10 -40 LINE"
);
}
);
width = 346;
}
);
unicode = 005B;
},
{
glyphname = bracketright;
lastChange = "2016-08-18 22:46:43 +0000";
layers = (
{
background = {
paths = (
{
closed = 1;
nodes = (
"212 -40 LINE",
"377 740 LINE",
"135 740 LINE",
"103 590 LINE",
"171 590 LINE",
"69 110 LINE",
"1 110 LINE",
"-31 -40 LINE"
);
}
);
};
layerId = UUID0;
paths = (
{
closed = 1;
nodes = (
"212 -40 LINE",
"377 740 LINE",
"135 740 LINE",
"103 590 LINE",
"171 590 LINE",
"69 110 LINE",
"1 110 LINE",
"-31 -40 LINE"
);
}
);
width = 347;
}
);
unicode = 005D;
},
{
glyphname = brokenbar;
lastChange = "2016-08-18 22:46:43 +0000";
layers = (
{
background = {
paths = (
{
closed = 1;
nodes = (
"100 254 LINE",
"100 -130 LINE",
"260 -130 LINE",
"260 254 LINE"
);
},
{
closed = 1;
nodes = (
"100 775 LINE",
"100 391 LINE",
"260 391 LINE",
"260 775 LINE"
);
}
);
};
layerId = UUID0;
paths = (
{
closed = 1;
nodes = (
"100 254 LINE",
"100 -130 LINE",
"260 -130 LINE",
"260 254 LINE"
);
},
{
closed = 1;
nodes = (
"100 775 LINE",
"100 391 LINE",
"260 391 LINE",
"260 775 LINE"
);
}
);
width = 350;
}
);
unicode = 00A6;
},
{
glyphname = bullet;
lastChange = "2016-08-18 22:46:43 +0000";
layers = (
{
background = {
paths = (
{
closed = 1;
nodes = (
"308 427 OFFCURVE",
"272 470 OFFCURVE",
"217 470 CURVE SMOOTH",
"147 470 OFFCURVE",
"76 406 OFFCURVE",
"76 332 CURVE SMOOTH",
"76 278 OFFCURVE",
"113 236 OFFCURVE",
"167 236 CURVE SMOOTH",
"239 236 OFFCURVE",
"308 300 OFFCURVE",
"308 374 CURVE SMOOTH"
);
}
);
};
layerId = UUID0;
paths = (
{
closed = 1;
nodes = (
"308 374 LINE SMOOTH",
"308 427 OFFCURVE",
"272 470 OFFCURVE",
"217 470 CURVE SMOOTH",
"147 470 OFFCURVE",
"76 406 OFFCURVE",
"76 332 CURVE SMOOTH",
"76 278 OFFCURVE",
"113 236 OFFCURVE",
"167 236 CURVE SMOOTH",
"239 236 OFFCURVE",
"308 300 OFFCURVE",
"308 374 CURVE SMOOTH"
);
}
);
width = 364;
}
);
unicode = 2022;
},
{
glyphname = c;
lastChange = "2016-08-18 22:46:43 +0000";
layers = (
{
anchors = (
{
name = bottom;
position = "{237, 0}";
},
{
name = top;
position = "{348, 522}";
}
);
background = {
paths = (
{
closed = 1;
nodes = (
"354 -10 OFFCURVE",
"449 49 OFFCURVE",
"509 133 CURVE",
"336 189 LINE",
"315 164 OFFCURVE",
"291 150 OFFCURVE",
"265 150 CURVE SMOOTH",
"228 150 OFFCURVE",
"204 181 OFFCURVE",
"204 232 CURVE SMOOTH",
"204 318 OFFCURVE",
"257 376 OFFCURVE",
"313 376 CURVE SMOOTH",
"340 376 OFFCURVE",
"358 362 OFFCURVE",
"368 337 CURVE",
"565 393 LINE",
"541 477 OFFCURVE",
"471 536 OFFCURVE",
"348 536 CURVE SMOOTH",
"140 536 OFFCURVE",
"6 374 OFFCURVE",
"6 211 CURVE SMOOTH",
"6 92 OFFCURVE",
"79 -10 OFFCURVE",
"232 -10 CURVE SMOOTH"
);
}
);
};
layerId = UUID0;
paths = (
{
closed = 1;
nodes = (
"232 -10 LINE SMOOTH",
"354 -10 OFFCURVE",
"449 49 OFFCURVE",
"509 133 CURVE",
"336 189 LINE",
"315 164 OFFCURVE",
"291 150 OFFCURVE",
"265 150 CURVE SMOOTH",
"228 150 OFFCURVE",
"204 181 OFFCURVE",
"204 232 CURVE SMOOTH",
"204 318 OFFCURVE",
"257 376 OFFCURVE",
"313 376 CURVE SMOOTH",
"340 376 OFFCURVE",
"358 362 OFFCURVE",
"368 337 CURVE",
"565 393 LINE",
"541 477 OFFCURVE",
"471 536 OFFCURVE",
"348 536 CURVE SMOOTH",
"140 536 OFFCURVE",
"6 374 OFFCURVE",
"6 211 CURVE SMOOTH",
"6 92 OFFCURVE",
"79 -10 OFFCURVE",
"232 -10 CURVE SMOOTH"
);
}
);
width = 555;
}
);
leftKerningGroup = o;
rightKerningGroup = c;
unicode = 0063;
},
{
glyphname = c_t;
lastChange = "2016-08-18 22:46:43 +0000";
layers = (
{
background = {
paths = (
{
closed = 1;
nodes = (
"356 -10 OFFCURVE",
"451 49 OFFCURVE",
"510 133 CURVE",
"337 189 LINE",
"316 164 OFFCURVE",
"293 150 OFFCURVE",
"266 150 CURVE SMOOTH",
"229 150 OFFCURVE",
"205 181 OFFCURVE",
"205 232 CURVE SMOOTH",
"205 318 OFFCURVE",
"260 376 OFFCURVE",
"314 376 CURVE SMOOTH",
"341 376 OFFCURVE",
"359 362 OFFCURVE",
"369 337 CURVE",
"566 393 LINE",
"561 416 OFFCURVE",
"556 466 OFFCURVE",
"556 507 CURVE SMOOTH",
"556 576 OFFCURVE",
"568 651 OFFCURVE",
"650 651 CURVE SMOOTH",
"681 651 OFFCURVE",
"694 636 OFFCURVE",
"694 599 CURVE SMOOTH",
"694 581 OFFCURVE",
"691 557 OFFCURVE",
"685 526 CURVE",
"624 526 LINE",
"593 383 LINE",
"654 383 LINE",
"603 142 LINE SMOOTH",
"599 125 OFFCURVE",
"598 110 OFFCURVE",
"598 96 CURVE SMOOTH",
"598 17 OFFCURVE",
"653 -11 OFFCURVE",
"725 -11 CURVE SMOOTH",
"780 -11 OFFCURVE",
"846 6 OFFCURVE",
"904 29 CURVE",
"902 179 LINE",
"876 169 OFFCURVE",
"851 162 OFFCURVE",
"835 162 CURVE SMOOTH",
"816 162 OFFCURVE",
"805 170 OFFCURVE",
"805 191 CURVE SMOOTH",
"805 196 OFFCURVE",
"805 202 OFFCURVE",
"807 209 CURVE SMOOTH",
"844 383 LINE",
"941 383 LINE",
"971 526 LINE",
"875 526 LINE",
"881 554 OFFCURVE",
"887 585 OFFCURVE",
"887 613 CURVE SMOOTH",
"887 676 OFFCURVE",
"857 730 OFFCURVE",
"725 730 CURVE SMOOTH",
"569 730 OFFCURVE",
"483 660 OFFCURVE",
"483 530 CURVE SMOOTH",
"483 523 OFFCURVE",
"483 506 OFFCURVE",
"484 499 CURVE",
"446 523 OFFCURVE",
"416 536 OFFCURVE",
"356 536 CURVE SMOOTH",
"135 536 OFFCURVE",
"7 372 OFFCURVE",
"7 211 CURVE SMOOTH",
"7 91 OFFCURVE",
"81 -10 OFFCURVE",
"233 -10 CURVE SMOOTH"
);
}
);
};
layerId = UUID0;
paths = (
{
closed = 1;
nodes = (
"233 -10 LINE SMOOTH",
"356 -10 OFFCURVE",
"451 49 OFFCURVE",
"510 133 CURVE",
"337 189 LINE",
"316 164 OFFCURVE",
"293 150 OFFCURVE",
"266 150 CURVE SMOOTH",
"229 150 OFFCURVE",
"205 181 OFFCURVE",
"205 232 CURVE SMOOTH",
"205 318 OFFCURVE",
"260 376 OFFCURVE",
"314 376 CURVE SMOOTH",
"341 376 OFFCURVE",
"359 362 OFFCURVE",
"369 337 CURVE",
"566 393 LINE",
"561 416 OFFCURVE",
"556 466 OFFCURVE",
"556 507 CURVE SMOOTH",
"556 576 OFFCURVE",
"568 651 OFFCURVE",
"650 651 CURVE SMOOTH",
"681 651 OFFCURVE",
"694 636 OFFCURVE",
"694 599 CURVE SMOOTH",
"694 581 OFFCURVE",
"691 557 OFFCURVE",
"685 526 CURVE",
"624 526 LINE",
"593 383 LINE",
"654 383 LINE",
"603 142 LINE SMOOTH",
"599 125 OFFCURVE",
"598 110 OFFCURVE",
"598 96 CURVE SMOOTH",
"598 17 OFFCURVE",
"653 -11 OFFCURVE",
"725 -11 CURVE SMOOTH",
"780 -11 OFFCURVE",
"846 6 OFFCURVE",
"904 29 CURVE",
"904 179 LINE",
"878 169 OFFCURVE",
"851 162 OFFCURVE",
"835 162 CURVE SMOOTH",
"816 162 OFFCURVE",
"805 170 OFFCURVE",
"805 191 CURVE SMOOTH",
"805 196 OFFCURVE",
"805 202 OFFCURVE",
"807 209 CURVE SMOOTH",
"844 383 LINE",
"941 383 LINE",
"971 526 LINE",
"875 526 LINE",
"881 554 OFFCURVE",
"887 585 OFFCURVE",
"887 613 CURVE SMOOTH",
"887 676 OFFCURVE",
"857 730 OFFCURVE",
"725 730 CURVE SMOOTH",
"569 730 OFFCURVE",
"483 660 OFFCURVE",
"483 530 CURVE SMOOTH",
"483 523 OFFCURVE",
"483 506 OFFCURVE",
"484 499 CURVE",
"446 523 OFFCURVE",
"416 536 OFFCURVE",
"356 536 CURVE SMOOTH",
"135 536 OFFCURVE",
"7 372 OFFCURVE",
"7 211 CURVE SMOOTH",
"7 91 OFFCURVE",
"81 -10 OFFCURVE",
"233 -10 CURVE SMOOTH"
);
}
);
width = 968;
}
);
leftKerningGroup = o;
rightKerningGroup = t;
},
{
glyphname = cent;
lastChange = "2016-08-18 22:46:43 +0000";
layers = (
{
background = {
paths = (
{
closed = 1;
nodes = (
"258 -120 LINE",
"282 -10 LINE",
"343 -10 OFFCURVE",
"465 37 OFFCURVE",
"529 133 CURVE",
"356 189 LINE",
"346 176 OFFCURVE",
"336 164 OFFCURVE",
"317 155 CURVE",
"363 370 LINE",
"372 367 OFFCURVE",
"385 353 OFFCURVE",
"388 337 CURVE",
"585 393 LINE",
"557 486 OFFCURVE",
"480 531 OFFCURVE",
"397 534 CURVE",
"421 645 LINE",
"342 645 LINE",
"318 534 LINE",
"127 499 OFFCURVE",
"25 356 OFFCURVE",
"25 213 CURVE SMOOTH",
"25 104 OFFCURVE",
"91 0 OFFCURVE",
"203 -9 CURVE",
"179 -120 LINE"
);
},
{
closed = 1;
nodes = (
"222 279 OFFCURVE",
"249 340 OFFCURVE",
"281 361 CURVE",
"239 164 LINE",
"227 178 OFFCURVE",
"222 203 OFFCURVE",
"222 226 CURVE SMOOTH"
);
}
);
};
layerId = UUID0;
paths = (
{
closed = 1;
nodes = (
"258 -120 LINE",
"282 -10 LINE",
"343 -10 OFFCURVE",
"465 37 OFFCURVE",
"529 133 CURVE",
"356 189 LINE",
"346 176 OFFCURVE",
"336 164 OFFCURVE",
"317 155 CURVE",
"363 370 LINE",
"372 367 OFFCURVE",
"385 353 OFFCURVE",
"388 337 CURVE",
"585 393 LINE",
"557 486 OFFCURVE",
"480 531 OFFCURVE",
"397 534 CURVE",
"421 645 LINE",
"342 645 LINE",
"318 534 LINE",
"127 499 OFFCURVE",
"25 356 OFFCURVE",
"25 213 CURVE SMOOTH",
"25 104 OFFCURVE",
"91 0 OFFCURVE",
"203 -9 CURVE",
"179 -120 LINE"
);
},
{
closed = 1;
nodes = (
"222 226 LINE SMOOTH",
"222 279 OFFCURVE",
"249 340 OFFCURVE",
"281 361 CURVE",
"239 164 LINE",
"227 178 OFFCURVE",
"222 203 OFFCURVE",
"222 226 CURVE SMOOTH"
);
}
);
width = 599;
}
);
unicode = 00A2;
},
{
glyphname = colon;
lastChange = "2016-08-18 22:46:43 +0000";
layers = (
{
background = {
paths = (
{
closed = 1;
nodes = (
"234 335 LINE",
"273 519 LINE",
"119 519 LINE",
"80 335 LINE"
);
},
{
closed = 1;
nodes = (
"163 0 LINE",
"202 184 LINE",
"48 184 LINE",
"9 0 LINE"
);
}
);
};
layerId = UUID0;
paths = (
{
closed = 1;
nodes = (
"234 335 LINE",
"273 519 LINE",
"119 519 LINE",
"80 335 LINE"
);
},
{
closed = 1;
nodes = (
"163 0 LINE",
"202 184 LINE",
"48 184 LINE",
"9 0 LINE"
);
}
);
width = 299;
}
);
leftKerningGroup = colon;
rightKerningGroup = colon;
unicode = 003A;
},
{
glyphname = comma;
lastChange = "2016-08-18 22:46:43 +0000";
layers = (
{
background = {
paths = (
{
closed = 1;
nodes = (
"56 -157 LINE",
"142 0 LINE",
"182 184 LINE",
"26 184 LINE",
"-14 0 LINE",
"43 0 LINE",
"-26 -157 LINE"
);
}
);
};
layerId = UUID0;
paths = (
{
closed = 1;
nodes = (
"56 -157 LINE",
"142 0 LINE",
"182 184 LINE",
"26 184 LINE",
"-14 0 LINE",
"43 0 LINE",
"-26 -157 LINE"
);
}
);
width = 256;
}
);
leftKerningGroup = period;
rightKerningGroup = period;
unicode = 002C;
},
{
glyphname = copyright;
lastChange = "2016-08-18 22:46:43 +0000";
layers = (
{
background = {
paths = (
{
closed = 1;
nodes = (
"663 -7 OFFCURVE",
"829 148 OFFCURVE",
"829 355 CURVE SMOOTH",
"829 561 OFFCURVE",
"663 715 OFFCURVE",
"438 715 CURVE SMOOTH",
"219 715 OFFCURVE",
"57 561 OFFCURVE",
"57 355 CURVE SMOOTH",
"57 148 OFFCURVE",
"219 -7 OFFCURVE",
"438 -7 CURVE SMOOTH"
);
},
{
closed = 1;
nodes = (
"260 57 OFFCURVE",
"127 189 OFFCURVE",
"127 355 CURVE SMOOTH",
"127 519 OFFCURVE",
"261 651 OFFCURVE",
"438 651 CURVE SMOOTH",
"622 651 OFFCURVE",
"759 519 OFFCURVE",
"759 355 CURVE SMOOTH",
"759 179 OFFCURVE",
"618 57 OFFCURVE",
"438 57 CURVE SMOOTH"
);
},
{
closed = 1;
nodes = (
"570 111 OFFCURVE",
"654 170 OFFCURVE",
"695 254 CURVE",
"510 310 LINE",
"495 285 OFFCURVE",
"474 271 OFFCURVE",
"447 271 CURVE SMOOTH",
"407 271 OFFCURVE",
"374 301 OFFCURVE",
"374 354 CURVE SMOOTH",
"374 407 OFFCURVE",
"407 437 OFFCURVE",
"447 437 CURVE SMOOTH",
"474 437 OFFCURVE",
"495 423 OFFCURVE",
"510 398 CURVE",
"695 454 LINE",
"654 538 OFFCURVE",
"570 597 OFFCURVE",
"448 597 CURVE SMOOTH",
"274 597 OFFCURVE",
"179 483 OFFCURVE",
"179 354 CURVE SMOOTH",
"179 225 OFFCURVE",
"274 111 OFFCURVE",
"448 111 CURVE SMOOTH"
);
}
);
};
layerId = UUID0;
paths = (
{
closed = 1;
nodes = (
"438 -7 LINE SMOOTH",
"663 -7 OFFCURVE",
"829 148 OFFCURVE",
"829 355 CURVE SMOOTH",
"829 561 OFFCURVE",
"663 715 OFFCURVE",
"438 715 CURVE SMOOTH",
"219 715 OFFCURVE",
"57 561 OFFCURVE",
"57 355 CURVE SMOOTH",
"57 148 OFFCURVE",
"219 -7 OFFCURVE",
"438 -7 CURVE SMOOTH"
);
},
{
closed = 1;
nodes = (
"438 57 LINE SMOOTH",
"260 57 OFFCURVE",
"127 189 OFFCURVE",
"127 355 CURVE SMOOTH",
"127 519 OFFCURVE",
"261 651 OFFCURVE",
"438 651 CURVE SMOOTH",
"622 651 OFFCURVE",
"759 519 OFFCURVE",
"759 355 CURVE SMOOTH",
"759 179 OFFCURVE",
"618 57 OFFCURVE",
"438 57 CURVE SMOOTH"
);
},
{
closed = 1;
nodes = (
"448 111 LINE SMOOTH",
"570 111 OFFCURVE",
"654 170 OFFCURVE",
"695 254 CURVE",
"510 310 LINE",
"495 285 OFFCURVE",
"474 271 OFFCURVE",
"447 271 CURVE SMOOTH",
"407 271 OFFCURVE",
"374 301 OFFCURVE",
"374 354 CURVE SMOOTH",
"374 407 OFFCURVE",
"407 437 OFFCURVE",
"447 437 CURVE SMOOTH",
"474 437 OFFCURVE",
"495 423 OFFCURVE",
"510 398 CURVE",
"695 454 LINE",
"654 538 OFFCURVE",
"570 597 OFFCURVE",
"448 597 CURVE SMOOTH",
"274 597 OFFCURVE",
"179 483 OFFCURVE",
"179 354 CURVE SMOOTH",
"179 225 OFFCURVE",
"274 111 OFFCURVE",
"448 111 CURVE SMOOTH"
);
}
);
width = 862;
}
);
unicode = 00A9;
},
{
glyphname = d;
lastChange = "2016-08-18 22:46:43 +0000";
layers = (
{
anchors = (
{
name = top;
position = "{558, 522}";
}
);
background = {
paths = (
{
closed = 1;
nodes = (
"258 -10 OFFCURVE",
"325 18 OFFCURVE",
"373 82 CURVE",
"372 75 OFFCURVE",
"371 68 OFFCURVE",
"371 62 CURVE SMOOTH",
"371 9 OFFCURVE",
"412 -10 OFFCURVE",
"469 -10 CURVE SMOOTH",
"488 -10 OFFCURVE",
"515 -7 OFFCURVE",
"550 0 CURVE",
"584 160 LINE",
"565 161 OFFCURVE",
"557 168 OFFCURVE",
"557 186 CURVE SMOOTH",
"557 192 OFFCURVE",
"558 200 OFFCURVE",
"560 210 CURVE SMOOTH",
"671 730 LINE",
"480 730 LINE",
"420 448 LINE",
"404 503 OFFCURVE",
"354 536 OFFCURVE",
"291 536 CURVE SMOOTH",
"139 536 OFFCURVE",
"7 383 OFFCURVE",
"7 202 CURVE SMOOTH",
"7 77 OFFCURVE",
"77 -10 OFFCURVE",
"193 -10 CURVE SMOOTH"
);
},
{
closed = 1;
nodes = (
"233 150 OFFCURVE",
"207 183 OFFCURVE",
"207 233 CURVE SMOOTH",
"207 308 OFFCURVE",
"263 376 OFFCURVE",
"319 376 CURVE SMOOTH",
"355 376 OFFCURVE",
"383 344 OFFCURVE",
"390 298 CURVE",
"370 204 LINE",
"337 168 OFFCURVE",
"311 150 OFFCURVE",
"279 150 CURVE SMOOTH"
);
}
);
};
layerId = UUID0;
paths = (
{
closed = 1;
nodes = (
"193 -10 LINE SMOOTH",
"258 -10 OFFCURVE",
"325 18 OFFCURVE",
"373 82 CURVE",
"372 75 OFFCURVE",
"371 68 OFFCURVE",
"371 62 CURVE SMOOTH",
"371 9 OFFCURVE",
"412 -10 OFFCURVE",
"469 -10 CURVE SMOOTH",
"488 -10 OFFCURVE",
"515 -7 OFFCURVE",
"550 0 CURVE",
"584 160 LINE",
"565 161 OFFCURVE",
"557 168 OFFCURVE",
"557 186 CURVE SMOOTH",
"557 192 OFFCURVE",
"558 200 OFFCURVE",
"560 210 CURVE SMOOTH",
"671 730 LINE",
"480 730 LINE",
"420 448 LINE",
"404 503 OFFCURVE",
"354 536 OFFCURVE",
"291 536 CURVE SMOOTH",
"139 536 OFFCURVE",
"7 383 OFFCURVE",
"7 202 CURVE SMOOTH",
"7 77 OFFCURVE",
"77 -10 OFFCURVE",
"193 -10 CURVE SMOOTH"
);
},
{
closed = 1;
nodes = (
"279 150 LINE SMOOTH",
"233 150 OFFCURVE",
"207 183 OFFCURVE",
"207 233 CURVE SMOOTH",
"207 308 OFFCURVE",
"263 376 OFFCURVE",
"319 376 CURVE SMOOTH",
"355 376 OFFCURVE",
"383 344 OFFCURVE",
"390 298 CURVE",
"370 204 LINE",
"337 168 OFFCURVE",
"311 150 OFFCURVE",
"279 150 CURVE SMOOTH"
);
}
);
width = 645;
}
);
leftKerningGroup = a;
rightKerningGroup = d;
unicode = 0064;
},
{
glyphname = d.alt;
lastChange = "2016-08-18 22:46:43 +0000";
layers = (
{
background = {
paths = (
{
closed = 1;
nodes = (
"258 -10 OFFCURVE",
"302 16 OFFCURVE",
"341 69 CURVE",
"326 0 LINE",
"515 0 LINE",
"670 730 LINE",
"480 730 LINE",
"420 448 LINE",
"405 503 OFFCURVE",
"355 536 OFFCURVE",
"290 536 CURVE SMOOTH",
"141 536 OFFCURVE",
"7 383 OFFCURVE",
"7 202 CURVE SMOOTH",
"7 77 OFFCURVE",
"77 -10 OFFCURVE",
"193 -10 CURVE SMOOTH"
);
},
{
closed = 1;
nodes = (
"234 150 OFFCURVE",
"207 183 OFFCURVE",
"207 234 CURVE SMOOTH",
"207 307 OFFCURVE",
"263 376 OFFCURVE",
"318 376 CURVE SMOOTH",
"354 376 OFFCURVE",
"382 346 OFFCURVE",
"390 298 CURVE",
"370 204 LINE",
"337 168 OFFCURVE",
"312 150 OFFCURVE",
"278 150 CURVE SMOOTH"
);
}
);
};
layerId = UUID0;
paths = (
{
closed = 1;
nodes = (
"193 -10 LINE SMOOTH",
"258 -10 OFFCURVE",
"302 16 OFFCURVE",
"341 69 CURVE",
"326 0 LINE",
"515 0 LINE",
"670 730 LINE",
"480 730 LINE",
"420 448 LINE",
"405 503 OFFCURVE",
"355 536 OFFCURVE",
"290 536 CURVE SMOOTH",
"141 536 OFFCURVE",
"7 383 OFFCURVE",
"7 202 CURVE SMOOTH",
"7 77 OFFCURVE",
"77 -10 OFFCURVE",
"193 -10 CURVE SMOOTH"
);
},
{
closed = 1;
nodes = (
"278 150 LINE SMOOTH",
"234 150 OFFCURVE",
"207 183 OFFCURVE",
"207 234 CURVE SMOOTH",
"207 307 OFFCURVE",
"263 376 OFFCURVE",
"318 376 CURVE SMOOTH",
"354 376 OFFCURVE",
"382 346 OFFCURVE",
"390 298 CURVE",
"370 204 LINE",
"337 168 OFFCURVE",
"312 150 OFFCURVE",
"278 150 CURVE SMOOTH"
);
}
);
width = 627;
}
);
leftKerningGroup = a;
},
{
glyphname = dagger;
lastChange = "2016-08-18 22:46:43 +0000";
layers = (
{
background = {
paths = (
{
closed = 1;
nodes = (
"247 -130 LINE",
"314 186 LINE",
"439 186 LINE",
"475 356 LINE",
"350 356 LINE",
"440 775 LINE",
"260 775 LINE",
"171 356 LINE",
"45 356 LINE",
"9 186 LINE",
"134 186 LINE",
"67 -130 LINE"
);
}
);
};
layerId = UUID0;
paths = (
{
closed = 1;
nodes = (
"247 -130 LINE",
"314 186 LINE",
"439 186 LINE",
"475 356 LINE",
"350 356 LINE",
"440 775 LINE",
"260 775 LINE",
"171 356 LINE",
"45 356 LINE",
"9 186 LINE",
"134 186 LINE",
"67 -130 LINE"
);
}
);
width = 496;
}
);
unicode = 2020;
},
{
glyphname = daggerdbl;
lastChange = "2016-08-18 22:46:43 +0000";
layers = (
{
background = {
paths = (
{
closed = 1;
nodes = (
"261 -130 LINE",
"300 53 LINE",
"425 53 LINE",
"461 223 LINE",
"336 223 LINE",
"360 336 LINE",
"485 336 LINE",
"521 506 LINE",
"397 506 LINE",
"454 775 LINE",
"274 775 LINE",
"217 506 LINE",
"91 506 LINE",
"55 336 LINE",
"181 336 LINE",
"157 223 LINE",
"31 223 LINE",
"-5 53 LINE",
"120 53 LINE",
"82 -130 LINE"
);
}
);
};
layerId = UUID0;
paths = (
{
closed = 1;
nodes = (
"261 -130 LINE",
"300 53 LINE",
"425 53 LINE",
"461 223 LINE",
"336 223 LINE",
"360 336 LINE",
"485 336 LINE",
"521 506 LINE",
"397 506 LINE",
"454 775 LINE",
"274 775 LINE",
"217 506 LINE",
"91 506 LINE",
"55 336 LINE",
"181 336 LINE",
"157 223 LINE",
"31 223 LINE",
"-5 53 LINE",
"120 53 LINE",
"82 -130 LINE"
);
}
);
width = 523;
}
);
unicode = 2021;
},
{
glyphname = dcroat;
lastChange = "2016-08-18 22:46:43 +0000";
layers = (
{
background = {
paths = (
{
closed = 1;
nodes = (
"378 579 LINE",
"702 579 LINE",
"726 688 LINE",
"401 688 LINE"
);
},
{
closed = 1;
nodes = (
"258 -10 OFFCURVE",
"325 18 OFFCURVE",
"373 82 CURVE",
"373 63 LINE SMOOTH",
"373 14 OFFCURVE",
"405 -10 OFFCURVE",
"469 -10 CURVE SMOOTH",
"488 -10 OFFCURVE",
"515 -7 OFFCURVE",
"550 0 CURVE",
"584 160 LINE",
"565 161 OFFCURVE",
"557 168 OFFCURVE",
"557 186 CURVE SMOOTH",
"557 192 OFFCURVE",
"558 200 OFFCURVE",
"560 210 CURVE SMOOTH",
"671 730 LINE",
"480 730 LINE",
"420 448 LINE",
"404 503 OFFCURVE",
"354 536 OFFCURVE",
"291 536 CURVE SMOOTH",
"139 536 OFFCURVE",
"7 383 OFFCURVE",
"7 202 CURVE SMOOTH",
"7 77 OFFCURVE",
"77 -10 OFFCURVE",
"193 -10 CURVE SMOOTH"
);
},
{
closed = 1;
nodes = (
"233 150 OFFCURVE",
"207 183 OFFCURVE",
"207 233 CURVE SMOOTH",
"207 308 OFFCURVE",
"263 376 OFFCURVE",
"319 376 CURVE SMOOTH",
"355 376 OFFCURVE",
"383 344 OFFCURVE",
"390 298 CURVE",
"370 204 LINE",
"337 168 OFFCURVE",
"311 150 OFFCURVE",
"279 150 CURVE SMOOTH"
);
}
);
};
layerId = UUID0;
paths = (
{
closed = 1;
nodes = (
"378 579 LINE",
"702 579 LINE",
"726 688 LINE",
"401 688 LINE"
);
},
{
closed = 1;
nodes = (
"193 -10 LINE SMOOTH",
"258 -10 OFFCURVE",
"325 18 OFFCURVE",
"373 82 CURVE",
"373 63 LINE SMOOTH",
"373 14 OFFCURVE",
"405 -10 OFFCURVE",
"469 -10 CURVE SMOOTH",
"488 -10 OFFCURVE",
"515 -7 OFFCURVE",
"550 0 CURVE",
"584 160 LINE",
"565 161 OFFCURVE",
"557 168 OFFCURVE",
"557 186 CURVE SMOOTH",
"557 192 OFFCURVE",
"558 200 OFFCURVE",
"560 210 CURVE SMOOTH",
"671 730 LINE",
"480 730 LINE",
"420 448 LINE",
"404 503 OFFCURVE",
"354 536 OFFCURVE",
"291 536 CURVE SMOOTH",
"139 536 OFFCURVE",
"7 383 OFFCURVE",
"7 202 CURVE SMOOTH",
"7 77 OFFCURVE",
"77 -10 OFFCURVE",
"193 -10 CURVE SMOOTH"
);
},
{
closed = 1;
nodes = (
"279 150 LINE SMOOTH",
"233 150 OFFCURVE",
"207 183 OFFCURVE",
"207 233 CURVE SMOOTH",
"207 308 OFFCURVE",
"263 376 OFFCURVE",
"319 376 CURVE SMOOTH",
"355 376 OFFCURVE",
"383 344 OFFCURVE",
"390 298 CURVE",
"370 204 LINE",
"337 168 OFFCURVE",
"311 150 OFFCURVE",
"279 150 CURVE SMOOTH"
);
}
);
width = 645;
}
);
leftKerningGroup = a;
rightKerningGroup = d;
unicode = 0111;
},
{
glyphname = degree;
lastChange = "2016-08-18 22:46:43 +0000";
layers = (
{
background = {
paths = (
{
closed = 1;
nodes = (
"265 486 OFFCURVE",
"329 548 OFFCURVE",
"329 631 CURVE SMOOTH",
"329 685 OFFCURVE",
"293 724 OFFCURVE",
"235 724 CURVE SMOOTH",
"152 724 OFFCURVE",
"91 652 OFFCURVE",
"91 577 CURVE SMOOTH",
"91 522 OFFCURVE",
"126 486 OFFCURVE",
"184 486 CURVE SMOOTH"
);
},
{
closed = 1;
nodes = (
"187 573 OFFCURVE",
"179 586 OFFCURVE",
"179 600 CURVE SMOOTH",
"179 619 OFFCURVE",
"198 636 OFFCURVE",
"216 636 CURVE SMOOTH",
"227 636 OFFCURVE",
"239 630 OFFCURVE",
"239 612 CURVE SMOOTH",
"239 592 OFFCURVE",
"220 573 OFFCURVE",
"203 573 CURVE SMOOTH"
);
}
);
};
layerId = UUID0;
paths = (
{
closed = 1;
nodes = (
"184 486 LINE SMOOTH",
"265 486 OFFCURVE",
"329 548 OFFCURVE",
"329 631 CURVE SMOOTH",
"329 685 OFFCURVE",
"293 724 OFFCURVE",
"235 724 CURVE SMOOTH",
"152 724 OFFCURVE",
"91 652 OFFCURVE",
"91 577 CURVE SMOOTH",
"91 522 OFFCURVE",
"126 486 OFFCURVE",
"184 486 CURVE SMOOTH"
);
},
{
closed = 1;
nodes = (
"203 573 LINE SMOOTH",
"187 573 OFFCURVE",
"179 586 OFFCURVE",
"179 600 CURVE SMOOTH",
"179 619 OFFCURVE",
"198 636 OFFCURVE",
"216 636 CURVE SMOOTH",
"227 636 OFFCURVE",
"239 630 OFFCURVE",
"239 612 CURVE SMOOTH",
"239 592 OFFCURVE",
"220 573 OFFCURVE",
"203 573 CURVE SMOOTH"
);
}
);
width = 294;
}
);
unicode = 00B0;
},
{
glyphname = divide;
lastChange = "2016-08-18 22:46:43 +0000";
layers = (
{
background = {
paths = (
{
closed = 1;
nodes = (
"335 435 LINE",
"335 595 LINE",
"176 595 LINE",
"176 435 LINE"
);
},
{
closed = 1;
nodes = (
"335 27 LINE",
"335 187 LINE",
"176 187 LINE",
"176 27 LINE"
);
},
{
closed = 1;
nodes = (
"457 235 LINE",
"457 385 LINE",
"53 385 LINE",
"53 235 LINE"
);
}
);
};
layerId = UUID0;
paths = (
{
closed = 1;
nodes = (
"335 435 LINE",
"335 595 LINE",
"176 595 LINE",
"176 435 LINE"
);
},
{
closed = 1;
nodes = (
"335 27 LINE",
"335 187 LINE",
"176 187 LINE",
"176 27 LINE"
);
},
{
closed = 1;
nodes = (
"457 235 LINE",
"457 385 LINE",
"53 385 LINE",
"53 235 LINE"
);
}
);
width = 505;
}
);
unicode = 00F7;
},
{
glyphname = dollar;
lastChange = "2016-08-18 22:46:43 +0000";
layers = (
{
background = {
paths = (
{
closed = 1;
nodes = (
"187 -129 LINE",
"267 -129 LINE",
"314 95 LINE",
"235 95 LINE"
);
},
{
closed = 1;
nodes = (
"304 115 LINE",
"408 603 LINE",
"354 589 LINE",
"254 117 LINE"
);
},
{
closed = 1;
nodes = (
"344 609 LINE",
"426 623 LINE",
"467 815 LINE",
"388 815 LINE"
);
},
{
closed = 1;
nodes = (
"642 639 LINE",
"588 671 OFFCURVE",
"502 716 OFFCURVE",
"403 716 CURVE SMOOTH",
"251 716 OFFCURVE",
"93 613 OFFCURVE",
"93 434 CURVE SMOOTH",
"93 358 OFFCURVE",
"136 312 OFFCURVE",
"224 277 CURVE SMOOTH",
"290 251 OFFCURVE",
"354 240 OFFCURVE",
"354 204 CURVE SMOOTH",
"354 185 OFFCURVE",
"347 167 OFFCURVE",
"302 167 CURVE SMOOTH",
"198 167 OFFCURVE",
"100 245 OFFCURVE",
"104 245 CURVE",
"-16 74 LINE",
"55 24 OFFCURVE",
"164 -9 OFFCURVE",
"262 -9 CURVE SMOOTH",
"405 -9 OFFCURVE",
"574 60 OFFCURVE",
"574 262 CURVE SMOOTH",
"574 361 OFFCURVE",
"509 401 OFFCURVE",
"413 437 CURVE SMOOTH",
"350 460 OFFCURVE",
"307 470 OFFCURVE",
"307 501 CURVE SMOOTH",
"307 530 OFFCURVE",
"331 543 OFFCURVE",
"360 543 CURVE SMOOTH",
"441 543 OFFCURVE",
"528 478 OFFCURVE",
"524 478 CURVE"
);
}
);
};
layerId = UUID0;
paths = (
{
closed = 1;
nodes = (
"187 -129 LINE",
"267 -129 LINE",
"314 95 LINE",
"235 95 LINE"
);
},
{
closed = 1;
nodes = (
"304 115 LINE",
"408 603 LINE",
"354 589 LINE",
"254 117 LINE"
);
},
{
closed = 1;
nodes = (
"344 609 LINE",
"426 623 LINE",
"467 815 LINE",
"388 815 LINE"
);
},
{
closed = 1;
nodes = (
"642 639 LINE",
"588 671 OFFCURVE",
"502 716 OFFCURVE",
"403 716 CURVE SMOOTH",
"251 716 OFFCURVE",
"93 613 OFFCURVE",
"93 434 CURVE SMOOTH",
"93 358 OFFCURVE",
"136 312 OFFCURVE",
"224 277 CURVE SMOOTH",
"290 251 OFFCURVE",
"354 240 OFFCURVE",
"354 204 CURVE SMOOTH",
"354 185 OFFCURVE",
"347 167 OFFCURVE",
"302 167 CURVE SMOOTH",
"198 167 OFFCURVE",
"100 245 OFFCURVE",
"104 245 CURVE",
"-16 74 LINE",
"55 24 OFFCURVE",
"164 -9 OFFCURVE",
"262 -9 CURVE SMOOTH",
"405 -9 OFFCURVE",
"574 60 OFFCURVE",
"574 262 CURVE SMOOTH",
"574 361 OFFCURVE",
"509 401 OFFCURVE",
"413 437 CURVE SMOOTH",
"350 460 OFFCURVE",
"307 470 OFFCURVE",
"307 501 CURVE SMOOTH",
"307 530 OFFCURVE",
"331 543 OFFCURVE",
"360 543 CURVE SMOOTH",
"441 543 OFFCURVE",
"528 478 OFFCURVE",
"524 478 CURVE"
);
}
);
width = 630;
}
);
unicode = 0024;
},
{
glyphname = dotlessi;
lastChange = "2016-08-18 22:46:43 +0000";
layers = (
{
anchors = (
{
name = top;
position = "{191, 522}";
}
);
background = {
paths = (
{
closed = 1;
nodes = (
"-16 0 LINE",
"174 0 LINE",
"286 526 LINE",
"96 526 LINE"
);
}
);
};
layerId = UUID0;
paths = (
{
closed = 1;
nodes = (
"-16 0 LINE",
"174 0 LINE",
"286 526 LINE",
"96 526 LINE"
);
}
);
width = 286;
}
);
leftKerningGroup = i;
rightKerningGroup = i;
unicode = 0131;
},
{
glyphname = dotlessj;
lastChange = "2016-08-18 22:46:43 +0000";
layers = (
{
anchors = (
{
name = top;
position = "{53, 522}";
}
);
background = {
paths = (
{
closed = 1;
nodes = (
"48 -209 OFFCURVE",
"149 -119 OFFCURVE",
"177 12 CURVE SMOOTH",
"286 526 LINE",
"95 526 LINE",
"-17 -3 LINE SMOOTH",
"-23 -30 OFFCURVE",
"-38 -46 OFFCURVE",
"-60 -46 CURVE SMOOTH",
"-76 -46 OFFCURVE",
"-91 -38 OFFCURVE",
"-98 -26 CURVE",
"-203 -155 LINE",
"-171 -190 OFFCURVE",
"-123 -209 OFFCURVE",
"-70 -209 CURVE SMOOTH"
);
}
);
};
layerId = UUID0;
paths = (
{
closed = 1;
nodes = (
"-70 -209 LINE SMOOTH",
"48 -209 OFFCURVE",
"149 -119 OFFCURVE",
"177 12 CURVE SMOOTH",
"286 526 LINE",
"95 526 LINE",
"-17 -3 LINE SMOOTH",
"-23 -30 OFFCURVE",
"-38 -46 OFFCURVE",
"-60 -46 CURVE SMOOTH",
"-76 -46 OFFCURVE",
"-91 -38 OFFCURVE",
"-98 -26 CURVE",
"-203 -155 LINE",
"-171 -190 OFFCURVE",
"-123 -209 OFFCURVE",
"-70 -209 CURVE SMOOTH"
);
}
);
width = 286;
}
);
leftKerningGroup = i;
rightKerningGroup = i;
unicode = 0237;
},
{
glyphname = e;
lastChange = "2016-08-18 22:46:43 +0000";
layers = (
{
anchors = (
{
name = bottom;
position = "{240, 0}";
},
{
name = top;
position = "{351, 522}";
}
);
background = {
paths = (
{
closed = 1;
nodes = (
"343 -10 OFFCURVE",
"457 47 OFFCURVE",
"516 132 CURVE",
"367 180 LINE",
"345 145 OFFCURVE",
"311 126 OFFCURVE",
"269 126 CURVE SMOOTH",
"223 126 OFFCURVE",
"205 148 OFFCURVE",
"205 203 CURVE SMOOTH",
"205 312 OFFCURVE",
"257 401 OFFCURVE",
"320 401 CURVE SMOOTH",
"350 401 OFFCURVE",
"371 385 OFFCURVE",
"371 362 CURVE SMOOTH",
"371 329 OFFCURVE",
"335 318 OFFCURVE",
"233 318 CURVE SMOOTH",
"192 318 OFFCURVE",
"155 320 OFFCURVE",
"120 324 CURVE",
"96 211 LINE",
"143 206 OFFCURVE",
"191 204 OFFCURVE",
"234 204 CURVE SMOOTH",
"446 204 OFFCURVE",
"557 265 OFFCURVE",
"557 383 CURVE SMOOTH",
"557 479 OFFCURVE",
"481 536 OFFCURVE",
"354 536 CURVE SMOOTH",
"161 536 OFFCURVE",
"7 393 OFFCURVE",
"7 213 CURVE SMOOTH",
"7 78 OFFCURVE",
"96 -10 OFFCURVE",
"233 -10 CURVE SMOOTH"
);
}
);
};
layerId = UUID0;
paths = (
{
closed = 1;
nodes = (
"233 -10 LINE SMOOTH",
"343 -10 OFFCURVE",
"457 47 OFFCURVE",
"516 132 CURVE",
"367 180 LINE",
"345 145 OFFCURVE",
"311 126 OFFCURVE",
"269 126 CURVE SMOOTH",
"223 126 OFFCURVE",
"205 148 OFFCURVE",
"205 203 CURVE SMOOTH",
"205 312 OFFCURVE",
"257 401 OFFCURVE",
"320 401 CURVE SMOOTH",
"350 401 OFFCURVE",
"371 385 OFFCURVE",
"371 362 CURVE SMOOTH",
"371 329 OFFCURVE",
"335 318 OFFCURVE",
"233 318 CURVE SMOOTH",
"192 318 OFFCURVE",
"155 320 OFFCURVE",
"120 324 CURVE",
"96 211 LINE",
"143 206 OFFCURVE",
"191 204 OFFCURVE",
"234 204 CURVE SMOOTH",
"446 204 OFFCURVE",
"557 265 OFFCURVE",
"557 383 CURVE SMOOTH",
"557 479 OFFCURVE",
"481 536 OFFCURVE",
"354 536 CURVE SMOOTH",
"161 536 OFFCURVE",
"7 393 OFFCURVE",
"7 213 CURVE SMOOTH",
"7 78 OFFCURVE",
"96 -10 OFFCURVE",
"233 -10 CURVE SMOOTH"
);
}
);
width = 566;
}
);
leftKerningGroup = o;
rightKerningGroup = e;
unicode = 0065;
},
{
glyphname = eight;
lastChange = "2016-08-18 22:46:43 +0000";
layers = (
{
background = {
paths = (
{
closed = 1;
nodes = (
"389 -10 OFFCURVE",
"538 102 OFFCURVE",
"538 254 CURVE SMOOTH",
"538 311 OFFCURVE",
"513 355 OFFCURVE",
"490 379 CURVE",
"535 405 OFFCURVE",
"580 469 OFFCURVE",
"580 534 CURVE SMOOTH",
"580 649 OFFCURVE",
"475 710 OFFCURVE",
"381 710 CURVE SMOOTH",
"265 710 OFFCURVE",
"96 623 OFFCURVE",
"96 474 CURVE SMOOTH",
"96 437 OFFCURVE",
"109 397 OFFCURVE",
"132 379 CURVE",
"84 345 OFFCURVE",
"17 284 OFFCURVE",
"17 186 CURVE SMOOTH",
"17 66 OFFCURVE",
"111 -10 OFFCURVE",
"229 -10 CURVE SMOOTH"
);
},
{
closed = 1;
nodes = (
"234 163 OFFCURVE",
"215 187 OFFCURVE",
"215 218 CURVE SMOOTH",
"215 265 OFFCURVE",
"249 301 OFFCURVE",
"295 301 CURVE SMOOTH",
"327 301 OFFCURVE",
"345 282 OFFCURVE",
"345 248 CURVE SMOOTH",
"345 202 OFFCURVE",
"310 163 OFFCURVE",
"265 163 CURVE SMOOTH"
);
},
{
closed = 1;
nodes = (
"306 442 OFFCURVE",
"289 455 OFFCURVE",
"289 482 CURVE SMOOTH",
"289 515 OFFCURVE",
"314 543 OFFCURVE",
"346 543 CURVE SMOOTH",
"370 543 OFFCURVE",
"383 526 OFFCURVE",
"383 504 CURVE SMOOTH",
"383 464 OFFCURVE",
"351 442 OFFCURVE",
"324 442 CURVE SMOOTH"
);
}
);
};
layerId = UUID0;
paths = (
{
closed = 1;
nodes = (
"229 -10 LINE SMOOTH",
"389 -10 OFFCURVE",
"538 102 OFFCURVE",
"538 254 CURVE SMOOTH",
"538 311 OFFCURVE",
"513 355 OFFCURVE",
"490 379 CURVE",
"535 405 OFFCURVE",
"580 469 OFFCURVE",
"580 534 CURVE SMOOTH",
"580 649 OFFCURVE",
"475 710 OFFCURVE",
"381 710 CURVE SMOOTH",
"265 710 OFFCURVE",
"96 623 OFFCURVE",
"96 474 CURVE SMOOTH",
"96 437 OFFCURVE",
"109 397 OFFCURVE",
"132 379 CURVE",
"84 345 OFFCURVE",
"17 284 OFFCURVE",
"17 186 CURVE SMOOTH",
"17 66 OFFCURVE",
"111 -10 OFFCURVE",
"229 -10 CURVE SMOOTH"
);
},
{
closed = 1;
nodes = (
"265 163 LINE SMOOTH",
"234 163 OFFCURVE",
"215 187 OFFCURVE",
"215 218 CURVE SMOOTH",
"215 265 OFFCURVE",
"249 301 OFFCURVE",
"295 301 CURVE SMOOTH",
"327 301 OFFCURVE",
"345 282 OFFCURVE",
"345 248 CURVE SMOOTH",
"345 202 OFFCURVE",
"310 163 OFFCURVE",
"265 163 CURVE SMOOTH"
);
},
{
closed = 1;
nodes = (
"324 442 LINE SMOOTH",
"306 442 OFFCURVE",
"289 455 OFFCURVE",
"289 482 CURVE SMOOTH",
"289 515 OFFCURVE",
"314 543 OFFCURVE",
"346 543 CURVE SMOOTH",
"370 543 OFFCURVE",
"383 526 OFFCURVE",
"383 504 CURVE SMOOTH",
"383 464 OFFCURVE",
"351 442 OFFCURVE",
"324 442 CURVE SMOOTH"
);
}
);
width = 591;
}
);
unicode = 0038;
},
{
glyphname = eight.lnum;
lastChange = "2016-08-18 22:46:43 +0000";
layers = (
{
background = {
paths = (
{
closed = 1;
nodes = (
"538 311 OFFCURVE",
"513 355 OFFCURVE",
"490 379 CURVE",
"535 405 OFFCURVE",
"580 469 OFFCURVE",
"580 534 CURVE SMOOTH",
"580 649 OFFCURVE",
"475 710 OFFCURVE",
"381 710 CURVE SMOOTH",
"265 710 OFFCURVE",
"96 623 OFFCURVE",
"96 474 CURVE SMOOTH",
"96 437 OFFCURVE",
"109 397 OFFCURVE",
"132 379 CURVE",
"84 345 OFFCURVE",
"17 284 OFFCURVE",
"17 186 CURVE SMOOTH",
"17 66 OFFCURVE",
"111 -10 OFFCURVE",
"229 -10 CURVE SMOOTH",
"389 -10 OFFCURVE",
"538 102 OFFCURVE",
"538 254 CURVE SMOOTH"
);
},
{
closed = 1;
nodes = (
"345 202 OFFCURVE",
"310 163 OFFCURVE",
"265 163 CURVE SMOOTH",
"234 163 OFFCURVE",
"215 187 OFFCURVE",
"215 218 CURVE SMOOTH",
"215 265 OFFCURVE",
"249 301 OFFCURVE",
"295 301 CURVE SMOOTH",
"327 301 OFFCURVE",
"345 282 OFFCURVE",
"345 248 CURVE SMOOTH"
);
},
{
closed = 1;
nodes = (
"289 515 OFFCURVE",
"314 543 OFFCURVE",
"346 543 CURVE SMOOTH",
"370 543 OFFCURVE",
"383 526 OFFCURVE",
"383 504 CURVE SMOOTH",
"383 464 OFFCURVE",
"351 442 OFFCURVE",
"324 442 CURVE SMOOTH",
"306 442 OFFCURVE",
"289 455 OFFCURVE",
"289 482 CURVE SMOOTH"
);
}
);
};
layerId = UUID0;
paths = (
{
closed = 1;
nodes = (
"538 254 LINE SMOOTH",
"538 311 OFFCURVE",
"513 355 OFFCURVE",
"490 379 CURVE",
"535 405 OFFCURVE",
"580 469 OFFCURVE",
"580 534 CURVE SMOOTH",
"580 649 OFFCURVE",
"475 710 OFFCURVE",
"381 710 CURVE SMOOTH",
"265 710 OFFCURVE",
"96 623 OFFCURVE",
"96 474 CURVE SMOOTH",
"96 437 OFFCURVE",
"109 397 OFFCURVE",
"132 379 CURVE",
"84 345 OFFCURVE",
"17 284 OFFCURVE",
"17 186 CURVE SMOOTH",
"17 66 OFFCURVE",
"111 -10 OFFCURVE",
"229 -10 CURVE SMOOTH",
"389 -10 OFFCURVE",
"538 102 OFFCURVE",
"538 254 CURVE SMOOTH"
);
},
{
closed = 1;
nodes = (
"345 248 LINE SMOOTH",
"345 202 OFFCURVE",
"310 163 OFFCURVE",
"265 163 CURVE SMOOTH",
"234 163 OFFCURVE",
"215 187 OFFCURVE",
"215 218 CURVE SMOOTH",
"215 265 OFFCURVE",
"249 301 OFFCURVE",
"295 301 CURVE SMOOTH",
"327 301 OFFCURVE",
"345 282 OFFCURVE",
"345 248 CURVE SMOOTH"
);
},
{
closed = 1;
nodes = (
"289 482 LINE SMOOTH",
"289 515 OFFCURVE",
"314 543 OFFCURVE",
"346 543 CURVE SMOOTH",
"370 543 OFFCURVE",
"383 526 OFFCURVE",
"383 504 CURVE SMOOTH",
"383 464 OFFCURVE",
"351 442 OFFCURVE",
"324 442 CURVE SMOOTH",
"306 442 OFFCURVE",
"289 455 OFFCURVE",
"289 482 CURVE SMOOTH"
);
}
);
width = 591;
}
);
},
{
glyphname = eightinferior;
lastChange = "2016-08-18 22:46:43 +0000";
layers = (
{
background = {
paths = (
{
closed = 1;
nodes = (
"346 99 OFFCURVE",
"324 126 OFFCURVE",
"292 145 CURVE",
"335 164 OFFCURVE",
"370 195 OFFCURVE",
"370 241 CURVE SMOOTH",
"370 305 OFFCURVE",
"296 350 OFFCURVE",
"223 350 CURVE SMOOTH",
"136 350 OFFCURVE",
"26 291 OFFCURVE",
"26 211 CURVE SMOOTH",
"26 178 OFFCURVE",
"45 157 OFFCURVE",
"69 145 CURVE",
"15 119 OFFCURVE",
"-29 90 OFFCURVE",
"-29 26 CURVE SMOOTH",
"-29 -45 OFFCURVE",
"39 -96 OFFCURVE",
"130 -96 CURVE SMOOTH",
"240 -96 OFFCURVE",
"346 -27 OFFCURVE",
"346 61 CURVE SMOOTH"
);
},
{
closed = 1;
nodes = (
"237 33 OFFCURVE",
"195 13 OFFCURVE",
"153 13 CURVE SMOOTH",
"117 13 OFFCURVE",
"85 28 OFFCURVE",
"85 51 CURVE SMOOTH",
"85 77 OFFCURVE",
"124 96 OFFCURVE",
"169 96 CURVE SMOOTH",
"206 96 OFFCURVE",
"237 82 OFFCURVE",
"237 59 CURVE SMOOTH"
);
},
{
closed = 1;
nodes = (
"133 232 OFFCURVE",
"166 245 OFFCURVE",
"201 245 CURVE SMOOTH",
"232 245 OFFCURVE",
"257 234 OFFCURVE",
"257 218 CURVE SMOOTH",
"257 197 OFFCURVE",
"219 185 OFFCURVE",
"188 185 CURVE SMOOTH",
"161 185 OFFCURVE",
"133 195 OFFCURVE",
"133 212 CURVE SMOOTH"
);
}
);
};
layerId = UUID0;
paths = (
{
closed = 1;
nodes = (
"346 61 LINE SMOOTH",
"346 99 OFFCURVE",
"324 126 OFFCURVE",
"292 145 CURVE",
"335 164 OFFCURVE",
"370 195 OFFCURVE",
"370 241 CURVE SMOOTH",
"370 305 OFFCURVE",
"296 350 OFFCURVE",
"223 350 CURVE SMOOTH",
"136 350 OFFCURVE",
"26 291 OFFCURVE",
"26 211 CURVE SMOOTH",
"26 178 OFFCURVE",
"45 157 OFFCURVE",
"69 145 CURVE",
"15 119 OFFCURVE",
"-29 90 OFFCURVE",
"-29 26 CURVE SMOOTH",
"-29 -45 OFFCURVE",
"39 -96 OFFCURVE",
"130 -96 CURVE SMOOTH",
"240 -96 OFFCURVE",
"346 -27 OFFCURVE",
"346 61 CURVE SMOOTH"
);
},
{
closed = 1;
nodes = (
"237 59 LINE SMOOTH",
"237 33 OFFCURVE",
"195 13 OFFCURVE",
"153 13 CURVE SMOOTH",
"117 13 OFFCURVE",
"85 28 OFFCURVE",
"85 51 CURVE SMOOTH",
"85 77 OFFCURVE",
"124 96 OFFCURVE",
"169 96 CURVE SMOOTH",
"206 96 OFFCURVE",
"237 82 OFFCURVE",
"237 59 CURVE SMOOTH"
);
},
{
closed = 1;
nodes = (
"133 212 LINE SMOOTH",
"133 232 OFFCURVE",
"166 245 OFFCURVE",
"201 245 CURVE SMOOTH",
"232 245 OFFCURVE",
"257 234 OFFCURVE",
"257 218 CURVE SMOOTH",
"257 197 OFFCURVE",
"219 185 OFFCURVE",
"188 185 CURVE SMOOTH",
"161 185 OFFCURVE",
"133 195 OFFCURVE",
"133 212 CURVE SMOOTH"
);
}
);
width = 426;
}
);
unicode = 2088;
},
{
glyphname = eightsuperior;
lastChange = "2016-08-18 22:46:43 +0000";
layers = (
{
background = {
paths = (
{
closed = 1;
nodes = (
"445 569 OFFCURVE",
"423 596 OFFCURVE",
"391 615 CURVE",
"434 634 OFFCURVE",
"469 665 OFFCURVE",
"469 711 CURVE SMOOTH",
"469 775 OFFCURVE",
"395 820 OFFCURVE",
"322 820 CURVE SMOOTH",
"235 820 OFFCURVE",
"125 761 OFFCURVE",
"125 681 CURVE SMOOTH",
"125 648 OFFCURVE",
"144 627 OFFCURVE",
"168 615 CURVE",
"114 589 OFFCURVE",
"70 560 OFFCURVE",
"70 496 CURVE SMOOTH",
"70 425 OFFCURVE",
"138 374 OFFCURVE",
"229 374 CURVE SMOOTH",
"339 374 OFFCURVE",
"445 443 OFFCURVE",
"445 531 CURVE SMOOTH"
);
},
{
closed = 1;
nodes = (
"336 503 OFFCURVE",
"294 483 OFFCURVE",
"252 483 CURVE SMOOTH",
"216 483 OFFCURVE",
"184 498 OFFCURVE",
"184 521 CURVE SMOOTH",
"184 547 OFFCURVE",
"223 566 OFFCURVE",
"268 566 CURVE SMOOTH",
"305 566 OFFCURVE",
"336 552 OFFCURVE",
"336 529 CURVE SMOOTH"
);
},
{
closed = 1;
nodes = (
"232 702 OFFCURVE",
"265 715 OFFCURVE",
"300 715 CURVE SMOOTH",
"331 715 OFFCURVE",
"356 704 OFFCURVE",
"356 688 CURVE SMOOTH",
"356 667 OFFCURVE",
"318 655 OFFCURVE",
"287 655 CURVE SMOOTH",
"260 655 OFFCURVE",
"232 665 OFFCURVE",
"232 682 CURVE SMOOTH"
);
}
);
};
layerId = UUID0;
paths = (
{
closed = 1;
nodes = (
"445 531 LINE SMOOTH",
"445 569 OFFCURVE",
"423 596 OFFCURVE",
"391 615 CURVE",
"434 634 OFFCURVE",
"469 665 OFFCURVE",
"469 711 CURVE SMOOTH",
"469 775 OFFCURVE",
"395 820 OFFCURVE",
"322 820 CURVE SMOOTH",
"235 820 OFFCURVE",
"125 761 OFFCURVE",
"125 681 CURVE SMOOTH",
"125 648 OFFCURVE",
"144 627 OFFCURVE",
"168 615 CURVE",
"114 589 OFFCURVE",
"70 560 OFFCURVE",
"70 496 CURVE SMOOTH",
"70 425 OFFCURVE",
"138 374 OFFCURVE",
"229 374 CURVE SMOOTH",
"339 374 OFFCURVE",
"445 443 OFFCURVE",
"445 531 CURVE SMOOTH"
);
},
{
closed = 1;
nodes = (
"336 529 LINE SMOOTH",
"336 503 OFFCURVE",
"294 483 OFFCURVE",
"252 483 CURVE SMOOTH",
"216 483 OFFCURVE",
"184 498 OFFCURVE",
"184 521 CURVE SMOOTH",
"184 547 OFFCURVE",
"223 566 OFFCURVE",
"268 566 CURVE SMOOTH",
"305 566 OFFCURVE",
"336 552 OFFCURVE",
"336 529 CURVE SMOOTH"
);
},
{
closed = 1;
nodes = (
"232 682 LINE SMOOTH",
"232 702 OFFCURVE",
"265 715 OFFCURVE",
"300 715 CURVE SMOOTH",
"331 715 OFFCURVE",
"356 704 OFFCURVE",
"356 688 CURVE SMOOTH",
"356 667 OFFCURVE",
"318 655 OFFCURVE",
"287 655 CURVE SMOOTH",
"260 655 OFFCURVE",
"232 665 OFFCURVE",
"232 682 CURVE SMOOTH"
);
}
);
width = 425;
}
);
unicode = 2078;
},
{
glyphname = ellipsis;
lastChange = "2016-08-18 22:46:43 +0000";
layers = (
{
background = {
paths = (
{
closed = 1;
nodes = (
"141 0 LINE",
"180 184 LINE",
"26 184 LINE",
"-13 0 LINE"
);
},
{
closed = 1;
nodes = (
"371 0 LINE",
"410 184 LINE",
"256 184 LINE",
"217 0 LINE"
);
},
{
closed = 1;
nodes = (
"601 0 LINE",
"640 184 LINE",
"486 184 LINE",
"447 0 LINE"
);
}
);
};
layerId = UUID0;
paths = (
{
closed = 1;
nodes = (
"141 0 LINE",
"180 184 LINE",
"26 184 LINE",
"-13 0 LINE"
);
},
{
closed = 1;
nodes = (
"371 0 LINE",
"410 184 LINE",
"256 184 LINE",
"217 0 LINE"
);
},
{
closed = 1;
nodes = (
"601 0 LINE",
"640 184 LINE",
"486 184 LINE",
"447 0 LINE"
);
}
);
width = 714;
}
);
leftKerningGroup = period;
unicode = 2026;
},
{
glyphname = emdash;
lastChange = "2016-08-18 22:46:43 +0000";
layers = (
{
background = {
paths = (
{
closed = 1;
nodes = (
"838 191 LINE",
"874 361 LINE",
"62 361 LINE",
"26 191 LINE"
);
}
);
};
layerId = UUID0;
paths = (
{
closed = 1;
nodes = (
"838 191 LINE",
"874 361 LINE",
"62 361 LINE",
"26 191 LINE"
);
}
);
width = 911;
}
);
leftKerningGroup = hyphen;
rightKerningGroup = hyphen;
unicode = 2014;
},
{
glyphname = endash;
lastChange = "2016-08-18 22:46:43 +0000";
layers = (
{
background = {
paths = (
{
closed = 1;
nodes = (
"536 191 LINE",
"572 361 LINE",
"62 361 LINE",
"26 191 LINE"
);
}
);
};
layerId = UUID0;
paths = (
{
closed = 1;
nodes = (
"536 191 LINE",
"572 361 LINE",
"62 361 LINE",
"26 191 LINE"
);
}
);
width = 609;
}
);
leftKerningGroup = hyphen;
rightKerningGroup = hyphen;
unicode = 2013;
},
{
glyphname = eng;
lastChange = "2016-08-18 22:46:43 +0000";
layers = (
{
background = {
paths = (
{
closed = 1;
nodes = (
"365 -209 OFFCURVE",
"467 -119 OFFCURVE",
"495 12 CURVE SMOOTH",
"566 346 LINE SMOOTH",
"571 368 OFFCURVE",
"575 394 OFFCURVE",
"575 419 CURVE SMOOTH",
"575 478 OFFCURVE",
"552 536 OFFCURVE",
"455 536 CURVE SMOOTH",
"369 536 OFFCURVE",
"297 505 OFFCURVE",
"250 448 CURVE",
"267 526 LINE",
"96 526 LINE",
"-16 0 LINE",
"174 0 LINE",
"237 295 LINE",
"262 339 OFFCURVE",
"305 370 OFFCURVE",
"331 370 CURVE SMOOTH",
"352 370 OFFCURVE",
"370 355 OFFCURVE",
"370 322 CURVE SMOOTH",
"370 314 OFFCURVE",
"369 306 OFFCURVE",
"367 296 CURVE SMOOTH",
"303 -3 LINE SMOOTH",
"297 -30 OFFCURVE",
"281 -46 OFFCURVE",
"259 -46 CURVE SMOOTH",
"242 -46 OFFCURVE",
"228 -38 OFFCURVE",
"221 -26 CURVE",
"116 -155 LINE",
"148 -190 OFFCURVE",
"195 -209 OFFCURVE",
"248 -209 CURVE SMOOTH"
);
}
);
};
layerId = UUID0;
paths = (
{
closed = 1;
nodes = (
"248 -209 LINE SMOOTH",
"365 -209 OFFCURVE",
"467 -119 OFFCURVE",
"495 12 CURVE SMOOTH",
"566 346 LINE SMOOTH",
"571 368 OFFCURVE",
"575 394 OFFCURVE",
"575 419 CURVE SMOOTH",
"575 478 OFFCURVE",
"552 536 OFFCURVE",
"455 536 CURVE SMOOTH",
"369 536 OFFCURVE",
"297 505 OFFCURVE",
"250 448 CURVE",
"267 526 LINE",
"96 526 LINE",
"-16 0 LINE",
"174 0 LINE",
"237 295 LINE",
"262 339 OFFCURVE",
"305 370 OFFCURVE",
"331 370 CURVE SMOOTH",
"352 370 OFFCURVE",
"370 355 OFFCURVE",
"370 322 CURVE SMOOTH",
"370 314 OFFCURVE",
"369 306 OFFCURVE",
"367 296 CURVE SMOOTH",
"303 -3 LINE SMOOTH",
"297 -30 OFFCURVE",
"281 -46 OFFCURVE",
"259 -46 CURVE SMOOTH",
"242 -46 OFFCURVE",
"228 -38 OFFCURVE",
"221 -26 CURVE",
"116 -155 LINE",
"148 -190 OFFCURVE",
"195 -209 OFFCURVE",
"248 -209 CURVE SMOOTH"
);
}
);
width = 600;
}
);
leftKerningGroup = n;
rightKerningGroup = n;
unicode = 014B;
},
{
glyphname = equal;
lastChange = "2016-08-18 22:46:43 +0000";
layers = (
{
background = {
paths = (
{
closed = 1;
nodes = (
"401 101 LINE",
"401 221 LINE",
"78 221 LINE",
"78 101 LINE"
);
},
{
closed = 1;
nodes = (
"401 331 LINE",
"401 451 LINE",
"78 451 LINE",
"78 331 LINE"
);
}
);
};
layerId = UUID0;
paths = (
{
closed = 1;
nodes = (
"401 101 LINE",
"401 221 LINE",
"78 221 LINE",
"78 101 LINE"
);
},
{
closed = 1;
nodes = (
"401 331 LINE",
"401 451 LINE",
"78 451 LINE",
"78 331 LINE"
);
}
);
width = 492;
}
);
unicode = 003D;
},
{
glyphname = eth;
lastChange = "2016-08-18 22:46:43 +0000";
layers = (
{
background = {
paths = (
{
closed = 1;
nodes = (
"585 531 OFFCURVE",
"520 679 OFFCURVE",
"420 730 CURVE",
"192 730 LINE",
"307 661 OFFCURVE",
"374 584 OFFCURVE",
"398 489 CURVE SMOOTH",
"403 469 OFFCURVE",
"406 447 OFFCURVE",
"407 425 CURVE",
"377 454 OFFCURVE",
"333 471 OFFCURVE",
"286 471 CURVE SMOOTH",
"140 471 OFFCURVE",
"4 343 OFFCURVE",
"4 191 CURVE SMOOTH",
"4 73 OFFCURVE",
"92 -10 OFFCURVE",
"234 -10 CURVE SMOOTH",
"446 -10 OFFCURVE",
"585 145 OFFCURVE",
"585 379 CURVE SMOOTH"
);
},
{
closed = 1;
nodes = (
"202 276 OFFCURVE",
"245 320 OFFCURVE",
"304 320 CURVE SMOOTH",
"346 320 OFFCURVE",
"369 294 OFFCURVE",
"369 254 CURVE SMOOTH",
"369 194 OFFCURVE",
"326 150 OFFCURVE",
"268 150 CURVE SMOOTH",
"226 150 OFFCURVE",
"202 176 OFFCURVE",
"202 216 CURVE SMOOTH"
);
},
{
closed = 1;
nodes = (
"568 712 LINE",
"436 648 LINE",
"379 634 LINE",
"268 581 LINE",
"305 510 LINE",
"417 563 LINE",
"478 580 LINE",
"605 641 LINE"
);
}
);
};
layerId = UUID0;
paths = (
{
closed = 1;
nodes = (
"585 379 LINE SMOOTH",
"585 531 OFFCURVE",
"520 679 OFFCURVE",
"420 730 CURVE",
"192 730 LINE",
"307 661 OFFCURVE",
"374 584 OFFCURVE",
"398 489 CURVE SMOOTH",
"403 469 OFFCURVE",
"406 447 OFFCURVE",
"407 425 CURVE",
"377 454 OFFCURVE",
"333 471 OFFCURVE",
"286 471 CURVE SMOOTH",
"140 471 OFFCURVE",
"4 343 OFFCURVE",
"4 191 CURVE SMOOTH",
"4 73 OFFCURVE",
"92 -10 OFFCURVE",
"234 -10 CURVE SMOOTH",
"446 -10 OFFCURVE",
"585 145 OFFCURVE",
"585 379 CURVE SMOOTH"
);
},
{
closed = 1;
nodes = (
"202 216 LINE SMOOTH",
"202 276 OFFCURVE",
"245 320 OFFCURVE",
"304 320 CURVE SMOOTH",
"346 320 OFFCURVE",
"369 294 OFFCURVE",
"369 254 CURVE SMOOTH",
"369 194 OFFCURVE",
"326 150 OFFCURVE",
"268 150 CURVE SMOOTH",
"226 150 OFFCURVE",
"202 176 OFFCURVE",
"202 216 CURVE SMOOTH"
);
},
{
closed = 1;
nodes = (
"568 712 LINE",
"436 648 LINE",
"379 634 LINE",
"268 581 LINE",
"305 510 LINE",
"417 563 LINE",
"478 580 LINE",
"605 641 LINE"
);
}
);
width = 603;
}
);
unicode = 00F0;
},
{
glyphname = exclam;
lastChange = "2016-08-18 22:46:43 +0000";
layers = (
{
background = {
paths = (
{
closed = 1;
nodes = (
"260 300 LINE",
"348 717 LINE",
"158 717 LINE",
"70 300 LINE"
);
},
{
closed = 1;
nodes = (
"196 0 LINE",
"235 184 LINE",
"45 184 LINE",
"6 0 LINE"
);
}
);
};
layerId = UUID0;
paths = (
{
closed = 1;
nodes = (
"260 300 LINE",
"348 717 LINE",
"158 717 LINE",
"70 300 LINE"
);
},
{
closed = 1;
nodes = (
"196 0 LINE",
"235 184 LINE",
"45 184 LINE",
"6 0 LINE"
);
}
);
width = 330;
}
);
unicode = 0021;
},
{
glyphname = exclamdown;
lastChange = "2016-08-18 22:46:43 +0000";
layers = (
{
background = {
paths = (
{
closed = 1;
nodes = (
"94 410 LINE",
"5 -7 LINE",
"195 -7 LINE",
"284 410 LINE"
);
},
{
closed = 1;
nodes = (
"157 710 LINE",
"118 526 LINE",
"308 526 LINE",
"347 710 LINE"
);
}
);
};
layerId = UUID0;
paths = (
{
closed = 1;
nodes = (
"94 410 LINE",
"5 -7 LINE",
"195 -7 LINE",
"284 410 LINE"
);
},
{
closed = 1;
nodes = (
"157 710 LINE",
"118 526 LINE",
"308 526 LINE",
"347 710 LINE"
);
}
);
width = 331;
}
);
unicode = 00A1;
},
{
glyphname = f;
lastChange = "2016-08-18 22:46:43 +0000";
layers = (
{
background = {
paths = (
{
closed = 1;
nodes = (
"-28 -213 LINE",
"162 -213 LINE",
"276 322 LINE",
"383 322 LINE",
"414 465 LINE",
"306 465 LINE",
"320 529 LINE SMOOTH",
"327 563 OFFCURVE",
"344 580 OFFCURVE",
"371 580 CURVE SMOOTH",
"389 580 OFFCURVE",
"416 574 OFFCURVE",
"435 566 CURVE",
"497 710 LINE",
"449 730 OFFCURVE",
"405 740 OFFCURVE",
"362 740 CURVE SMOOTH",
"250 740 OFFCURVE",
"157 654 OFFCURVE",
"129 522 CURVE SMOOTH",
"117 465 LINE",
"56 465 LINE",
"25 322 LINE",
"86 322 LINE"
);
}
);
};
layerId = UUID0;
paths = (
{
closed = 1;
nodes = (
"-28 -213 LINE",
"162 -213 LINE",
"276 322 LINE",
"383 322 LINE",
"414 465 LINE",
"306 465 LINE",
"320 529 LINE SMOOTH",
"327 563 OFFCURVE",
"344 580 OFFCURVE",
"371 580 CURVE SMOOTH",
"389 580 OFFCURVE",
"416 574 OFFCURVE",
"435 566 CURVE",
"497 710 LINE",
"449 730 OFFCURVE",
"405 740 OFFCURVE",
"362 740 CURVE SMOOTH",
"250 740 OFFCURVE",
"157 654 OFFCURVE",
"129 522 CURVE SMOOTH",
"117 465 LINE",
"56 465 LINE",
"25 322 LINE",
"86 322 LINE"
);
}
);
width = 394;
}
);
leftKerningGroup = f;
rightKerningGroup = f;
unicode = 0066;
},
{
glyphname = f_f;
lastChange = "2016-08-18 22:46:43 +0000";
layers = (
{
background = {
paths = (
{
closed = 1;
nodes = (
"18 0 LINE",
"208 0 LINE",
"276 322 LINE",
"366 322 LINE",
"297 0 LINE",
"487 0 LINE",
"556 322 LINE",
"661 322 LINE",
"691 465 LINE",
"586 465 LINE",
"600 529 LINE SMOOTH",
"607 563 OFFCURVE",
"623 580 OFFCURVE",
"650 580 CURVE SMOOTH",
"666 580 OFFCURVE",
"693 574 OFFCURVE",
"713 566 CURVE",
"775 710 LINE",
"726 730 OFFCURVE",
"680 740 OFFCURVE",
"642 740 CURVE SMOOTH",
"581 740 OFFCURVE",
"529 716 OFFCURVE",
"488 676 CURVE",
"440 696 OFFCURVE",
"396 706 OFFCURVE",
"357 706 CURVE SMOOTH",
"242 706 OFFCURVE",
"151 620 OFFCURVE",
"122 488 CURVE SMOOTH",
"117 465 LINE",
"56 465 LINE",
"25 322 LINE",
"86 322 LINE"
);
},
{
closed = 1;
nodes = (
"307 465 LINE",
"313 495 LINE SMOOTH",
"320 529 OFFCURVE",
"337 546 OFFCURVE",
"363 546 CURVE SMOOTH",
"377 546 OFFCURVE",
"394 542 OFFCURVE",
"410 537 CURVE",
"406 513 OFFCURVE",
"401 489 OFFCURVE",
"396 465 CURVE"
);
}
);
};
layerId = UUID0;
paths = (
{
closed = 1;
nodes = (
"18 0 LINE",
"208 0 LINE",
"276 322 LINE",
"366 322 LINE",
"297 0 LINE",
"487 0 LINE",
"556 322 LINE",
"661 322 LINE",
"691 465 LINE",
"586 465 LINE",
"600 529 LINE SMOOTH",
"607 563 OFFCURVE",
"623 580 OFFCURVE",
"650 580 CURVE SMOOTH",
"666 580 OFFCURVE",
"693 574 OFFCURVE",
"713 566 CURVE",
"775 710 LINE",
"726 730 OFFCURVE",
"680 740 OFFCURVE",
"642 740 CURVE SMOOTH",
"581 740 OFFCURVE",
"529 716 OFFCURVE",
"488 676 CURVE",
"440 696 OFFCURVE",
"396 706 OFFCURVE",
"357 706 CURVE SMOOTH",
"242 706 OFFCURVE",
"151 620 OFFCURVE",
"122 488 CURVE SMOOTH",
"117 465 LINE",
"56 465 LINE",
"25 322 LINE",
"86 322 LINE"
);
},
{
closed = 1;
nodes = (
"307 465 LINE",
"313 495 LINE SMOOTH",
"320 529 OFFCURVE",
"337 546 OFFCURVE",
"363 546 CURVE SMOOTH",
"377 546 OFFCURVE",
"394 542 OFFCURVE",
"410 537 CURVE",
"406 513 OFFCURVE",
"401 489 OFFCURVE",
"396 465 CURVE"
);
}
);
width = 672;
}
);
leftKerningGroup = f;
rightKerningGroup = f;
unicode = FB00;
},
{
glyphname = f_f_i;
lastChange = "2016-08-18 22:46:43 +0000";
layers = (
{
background = {
paths = (
{
closed = 1;
nodes = (
"18 0 LINE",
"208 0 LINE",
"276 322 LINE",
"366 322 LINE",
"297 0 LINE",
"487 0 LINE",
"556 322 LINE",
"653 322 LINE",
"584 0 LINE",
"775 0 LINE",
"874 465 LINE",
"586 465 LINE",
"600 529 LINE SMOOTH",
"607 563 OFFCURVE",
"629 580 OFFCURVE",
"670 580 CURVE SMOOTH",
"707 580 OFFCURVE",
"757 554 OFFCURVE",
"791 516 CURVE",
"893 660 LINE",
"816 715 OFFCURVE",
"747 740 OFFCURVE",
"683 740 CURVE SMOOTH",
"606 740 OFFCURVE",
"537 716 OFFCURVE",
"488 676 CURVE",
"440 696 OFFCURVE",
"396 706 OFFCURVE",
"357 706 CURVE SMOOTH",
"242 706 OFFCURVE",
"151 620 OFFCURVE",
"122 488 CURVE SMOOTH",
"117 465 LINE",
"56 465 LINE",
"25 322 LINE",
"86 322 LINE"
);
},
{
closed = 1;
nodes = (
"307 465 LINE",
"313 495 LINE SMOOTH",
"320 529 OFFCURVE",
"337 546 OFFCURVE",
"363 546 CURVE SMOOTH",
"377 546 OFFCURVE",
"394 542 OFFCURVE",
"410 537 CURVE",
"406 513 OFFCURVE",
"401 489 OFFCURVE",
"396 465 CURVE"
);
}
);
};
layerId = UUID0;
paths = (
{
closed = 1;
nodes = (
"18 0 LINE",
"208 0 LINE",
"276 322 LINE",
"366 322 LINE",
"297 0 LINE",
"487 0 LINE",
"556 322 LINE",
"653 322 LINE",
"584 0 LINE",
"775 0 LINE",
"874 465 LINE",
"586 465 LINE",
"600 529 LINE SMOOTH",
"607 563 OFFCURVE",
"629 580 OFFCURVE",
"670 580 CURVE SMOOTH",
"707 580 OFFCURVE",
"757 554 OFFCURVE",
"791 516 CURVE",
"893 660 LINE",
"816 715 OFFCURVE",
"747 740 OFFCURVE",
"683 740 CURVE SMOOTH",
"606 740 OFFCURVE",
"537 716 OFFCURVE",
"488 676 CURVE",
"440 696 OFFCURVE",
"396 706 OFFCURVE",
"357 706 CURVE SMOOTH",
"242 706 OFFCURVE",
"151 620 OFFCURVE",
"122 488 CURVE SMOOTH",
"117 465 LINE",
"56 465 LINE",
"25 322 LINE",
"86 322 LINE"
);
},
{
closed = 1;
nodes = (
"307 465 LINE",
"313 495 LINE SMOOTH",
"320 529 OFFCURVE",
"337 546 OFFCURVE",
"363 546 CURVE SMOOTH",
"377 546 OFFCURVE",
"394 542 OFFCURVE",
"410 537 CURVE",
"406 513 OFFCURVE",
"401 489 OFFCURVE",
"396 465 CURVE"
);
}
);
width = 887;
}
);
leftKerningGroup = f;
rightKerningGroup = i;
unicode = FB03;
},
{
glyphname = f_f_l;
lastChange = "2016-08-18 22:46:43 +0000";
layers = (
{
background = {
paths = (
{
closed = 1;
nodes = (
"829 -9 OFFCURVE",
"912 21 OFFCURVE",
"916 24 CURVE",
"925 176 LINE",
"924 176 OFFCURVE",
"889 160 OFFCURVE",
"868 160 CURVE SMOOTH",
"845 160 OFFCURVE",
"838 178 OFFCURVE",
"838 198 CURVE SMOOTH",
"838 204 OFFCURVE",
"839 211 OFFCURVE",
"840 217 CURVE SMOOTH",
"903 510 LINE SMOOTH",
"908 533 OFFCURVE",
"910 555 OFFCURVE",
"910 575 CURVE SMOOTH",
"910 677 OFFCURVE",
"846 740 OFFCURVE",
"698 740 CURVE SMOOTH",
"615 740 OFFCURVE",
"541 720 OFFCURVE",
"489 676 CURVE",
"441 696 OFFCURVE",
"396 706 OFFCURVE",
"354 706 CURVE SMOOTH",
"242 706 OFFCURVE",
"151 620 OFFCURVE",
"122 488 CURVE SMOOTH",
"117 465 LINE",
"56 465 LINE",
"25 322 LINE",
"86 322 LINE",
"18 0 LINE",
"208 0 LINE",
"276 322 LINE",
"364 322 LINE",
"296 0 LINE",
"486 0 LINE",
"554 322 LINE",
"617 322 LINE",
"647 465 LINE",
"585 465 LINE",
"591 494 LINE SMOOTH",
"600 540 OFFCURVE",
"623 580 OFFCURVE",
"666 580 CURVE SMOOTH",
"702 580 OFFCURVE",
"714 563 OFFCURVE",
"714 534 CURVE SMOOTH",
"714 520 OFFCURVE",
"711 502 OFFCURVE",
"707 483 CURVE SMOOTH",
"629 117 LINE SMOOTH",
"627 109 OFFCURVE",
"626 101 OFFCURVE",
"626 93 CURVE SMOOTH",
"626 36 OFFCURVE",
"672 -9 OFFCURVE",
"759 -9 CURVE SMOOTH"
);
},
{
closed = 1;
nodes = (
"307 465 LINE",
"313 495 LINE SMOOTH",
"320 529 OFFCURVE",
"337 546 OFFCURVE",
"363 546 CURVE SMOOTH",
"375 546 OFFCURVE",
"393 543 OFFCURVE",
"409 538 CURVE",
"405 514 OFFCURVE",
"400 489 OFFCURVE",
"395 465 CURVE"
);
}
);
};
layerId = UUID0;
paths = (
{
closed = 1;
nodes = (
"759 -9 LINE SMOOTH",
"829 -9 OFFCURVE",
"912 21 OFFCURVE",
"916 24 CURVE",
"925 176 LINE",
"924 176 OFFCURVE",
"889 160 OFFCURVE",
"868 160 CURVE SMOOTH",
"845 160 OFFCURVE",
"838 178 OFFCURVE",
"838 198 CURVE SMOOTH",
"838 204 OFFCURVE",
"839 211 OFFCURVE",
"840 217 CURVE SMOOTH",
"903 510 LINE SMOOTH",
"908 533 OFFCURVE",
"910 555 OFFCURVE",
"910 575 CURVE SMOOTH",
"910 677 OFFCURVE",
"846 740 OFFCURVE",
"698 740 CURVE SMOOTH",
"615 740 OFFCURVE",
"541 720 OFFCURVE",
"489 676 CURVE",
"441 696 OFFCURVE",
"396 706 OFFCURVE",
"354 706 CURVE SMOOTH",
"242 706 OFFCURVE",
"151 620 OFFCURVE",
"122 488 CURVE SMOOTH",
"117 465 LINE",
"56 465 LINE",
"25 322 LINE",
"86 322 LINE",
"18 0 LINE",
"208 0 LINE",
"276 322 LINE",
"364 322 LINE",
"296 0 LINE",
"486 0 LINE",
"554 322 LINE",
"617 322 LINE",
"647 465 LINE",
"585 465 LINE",
"591 494 LINE SMOOTH",
"600 540 OFFCURVE",
"623 580 OFFCURVE",
"666 580 CURVE SMOOTH",
"702 580 OFFCURVE",
"714 563 OFFCURVE",
"714 534 CURVE SMOOTH",
"714 520 OFFCURVE",
"711 502 OFFCURVE",
"707 483 CURVE SMOOTH",
"629 117 LINE SMOOTH",
"627 109 OFFCURVE",
"626 101 OFFCURVE",
"626 93 CURVE SMOOTH",
"626 36 OFFCURVE",
"672 -9 OFFCURVE",
"759 -9 CURVE SMOOTH"
);
},
{
closed = 1;
nodes = (
"307 465 LINE",
"313 495 LINE SMOOTH",
"320 529 OFFCURVE",
"337 546 OFFCURVE",
"363 546 CURVE SMOOTH",
"375 546 OFFCURVE",
"393 543 OFFCURVE",
"409 538 CURVE",
"405 514 OFFCURVE",
"400 489 OFFCURVE",
"395 465 CURVE"
);
}
);
width = 970;
}
);
leftKerningGroup = f;
rightKerningGroup = l;
unicode = FB04;
},
{
glyphname = f_i;
lastChange = "2016-08-18 22:46:43 +0000";
layers = (
{
background = {
paths = (
{
closed = 1;
nodes = (
"18 0 LINE",
"208 0 LINE",
"276 322 LINE",
"373 322 LINE",
"305 0 LINE",
"495 0 LINE",
"594 465 LINE",
"306 465 LINE",
"320 529 LINE SMOOTH",
"327 563 OFFCURVE",
"352 580 OFFCURVE",
"386 580 CURVE SMOOTH",
"429 580 OFFCURVE",
"475 556 OFFCURVE",
"512 516 CURVE",
"614 660 LINE",
"541 714 OFFCURVE",
"480 740 OFFCURVE",
"407 740 CURVE SMOOTH",
"273 740 OFFCURVE",
"157 654 OFFCURVE",
"129 522 CURVE SMOOTH",
"117 465 LINE",
"56 465 LINE",
"25 322 LINE",
"86 322 LINE"
);
}
);
};
layerId = UUID0;
paths = (
{
closed = 1;
nodes = (
"18 0 LINE",
"208 0 LINE",
"276 322 LINE",
"373 322 LINE",
"305 0 LINE",
"495 0 LINE",
"594 465 LINE",
"306 465 LINE",
"320 529 LINE SMOOTH",
"327 563 OFFCURVE",
"352 580 OFFCURVE",
"386 580 CURVE SMOOTH",
"429 580 OFFCURVE",
"475 556 OFFCURVE",
"512 516 CURVE",
"614 660 LINE",
"541 714 OFFCURVE",
"480 740 OFFCURVE",
"407 740 CURVE SMOOTH",
"273 740 OFFCURVE",
"157 654 OFFCURVE",
"129 522 CURVE SMOOTH",
"117 465 LINE",
"56 465 LINE",
"25 322 LINE",
"86 322 LINE"
);
}
);
width = 607;
}
);
leftKerningGroup = f;
rightKerningGroup = i;
unicode = FB01;
},
{
glyphname = f_l;
lastChange = "2016-08-18 22:46:43 +0000";
layers = (
{
background = {
paths = (
{
closed = 1;
nodes = (
"552 -9 OFFCURVE",
"634 21 OFFCURVE",
"638 24 CURVE",
"648 176 LINE",
"646 176 OFFCURVE",
"611 160 OFFCURVE",
"590 160 CURVE SMOOTH",
"568 160 OFFCURVE",
"561 178 OFFCURVE",
"561 197 CURVE SMOOTH",
"561 204 OFFCURVE",
"562 210 OFFCURVE",
"563 217 CURVE SMOOTH",
"625 510 LINE SMOOTH",
"630 533 OFFCURVE",
"632 555 OFFCURVE",
"632 575 CURVE SMOOTH",
"632 677 OFFCURVE",
"568 740 OFFCURVE",
"420 740 CURVE SMOOTH",
"277 740 OFFCURVE",
"163 679 OFFCURVE",
"133 540 CURVE SMOOTH",
"117 465 LINE",
"56 465 LINE",
"25 322 LINE",
"86 322 LINE",
"18 0 LINE",
"208 0 LINE",
"276 322 LINE",
"339 322 LINE",
"369 465 LINE",
"307 465 LINE",
"313 494 LINE SMOOTH",
"323 545 OFFCURVE",
"345 580 OFFCURVE",
"395 580 CURVE SMOOTH",
"425 580 OFFCURVE",
"436 566 OFFCURVE",
"436 537 CURVE SMOOTH",
"436 521 OFFCURVE",
"432 499 OFFCURVE",
"427 473 CURVE SMOOTH",
"351 117 LINE SMOOTH",
"349 109 OFFCURVE",
"348 101 OFFCURVE",
"348 93 CURVE SMOOTH",
"348 36 OFFCURVE",
"394 -9 OFFCURVE",
"481 -9 CURVE SMOOTH"
);
}
);
};
layerId = UUID0;
paths = (
{
closed = 1;
nodes = (
"481 -9 LINE SMOOTH",
"552 -9 OFFCURVE",
"634 21 OFFCURVE",
"638 24 CURVE",
"648 176 LINE",
"646 176 OFFCURVE",
"611 160 OFFCURVE",
"590 160 CURVE SMOOTH",
"568 160 OFFCURVE",
"561 178 OFFCURVE",
"561 197 CURVE SMOOTH",
"561 204 OFFCURVE",
"562 210 OFFCURVE",
"563 217 CURVE SMOOTH",
"625 510 LINE SMOOTH",
"630 533 OFFCURVE",
"632 555 OFFCURVE",
"632 575 CURVE SMOOTH",
"632 677 OFFCURVE",
"568 740 OFFCURVE",
"420 740 CURVE SMOOTH",
"277 740 OFFCURVE",
"163 679 OFFCURVE",
"133 540 CURVE SMOOTH",
"117 465 LINE",
"56 465 LINE",
"25 322 LINE",
"86 322 LINE",
"18 0 LINE",
"208 0 LINE",
"276 322 LINE",
"339 322 LINE",
"369 465 LINE",
"307 465 LINE",
"313 494 LINE SMOOTH",
"323 545 OFFCURVE",
"345 580 OFFCURVE",
"395 580 CURVE SMOOTH",
"425 580 OFFCURVE",
"436 566 OFFCURVE",
"436 537 CURVE SMOOTH",
"436 521 OFFCURVE",
"432 499 OFFCURVE",
"427 473 CURVE SMOOTH",
"351 117 LINE SMOOTH",
"349 109 OFFCURVE",
"348 101 OFFCURVE",
"348 93 CURVE SMOOTH",
"348 36 OFFCURVE",
"394 -9 OFFCURVE",
"481 -9 CURVE SMOOTH"
);
}
);
width = 692;
}
);
leftKerningGroup = f;
rightKerningGroup = l;
unicode = FB02;
},
{
glyphname = five;
lastChange = "2016-08-18 22:46:43 +0000";
layers = (
{
background = {
paths = (
{
closed = 1;
nodes = (
"333 -149 OFFCURVE",
"474 -25 OFFCURVE",
"474 142 CURVE SMOOTH",
"474 251 OFFCURVE",
"404 326 OFFCURVE",
"292 326 CURVE SMOOTH",
"264 326 OFFCURVE",
"252 321 OFFCURVE",
"255 321 CURVE",
"279 398 LINE",
"481 398 LINE",
"518 571 LINE",
"179 571 LINE",
"118 424 OFFCURVE",
"65 276 OFFCURVE",
"5 129 CURVE",
"167 129 LINE",
"181 150 OFFCURVE",
"205 164 OFFCURVE",
"229 164 CURVE SMOOTH",
"258 164 OFFCURVE",
"274 142 OFFCURVE",
"274 110 CURVE SMOOTH",
"274 56 OFFCURVE",
"240 17 OFFCURVE",
"188 17 CURVE SMOOTH",
"148 17 OFFCURVE",
"106 42 OFFCURVE",
"79 83 CURVE",
"-50 -37 LINE",
"-22 -108 OFFCURVE",
"53 -149 OFFCURVE",
"152 -149 CURVE SMOOTH"
);
}
);
};
layerId = UUID0;
paths = (
{
closed = 1;
nodes = (
"152 -149 LINE SMOOTH",
"333 -149 OFFCURVE",
"474 -25 OFFCURVE",
"474 142 CURVE SMOOTH",
"474 251 OFFCURVE",
"404 326 OFFCURVE",
"292 326 CURVE SMOOTH",
"264 326 OFFCURVE",
"252 321 OFFCURVE",
"255 321 CURVE",
"279 398 LINE",
"481 398 LINE",
"518 571 LINE",
"179 571 LINE",
"118 424 OFFCURVE",
"65 276 OFFCURVE",
"5 129 CURVE",
"167 129 LINE",
"181 150 OFFCURVE",
"205 164 OFFCURVE",
"229 164 CURVE SMOOTH",
"258 164 OFFCURVE",
"274 142 OFFCURVE",
"274 110 CURVE SMOOTH",
"274 56 OFFCURVE",
"240 17 OFFCURVE",
"188 17 CURVE SMOOTH",
"148 17 OFFCURVE",
"106 42 OFFCURVE",
"79 83 CURVE",
"-50 -37 LINE",
"-22 -108 OFFCURVE",
"53 -149 OFFCURVE",
"152 -149 CURVE SMOOTH"
);
}
);
width = 540;
}
);
unicode = 0035;
},
{
glyphname = five.lnum;
lastChange = "2016-08-18 22:46:43 +0000";
layers = (
{
background = {
paths = (
{
closed = 1;
nodes = (
"370 -9 OFFCURVE",
"512 115 OFFCURVE",
"512 282 CURVE SMOOTH",
"512 391 OFFCURVE",
"442 466 OFFCURVE",
"330 466 CURVE SMOOTH",
"302 466 OFFCURVE",
"290 461 OFFCURVE",
"293 461 CURVE",
"317 538 LINE",
"519 538 LINE",
"556 711 LINE",
"217 711 LINE",
"156 564 OFFCURVE",
"103 416 OFFCURVE",
"43 269 CURVE",
"205 269 LINE",
"219 290 OFFCURVE",
"243 304 OFFCURVE",
"267 304 CURVE SMOOTH",
"296 304 OFFCURVE",
"312 282 OFFCURVE",
"312 250 CURVE SMOOTH",
"312 196 OFFCURVE",
"278 157 OFFCURVE",
"226 157 CURVE SMOOTH",
"186 157 OFFCURVE",
"144 182 OFFCURVE",
"117 223 CURVE",
"-12 103 LINE",
"16 32 OFFCURVE",
"91 -9 OFFCURVE",
"190 -9 CURVE SMOOTH"
);
}
);
};
layerId = UUID0;
paths = (
{
closed = 1;
nodes = (
"190 -9 LINE SMOOTH",
"370 -9 OFFCURVE",
"512 115 OFFCURVE",
"512 282 CURVE SMOOTH",
"512 391 OFFCURVE",
"442 466 OFFCURVE",
"330 466 CURVE SMOOTH",
"302 466 OFFCURVE",
"290 461 OFFCURVE",
"293 461 CURVE",
"317 538 LINE",
"519 538 LINE",
"556 711 LINE",
"217 711 LINE",
"156 564 OFFCURVE",
"103 416 OFFCURVE",
"43 269 CURVE",
"205 269 LINE",
"219 290 OFFCURVE",
"243 304 OFFCURVE",
"267 304 CURVE SMOOTH",
"296 304 OFFCURVE",
"312 282 OFFCURVE",
"312 250 CURVE SMOOTH",
"312 196 OFFCURVE",
"278 157 OFFCURVE",
"226 157 CURVE SMOOTH",
"186 157 OFFCURVE",
"144 182 OFFCURVE",
"117 223 CURVE",
"-12 103 LINE",
"16 32 OFFCURVE",
"91 -9 OFFCURVE",
"190 -9 CURVE SMOOTH"
);
}
);
width = 557;
}
);
},
{
glyphname = fivesuperior;
lastChange = "2016-08-18 22:46:43 +0000";
layers = (
{
background = {
paths = (
{
closed = 1;
nodes = (
"255 669 OFFCURVE",
"237 663 OFFCURVE",
"229 661 CURVE",
"255 712 LINE",
"425 712 LINE",
"448 821 LINE",
"201 821 LINE",
"165 728 OFFCURVE",
"120 638 OFFCURVE",
"84 546 CURVE",
"177 546 LINE",
"194 571 OFFCURVE",
"234 589 OFFCURVE",
"261 589 CURVE SMOOTH",
"284 589 OFFCURVE",
"313 576 OFFCURVE",
"313 542 CURVE SMOOTH",
"313 495 OFFCURVE",
"273 479 OFFCURVE",
"227 479 CURVE SMOOTH",
"182 479 OFFCURVE",
"147 494 OFFCURVE",
"126 519 CURVE",
"48 443 LINE",
"71 400 OFFCURVE",
"128 374 OFFCURVE",
"198 374 CURVE SMOOTH",
"324 374 OFFCURVE",
"424 450 OFFCURVE",
"424 550 CURVE SMOOTH",
"424 620 OFFCURVE",
"369 669 OFFCURVE",
"285 669 CURVE SMOOTH"
);
}
);
};
layerId = UUID0;
paths = (
{
closed = 1;
nodes = (
"285 669 LINE SMOOTH",
"255 669 OFFCURVE",
"237 663 OFFCURVE",
"229 661 CURVE",
"255 712 LINE",
"425 712 LINE",
"448 821 LINE",
"201 821 LINE",
"165 728 OFFCURVE",
"120 638 OFFCURVE",
"84 546 CURVE",
"177 546 LINE",
"194 571 OFFCURVE",
"234 589 OFFCURVE",
"261 589 CURVE SMOOTH",
"284 589 OFFCURVE",
"313 576 OFFCURVE",
"313 542 CURVE SMOOTH",
"313 495 OFFCURVE",
"273 479 OFFCURVE",
"227 479 CURVE SMOOTH",
"182 479 OFFCURVE",
"147 494 OFFCURVE",
"126 519 CURVE",
"48 443 LINE",
"71 400 OFFCURVE",
"128 374 OFFCURVE",
"198 374 CURVE SMOOTH",
"324 374 OFFCURVE",
"424 450 OFFCURVE",
"424 550 CURVE SMOOTH",
"424 620 OFFCURVE",
"369 669 OFFCURVE",
"285 669 CURVE SMOOTH"
);
}
);
width = 397;
}
);
unicode = 2075;
},
{
glyphname = fraction;
lastChange = "2016-08-18 22:46:43 +0000";
layers = (
{
background = {
paths = (
{
closed = 1;
nodes = (
"-157 -10 LINE",
"165 337 LINE",
"488 646 LINE",
"421 721 LINE",
"113 384 LINE",
"-224 65 LINE"
);
}
);
};
layerId = UUID0;
paths = (
{
closed = 1;
nodes = (
"-157 -10 LINE",
"165 337 LINE",
"488 646 LINE",
"421 721 LINE",
"113 384 LINE",
"-224 65 LINE"
);
}
);
width = 240;
}
);
unicode = 2044;
},
{
glyphname = fiveinferior;
lastChange = "2016-08-18 22:46:43 +0000";
layers = (
{
background = {
paths = (
{
closed = 1;
nodes = (
"156 199 OFFCURVE",
"138 193 OFFCURVE",
"130 191 CURVE",
"156 242 LINE",
"326 242 LINE",
"349 351 LINE",
"102 351 LINE",
"66 258 OFFCURVE",
"21 168 OFFCURVE",
"-15 76 CURVE",
"78 76 LINE",
"95 101 OFFCURVE",
"135 119 OFFCURVE",
"162 119 CURVE SMOOTH",
"185 119 OFFCURVE",
"214 106 OFFCURVE",
"214 72 CURVE SMOOTH",
"214 25 OFFCURVE",
"174 9 OFFCURVE",
"128 9 CURVE SMOOTH",
"83 9 OFFCURVE",
"48 24 OFFCURVE",
"27 49 CURVE",
"-51 -27 LINE",
"-28 -70 OFFCURVE",
"29 -96 OFFCURVE",
"99 -96 CURVE SMOOTH",
"225 -96 OFFCURVE",
"325 -20 OFFCURVE",
"325 80 CURVE SMOOTH",
"325 150 OFFCURVE",
"270 199 OFFCURVE",
"186 199 CURVE SMOOTH"
);
}
);
};
layerId = UUID0;
paths = (
{
closed = 1;
nodes = (
"186 199 LINE SMOOTH",
"156 199 OFFCURVE",
"138 193 OFFCURVE",
"130 191 CURVE",
"156 242 LINE",
"326 242 LINE",
"349 351 LINE",
"102 351 LINE",
"66 258 OFFCURVE",
"21 168 OFFCURVE",
"-15 76 CURVE",
"78 76 LINE",
"95 101 OFFCURVE",
"135 119 OFFCURVE",
"162 119 CURVE SMOOTH",
"185 119 OFFCURVE",
"214 106 OFFCURVE",
"214 72 CURVE SMOOTH",
"214 25 OFFCURVE",
"174 9 OFFCURVE",
"128 9 CURVE SMOOTH",
"83 9 OFFCURVE",
"48 24 OFFCURVE",
"27 49 CURVE",
"-51 -27 LINE",
"-28 -70 OFFCURVE",
"29 -96 OFFCURVE",
"99 -96 CURVE SMOOTH",
"225 -96 OFFCURVE",
"325 -20 OFFCURVE",
"325 80 CURVE SMOOTH",
"325 150 OFFCURVE",
"270 199 OFFCURVE",
"186 199 CURVE SMOOTH"
);
}
);
width = 398;
}
);
unicode = 2085;
},
{
glyphname = florin;
lastChange = "2016-08-18 22:46:43 +0000";
layers = (
{
background = {
paths = (
{
closed = 1;
nodes = (
"179 -209 OFFCURVE",
"281 -123 OFFCURVE",
"308 2 CURVE SMOOTH",
"376 322 LINE",
"483 322 LINE",
"514 465 LINE",
"406 465 LINE",
"420 529 LINE SMOOTH",
"427 563 OFFCURVE",
"444 580 OFFCURVE",
"471 580 CURVE SMOOTH",
"489 580 OFFCURVE",
"516 574 OFFCURVE",
"535 566 CURVE",
"597 710 LINE",
"549 730 OFFCURVE",
"505 740 OFFCURVE",
"462 740 CURVE SMOOTH",
"350 740 OFFCURVE",
"257 654 OFFCURVE",
"229 522 CURVE SMOOTH",
"217 465 LINE",
"156 465 LINE",
"125 322 LINE",
"186 322 LINE",
"117 -3 LINE SMOOTH",
"111 -30 OFFCURVE",
"96 -46 OFFCURVE",
"74 -46 CURVE SMOOTH",
"58 -46 OFFCURVE",
"43 -38 OFFCURVE",
"36 -26 CURVE",
"-69 -155 LINE",
"-37 -190 OFFCURVE",
"11 -209 OFFCURVE",
"64 -209 CURVE SMOOTH"
);
}
);
};
layerId = UUID0;
paths = (
{
closed = 1;
nodes = (
"64 -209 LINE SMOOTH",
"179 -209 OFFCURVE",
"281 -123 OFFCURVE",
"308 2 CURVE SMOOTH",
"376 322 LINE",
"483 322 LINE",
"514 465 LINE",
"406 465 LINE",
"420 529 LINE SMOOTH",
"427 563 OFFCURVE",
"444 580 OFFCURVE",
"471 580 CURVE SMOOTH",
"489 580 OFFCURVE",
"516 574 OFFCURVE",
"535 566 CURVE",
"597 710 LINE",
"549 730 OFFCURVE",
"505 740 OFFCURVE",
"462 740 CURVE SMOOTH",
"350 740 OFFCURVE",
"257 654 OFFCURVE",
"229 522 CURVE SMOOTH",
"217 465 LINE",
"156 465 LINE",
"125 322 LINE",
"186 322 LINE",
"117 -3 LINE SMOOTH",
"111 -30 OFFCURVE",
"96 -46 OFFCURVE",
"74 -46 CURVE SMOOTH",
"58 -46 OFFCURVE",
"43 -38 OFFCURVE",
"36 -26 CURVE",
"-69 -155 LINE",
"-37 -190 OFFCURVE",
"11 -209 OFFCURVE",
"64 -209 CURVE SMOOTH"
);
}
);
width = 544;
}
);
unicode = 0192;
},
{
glyphname = four;
lastChange = "2016-08-18 22:46:43 +0000";
layers = (
{
background = {
paths = (
{
closed = 1;
nodes = (
"169 -127 LINE",
"359 -127 LINE",
"385 -3 LINE",
"469 -3 LINE",
"505 167 LINE",
"421 167 LINE",
"507 571 LINE",
"377 571 LINE",
"-7 167 LINE",
"-43 -3 LINE",
"195 -3 LINE"
);
},
{
closed = 1;
nodes = (
"180 167 LINE",
"279 287 LINE",
"253 167 LINE"
);
}
);
};
layerId = UUID0;
paths = (
{
closed = 1;
nodes = (
"169 -127 LINE",
"359 -127 LINE",
"385 -3 LINE",
"469 -3 LINE",
"505 167 LINE",
"421 167 LINE",
"507 571 LINE",
"377 571 LINE",
"-7 167 LINE",
"-43 -3 LINE",
"195 -3 LINE"
);
},
{
closed = 1;
nodes = (
"180 167 LINE",
"279 287 LINE",
"253 167 LINE"
);
}
);
width = 570;
}
);
unicode = 0034;
},
{
glyphname = four.lnum;
lastChange = "2016-08-18 22:46:43 +0000";
layers = (
{
background = {
paths = (
{
closed = 1;
nodes = (
"390 1 LINE",
"419 137 LINE",
"503 137 LINE",
"539 307 LINE",
"455 307 LINE",
"541 711 LINE",
"411 711 LINE",
"28 307 LINE",
"-8 137 LINE",
"229 137 LINE",
"200 1 LINE"
);
},
{
closed = 1;
nodes = (
"215 307 LINE",
"313 427 LINE",
"287 307 LINE"
);
}
);
};
layerId = UUID0;
paths = (
{
closed = 1;
nodes = (
"390 1 LINE",
"419 137 LINE",
"503 137 LINE",
"539 307 LINE",
"455 307 LINE",
"541 711 LINE",
"411 711 LINE",
"28 307 LINE",
"-8 137 LINE",
"229 137 LINE",
"200 1 LINE"
);
},
{
closed = 1;
nodes = (
"215 307 LINE",
"313 427 LINE",
"287 307 LINE"
);
}
);
width = 575;
}
);
},
{
glyphname = fourinferior;
lastChange = "2016-08-18 22:46:43 +0000";
layers = (
{
background = {
paths = (
{
closed = 1;
nodes = (
"247 -89 LINE",
"265 -6 LINE",
"326 -6 LINE",
"349 101 LINE",
"288 101 LINE",
"341 351 LINE",
"267 351 LINE",
"-23 101 LINE",
"-46 -6 LINE",
"157 -6 LINE",
"140 -89 LINE"
);
},
{
closed = 1;
nodes = (
"210 222 LINE",
"184 101 LINE",
"77 101 LINE"
);
}
);
};
layerId = UUID0;
paths = (
{
closed = 1;
nodes = (
"247 -89 LINE",
"265 -6 LINE",
"326 -6 LINE",
"349 101 LINE",
"288 101 LINE",
"341 351 LINE",
"267 351 LINE",
"-23 101 LINE",
"-46 -6 LINE",
"157 -6 LINE",
"140 -89 LINE"
);
},
{
closed = 1;
nodes = (
"210 222 LINE",
"184 101 LINE",
"77 101 LINE"
);
}
);
width = 417;
}
);
unicode = 2084;
},
{
glyphname = foursuperior;
lastChange = "2016-08-18 22:46:43 +0000";
layers = (
{
background = {
paths = (
{
closed = 1;
nodes = (
"347 381 LINE",
"365 464 LINE",
"426 464 LINE",
"449 571 LINE",
"388 571 LINE",
"441 821 LINE",
"367 821 LINE",
"77 571 LINE",
"54 464 LINE",
"257 464 LINE",
"240 381 LINE"
);
},
{
closed = 1;
nodes = (
"310 692 LINE",
"284 571 LINE",
"177 571 LINE"
);
}
);
};
layerId = UUID0;
paths = (
{
closed = 1;
nodes = (
"347 381 LINE",
"365 464 LINE",
"426 464 LINE",
"449 571 LINE",
"388 571 LINE",
"441 821 LINE",
"367 821 LINE",
"77 571 LINE",
"54 464 LINE",
"257 464 LINE",
"240 381 LINE"
);
},
{
closed = 1;
nodes = (
"310 692 LINE",
"284 571 LINE",
"177 571 LINE"
);
}
);
width = 417;
}
);
unicode = 2074;
},
{
glyphname = g;
lastChange = "2016-08-18 22:46:43 +0000";
layers = (
{
anchors = (
{
name = top;
position = "{311, 522}";
}
);
background = {
paths = (
{
closed = 1;
nodes = (
"345 -223 OFFCURVE",
"490 -116 OFFCURVE",
"525 48 CURVE SMOOTH",
"627 526 LINE",
"462 526 LINE",
"445 448 LINE",
"427 505 OFFCURVE",
"377 536 OFFCURVE",
"307 536 CURVE SMOOTH",
"146 536 OFFCURVE",
"8 387 OFFCURVE",
"8 204 CURVE SMOOTH",
"8 87 OFFCURVE",
"69 0 OFFCURVE",
"176 0 CURVE SMOOTH",
"239 0 OFFCURVE",
"303 27 OFFCURVE",
"342 82 CURVE",
"335 48 LINE SMOOTH",
"316 -46 OFFCURVE",
"252 -82 OFFCURVE",
"188 -82 CURVE SMOOTH",
"132 -82 OFFCURVE",
"85 -54 OFFCURVE",
"57 -18 CURVE",
"-65 -122 LINE",
"-17 -187 OFFCURVE",
"54 -223 OFFCURVE",
"159 -223 CURVE SMOOTH"
);
},
{
closed = 1;
nodes = (
"233 150 OFFCURVE",
"206 184 OFFCURVE",
"206 233 CURVE SMOOTH",
"206 307 OFFCURVE",
"262 376 OFFCURVE",
"317 376 CURVE SMOOTH",
"352 376 OFFCURVE",
"381 346 OFFCURVE",
"388 298 CURVE",
"368 204 LINE",
"336 168 OFFCURVE",
"309 150 OFFCURVE",
"277 150 CURVE SMOOTH"
);
}
);
};
layerId = UUID0;
paths = (
{
closed = 1;
nodes = (
"159 -223 LINE SMOOTH",
"345 -223 OFFCURVE",
"490 -116 OFFCURVE",
"525 48 CURVE SMOOTH",
"627 526 LINE",
"462 526 LINE",
"445 448 LINE",
"427 505 OFFCURVE",
"377 536 OFFCURVE",
"307 536 CURVE SMOOTH",
"146 536 OFFCURVE",
"8 387 OFFCURVE",
"8 204 CURVE SMOOTH",
"8 87 OFFCURVE",
"69 0 OFFCURVE",
"176 0 CURVE SMOOTH",
"239 0 OFFCURVE",
"303 27 OFFCURVE",
"342 82 CURVE",
"335 48 LINE SMOOTH",
"316 -46 OFFCURVE",
"252 -82 OFFCURVE",
"188 -82 CURVE SMOOTH",
"132 -82 OFFCURVE",
"85 -54 OFFCURVE",
"57 -18 CURVE",
"-65 -122 LINE",
"-17 -187 OFFCURVE",
"54 -223 OFFCURVE",
"159 -223 CURVE SMOOTH"
);
},
{
closed = 1;
nodes = (
"277 150 LINE SMOOTH",
"233 150 OFFCURVE",
"206 184 OFFCURVE",
"206 233 CURVE SMOOTH",
"206 307 OFFCURVE",
"262 376 OFFCURVE",
"317 376 CURVE SMOOTH",
"352 376 OFFCURVE",
"381 346 OFFCURVE",
"388 298 CURVE",
"368 204 LINE",
"336 168 OFFCURVE",
"309 150 OFFCURVE",
"277 150 CURVE SMOOTH"
);
}
);
width = 626;
}
);
leftKerningGroup = a;
rightKerningGroup = a.alt;
unicode = 0067;
},
{
glyphname = germandbls;
lastChange = "2016-08-18 22:46:43 +0000";
layers = (
{
background = {
paths = (
{
closed = 1;
nodes = (
"182 -6 LINE",
"325 -6 OFFCURVE",
"511 50 OFFCURVE",
"511 258 CURVE SMOOTH",
"511 328 OFFCURVE",
"481 380 OFFCURVE",
"431 403 CURVE",
"477 426 OFFCURVE",
"531 499 OFFCURVE",
"531 578 CURVE SMOOTH",
"531 664 OFFCURVE",
"465 714 OFFCURVE",
"367 714 CURVE SMOOTH",
"237 714 OFFCURVE",
"119 635 OFFCURVE",
"96 529 CURVE SMOOTH",
"-16 0 LINE",
"164 0 LINE",
"269 494 LINE SMOOTH",
"277 533 OFFCURVE",
"289 554 OFFCURVE",
"313 554 CURVE SMOOTH",
"329 554 OFFCURVE",
"341 542 OFFCURVE",
"341 522 CURVE SMOOTH",
"341 505 OFFCURVE",
"335 473 OFFCURVE",
"300 473 CURVE SMOOTH",
"280 473 LINE",
"244 303 LINE",
"266 303 LINE SMOOTH",
"280 303 OFFCURVE",
"312 288 OFFCURVE",
"312 250 CURVE SMOOTH",
"312 198 OFFCURVE",
"266 168 OFFCURVE",
"219 168 CURVE"
);
}
);
};
layerId = UUID0;
paths = (
{
closed = 1;
nodes = (
"182 -6 LINE",
"325 -6 OFFCURVE",
"511 50 OFFCURVE",
"511 258 CURVE SMOOTH",
"511 328 OFFCURVE",
"481 380 OFFCURVE",
"431 403 CURVE",
"477 426 OFFCURVE",
"531 499 OFFCURVE",
"531 578 CURVE SMOOTH",
"531 664 OFFCURVE",
"465 714 OFFCURVE",
"367 714 CURVE SMOOTH",
"237 714 OFFCURVE",
"119 635 OFFCURVE",
"96 529 CURVE SMOOTH",
"-16 0 LINE",
"164 0 LINE",
"269 494 LINE SMOOTH",
"277 533 OFFCURVE",
"289 554 OFFCURVE",
"313 554 CURVE SMOOTH",
"329 554 OFFCURVE",
"341 542 OFFCURVE",
"341 522 CURVE SMOOTH",
"341 505 OFFCURVE",
"335 473 OFFCURVE",
"300 473 CURVE SMOOTH",
"280 473 LINE",
"244 303 LINE",
"266 303 LINE SMOOTH",
"280 303 OFFCURVE",
"312 288 OFFCURVE",
"312 250 CURVE SMOOTH",
"312 198 OFFCURVE",
"266 168 OFFCURVE",
"219 168 CURVE"
);
}
);
width = 546;
}
);
leftKerningGroup = h;
unicode = 00DF;
},
{
glyphname = greater;
lastChange = "2016-08-18 22:46:43 +0000";
layers = (
{
background = {
paths = (
{
closed = 1;
nodes = (
"507 298 LINE",
"83 556 LINE",
"83 354 LINE",
"231 259 LINE",
"83 172 LINE",
"83 -40 LINE",
"507 210 LINE"
);
}
);
};
layerId = UUID0;
paths = (
{
closed = 1;
nodes = (
"507 298 LINE",
"83 556 LINE",
"83 354 LINE",
"231 259 LINE",
"83 172 LINE",
"83 -40 LINE",
"507 210 LINE"
);
}
);
width = 555;
}
);
unicode = 003E;
},
{
glyphname = guillemotleft;
lastChange = "2016-08-18 22:46:43 +0000";
layers = (
{
background = {
paths = (
{
closed = 1;
nodes = (
"11 210 LINE",
"238 30 LINE",
"270 182 LINE",
"170 259 LINE",
"305 344 LINE",
"337 496 LINE",
"30 298 LINE"
);
},
{
closed = 1;
nodes = (
"355 210 LINE",
"582 30 LINE",
"614 182 LINE",
"514 259 LINE",
"648 344 LINE",
"681 496 LINE",
"373 298 LINE"
);
}
);
};
layerId = UUID0;
paths = (
{
closed = 1;
nodes = (
"11 210 LINE",
"238 30 LINE",
"270 182 LINE",
"170 259 LINE",
"305 344 LINE",
"337 496 LINE",
"30 298 LINE"
);
},
{
closed = 1;
nodes = (
"355 210 LINE",
"582 30 LINE",
"614 182 LINE",
"514 259 LINE",
"648 344 LINE",
"681 496 LINE",
"373 298 LINE"
);
}
);
width = 693;
}
);
leftKerningGroup = guilsinglleft;
rightKerningGroup = guilsinglleft;
unicode = 00AB;
},
{
glyphname = guillemotright;
lastChange = "2016-08-18 22:46:43 +0000";
layers = (
{
background = {
paths = (
{
closed = 1;
nodes = (
"662 298 LINE",
"439 496 LINE",
"406 344 LINE",
"505 259 LINE",
"372 182 LINE",
"340 30 LINE",
"643 210 LINE"
);
},
{
closed = 1;
nodes = (
"318 298 LINE",
"95 496 LINE",
"63 344 LINE",
"161 259 LINE",
"28 182 LINE",
"-4 30 LINE",
"300 210 LINE"
);
}
);
};
layerId = UUID0;
paths = (
{
closed = 1;
nodes = (
"662 298 LINE",
"439 496 LINE",
"406 344 LINE",
"505 259 LINE",
"372 182 LINE",
"340 30 LINE",
"643 210 LINE"
);
},
{
closed = 1;
nodes = (
"318 298 LINE",
"95 496 LINE",
"63 344 LINE",
"161 259 LINE",
"28 182 LINE",
"-4 30 LINE",
"300 210 LINE"
);
}
);
width = 693;
}
);
leftKerningGroup = guilsinglright;
rightKerningGroup = guilsinglright;
unicode = 00BB;
},
{
glyphname = guilsinglleft;
lastChange = "2016-08-18 22:46:43 +0000";
layers = (
{
background = {
paths = (
{
closed = 1;
nodes = (
"11 210 LINE",
"238 30 LINE",
"270 182 LINE",
"170 259 LINE",
"305 344 LINE",
"337 496 LINE",
"30 298 LINE"
);
}
);
};
layerId = UUID0;
paths = (
{
closed = 1;
nodes = (
"11 210 LINE",
"238 30 LINE",
"270 182 LINE",
"170 259 LINE",
"305 344 LINE",
"337 496 LINE",
"30 298 LINE"
);
}
);
width = 349;
}
);
leftKerningGroup = guilsinglleft;
rightKerningGroup = guilsinglleft;
unicode = 2039;
},
{
glyphname = guilsinglright;
lastChange = "2016-08-18 22:46:43 +0000";
layers = (
{
background = {
paths = (
{
closed = 1;
nodes = (
"318 298 LINE",
"95 496 LINE",
"63 344 LINE",
"161 259 LINE",
"28 182 LINE",
"-4 30 LINE",
"300 210 LINE"
);
}
);
};
layerId = UUID0;
paths = (
{
closed = 1;
nodes = (
"318 298 LINE",
"95 496 LINE",
"63 344 LINE",
"161 259 LINE",
"28 182 LINE",
"-4 30 LINE",
"300 210 LINE"
);
}
);
width = 349;
}
);
leftKerningGroup = guilsinglright;
rightKerningGroup = guilsinglright;
unicode = 203A;
},
{
glyphname = h;
lastChange = "2016-08-18 22:46:43 +0000";
layers = (
{
anchors = (
{
name = top;
position = "{446, 521}";
}
);
background = {
paths = (
{
closed = 1;
nodes = (
"-16 0 LINE",
"174 0 LINE",
"237 295 LINE",
"263 341 OFFCURVE",
"309 370 OFFCURVE",
"329 370 CURVE SMOOTH",
"353 370 OFFCURVE",
"370 356 OFFCURVE",
"370 323 CURVE SMOOTH",
"370 315 OFFCURVE",
"369 306 OFFCURVE",
"367 296 CURVE SMOOTH",
"304 0 LINE",
"494 0 LINE",
"567 346 LINE SMOOTH",
"572 369 OFFCURVE",
"576 395 OFFCURVE",
"576 420 CURVE SMOOTH",
"576 480 OFFCURVE",
"551 536 OFFCURVE",
"451 536 CURVE SMOOTH",
"381 536 OFFCURVE",
"316 505 OFFCURVE",
"269 448 CURVE",
"329 730 LINE",
"139 730 LINE"
);
}
);
};
layerId = UUID0;
paths = (
{
closed = 1;
nodes = (
"-16 0 LINE",
"174 0 LINE",
"237 295 LINE",
"263 341 OFFCURVE",
"309 370 OFFCURVE",
"329 370 CURVE SMOOTH",
"353 370 OFFCURVE",
"370 356 OFFCURVE",
"370 323 CURVE SMOOTH",
"370 315 OFFCURVE",
"369 306 OFFCURVE",
"367 296 CURVE SMOOTH",
"304 0 LINE",
"494 0 LINE",
"567 346 LINE SMOOTH",
"572 369 OFFCURVE",
"576 395 OFFCURVE",
"576 420 CURVE SMOOTH",
"576 480 OFFCURVE",
"551 536 OFFCURVE",
"451 536 CURVE SMOOTH",
"381 536 OFFCURVE",
"316 505 OFFCURVE",
"269 448 CURVE",
"329 730 LINE",
"139 730 LINE"
);
}
);
width = 601;
}
);
leftKerningGroup = h;
rightKerningGroup = h;
unicode = 0068;
},
{
glyphname = hbar;
lastChange = "2016-08-18 22:46:43 +0000";
layers = (
{
background = {
paths = (
{
closed = 1;
nodes = (
"61 579 LINE",
"386 579 LINE",
"409 688 LINE",
"84 688 LINE"
);
},
{
closed = 1;
nodes = (
"-16 0 LINE",
"174 0 LINE",
"237 295 LINE",
"263 341 OFFCURVE",
"309 370 OFFCURVE",
"329 370 CURVE SMOOTH",
"353 370 OFFCURVE",
"370 356 OFFCURVE",
"370 323 CURVE SMOOTH",
"370 315 OFFCURVE",
"369 306 OFFCURVE",
"367 296 CURVE SMOOTH",
"304 0 LINE",
"494 0 LINE",
"567 346 LINE SMOOTH",
"572 369 OFFCURVE",
"576 395 OFFCURVE",
"576 420 CURVE SMOOTH",
"576 480 OFFCURVE",
"551 536 OFFCURVE",
"451 536 CURVE SMOOTH",
"381 536 OFFCURVE",
"316 505 OFFCURVE",
"269 448 CURVE",
"329 730 LINE",
"139 730 LINE"
);
}
);
};
layerId = UUID0;
paths = (
{
closed = 1;
nodes = (
"61 579 LINE",
"386 579 LINE",
"409 688 LINE",
"84 688 LINE"
);
},
{
closed = 1;
nodes = (
"-16 0 LINE",
"174 0 LINE",
"237 295 LINE",
"263 341 OFFCURVE",
"309 370 OFFCURVE",
"329 370 CURVE SMOOTH",
"353 370 OFFCURVE",
"370 356 OFFCURVE",
"370 323 CURVE SMOOTH",
"370 315 OFFCURVE",
"369 306 OFFCURVE",
"367 296 CURVE SMOOTH",
"304 0 LINE",
"494 0 LINE",
"567 346 LINE SMOOTH",
"572 369 OFFCURVE",
"576 395 OFFCURVE",
"576 420 CURVE SMOOTH",
"576 480 OFFCURVE",
"551 536 OFFCURVE",
"451 536 CURVE SMOOTH",
"381 536 OFFCURVE",
"316 505 OFFCURVE",
"269 448 CURVE",
"329 730 LINE",
"139 730 LINE"
);
}
);
width = 601;
}
);
leftKerningGroup = h;
rightKerningGroup = h;
unicode = 0127;
},
{
glyphname = hyphen;
lastChange = "2016-08-18 22:46:43 +0000";
layers = (
{
background = {
paths = (
{
closed = 1;
nodes = (
"325 191 LINE",
"361 361 LINE",
"62 361 LINE",
"26 191 LINE"
);
}
);
};
layerId = UUID0;
paths = (
{
closed = 1;
nodes = (
"325 191 LINE",
"361 361 LINE",
"62 361 LINE",
"26 191 LINE"
);
}
);
width = 398;
}
);
leftKerningGroup = hyphen;
rightKerningGroup = hyphen;
unicode = 002D;
},
{
glyphname = i;
lastChange = "2016-08-18 22:46:43 +0000";
layers = (
{
background = {
paths = (
{
closed = 1;
nodes = (
"-16 0 LINE",
"174 0 LINE",
"286 526 LINE",
"96 526 LINE"
);
},
{
closed = 1;
nodes = (
"105 570 LINE",
"295 570 LINE",
"329 730 LINE",
"139 730 LINE"
);
}
);
};
layerId = UUID0;
paths = (
{
closed = 1;
nodes = (
"-16 0 LINE",
"174 0 LINE",
"286 526 LINE",
"96 526 LINE"
);
},
{
closed = 1;
nodes = (
"105 570 LINE",
"295 570 LINE",
"329 730 LINE",
"139 730 LINE"
);
}
);
width = 286;
}
);
leftKerningGroup = i;
rightKerningGroup = i;
unicode = 0069;
},
{
glyphname = j;
lastChange = "2016-08-18 22:46:43 +0000";
layers = (
{
background = {
paths = (
{
closed = 1;
nodes = (
"52 -209 OFFCURVE",
"153 -119 OFFCURVE",
"181 12 CURVE SMOOTH",
"290 526 LINE",
"99 526 LINE",
"-13 -3 LINE SMOOTH",
"-19 -30 OFFCURVE",
"-34 -46 OFFCURVE",
"-56 -46 CURVE SMOOTH",
"-72 -46 OFFCURVE",
"-87 -38 OFFCURVE",
"-94 -26 CURVE",
"-199 -155 LINE",
"-167 -190 OFFCURVE",
"-119 -209 OFFCURVE",
"-66 -209 CURVE SMOOTH"
);
},
{
closed = 1;
nodes = (
"109 570 LINE",
"299 570 LINE",
"333 730 LINE",
"143 730 LINE"
);
}
);
};
layerId = UUID0;
paths = (
{
closed = 1;
nodes = (
"-66 -209 LINE SMOOTH",
"52 -209 OFFCURVE",
"153 -119 OFFCURVE",
"181 12 CURVE SMOOTH",
"290 526 LINE",
"99 526 LINE",
"-13 -3 LINE SMOOTH",
"-19 -30 OFFCURVE",
"-34 -46 OFFCURVE",
"-56 -46 CURVE SMOOTH",
"-72 -46 OFFCURVE",
"-87 -38 OFFCURVE",
"-94 -26 CURVE",
"-199 -155 LINE",
"-167 -190 OFFCURVE",
"-119 -209 OFFCURVE",
"-66 -209 CURVE SMOOTH"
);
},
{
closed = 1;
nodes = (
"109 570 LINE",
"299 570 LINE",
"333 730 LINE",
"143 730 LINE"
);
}
);
width = 290;
}
);
leftKerningGroup = i;
rightKerningGroup = i;
unicode = 006A;
},
{
glyphname = j.alt;
lastChange = "2016-08-18 22:46:43 +0000";
layers = (
{
background = {
paths = (
{
closed = 1;
nodes = (
"-61 -213 LINE",
"129 -213 LINE",
"284 517 LINE",
"94 517 LINE"
);
},
{
closed = 1;
nodes = (
"105 570 LINE",
"294 570 LINE",
"328 730 LINE",
"139 730 LINE"
);
}
);
};
layerId = UUID0;
paths = (
{
closed = 1;
nodes = (
"-61 -213 LINE",
"129 -213 LINE",
"284 517 LINE",
"94 517 LINE"
);
},
{
closed = 1;
nodes = (
"105 570 LINE",
"294 570 LINE",
"328 730 LINE",
"139 730 LINE"
);
}
);
width = 286;
}
);
leftKerningGroup = i;
rightKerningGroup = i;
},
{
glyphname = k;
lastChange = "2016-08-18 22:46:43 +0000";
layers = (
{
anchors = (
{
name = bottom;
position = "{237, 0}";
}
);
background = {
paths = (
{
closed = 1;
nodes = (
"309 0 LINE",
"509 0 LINE",
"432 189 LINE",
"514 239 OFFCURVE",
"562 318 OFFCURVE",
"562 407 CURVE SMOOTH",
"562 486 OFFCURVE",
"520 531 OFFCURVE",
"447 531 CURVE SMOOTH",
"363 531 OFFCURVE",
"290 473 OFFCURVE",
"239 365 CURVE",
"209 197 LINE",
"229 287 OFFCURVE",
"296 369 OFFCURVE",
"349 369 CURVE SMOOTH",
"374 369 OFFCURVE",
"392 350 OFFCURVE",
"392 324 CURVE SMOOTH",
"392 273 OFFCURVE",
"331 232 OFFCURVE",
"235 215 CURVE"
);
},
{
closed = 1;
nodes = (
"-16 0 LINE",
"172 0 LINE",
"327 730 LINE",
"139 730 LINE"
);
}
);
};
layerId = UUID0;
paths = (
{
closed = 1;
nodes = (
"309 0 LINE",
"509 0 LINE",
"432 189 LINE",
"514 239 OFFCURVE",
"562 318 OFFCURVE",
"562 407 CURVE SMOOTH",
"562 486 OFFCURVE",
"520 531 OFFCURVE",
"447 531 CURVE SMOOTH",
"363 531 OFFCURVE",
"290 473 OFFCURVE",
"239 365 CURVE",
"209 197 LINE",
"229 287 OFFCURVE",
"296 369 OFFCURVE",
"349 369 CURVE SMOOTH",
"374 369 OFFCURVE",
"392 350 OFFCURVE",
"392 324 CURVE SMOOTH",
"392 273 OFFCURVE",
"331 232 OFFCURVE",
"235 215 CURVE"
);
},
{
closed = 1;
nodes = (
"-16 0 LINE",
"172 0 LINE",
"327 730 LINE",
"139 730 LINE"
);
}
);
width = 582;
}
);
leftKerningGroup = h;
rightKerningGroup = k;
unicode = 006B;
},
{
glyphname = kgreenlandic;
lastChange = "2016-08-18 22:46:43 +0000";
layers = (
{
background = {
paths = (
{
closed = 1;
nodes = (
"-16 0 LINE",
"174 0 LINE",
"206 150 LINE",
"245 192 LINE",
"312 0 LINE",
"513 0 LINE",
"388 296 LINE",
"606 526 LINE",
"407 526 LINE",
"244 331 LINE",
"286 526 LINE",
"96 526 LINE"
);
}
);
};
layerId = UUID0;
paths = (
{
closed = 1;
nodes = (
"-16 0 LINE",
"174 0 LINE",
"206 150 LINE",
"245 192 LINE",
"312 0 LINE",
"513 0 LINE",
"388 296 LINE",
"606 526 LINE",
"407 526 LINE",
"244 331 LINE",
"286 526 LINE",
"96 526 LINE"
);
}
);
width = 564;
}
);
unicode = 0138;
},
{
glyphname = l;
lastChange = "2016-08-18 22:46:43 +0000";
layers = (
{
anchors = (
{
name = bottom;
position = "{116, 0}";
},
{
name = top;
position = "{195, 521}";
}
);
background = {
paths = (
{
closed = 1;
nodes = (
"181 -10 OFFCURVE",
"245 3 OFFCURVE",
"293 24 CURVE",
"299 164 LINE",
"282 155 OFFCURVE",
"262 149 OFFCURVE",
"247 149 CURVE SMOOTH",
"223 149 OFFCURVE",
"211 162 OFFCURVE",
"211 187 CURVE SMOOTH",
"211 193 OFFCURVE",
"212 201 OFFCURVE",
"214 209 CURVE SMOOTH",
"325 730 LINE",
"135 730 LINE",
"10 142 LINE SMOOTH",
"6 126 OFFCURVE",
"5 111 OFFCURVE",
"5 97 CURVE SMOOTH",
"5 28 OFFCURVE",
"49 -10 OFFCURVE",
"132 -10 CURVE SMOOTH"
);
}
);
};
layerId = UUID0;
paths = (
{
closed = 1;
nodes = (
"132 -10 LINE SMOOTH",
"181 -10 OFFCURVE",
"245 3 OFFCURVE",
"293 24 CURVE",
"299 164 LINE",
"282 155 OFFCURVE",
"262 149 OFFCURVE",
"247 149 CURVE SMOOTH",
"223 149 OFFCURVE",
"211 162 OFFCURVE",
"211 187 CURVE SMOOTH",
"211 193 OFFCURVE",
"212 201 OFFCURVE",
"214 209 CURVE SMOOTH",
"325 730 LINE",
"135 730 LINE",
"10 142 LINE SMOOTH",
"6 126 OFFCURVE",
"5 111 OFFCURVE",
"5 97 CURVE SMOOTH",
"5 28 OFFCURVE",
"49 -10 OFFCURVE",
"132 -10 CURVE SMOOTH"
);
}
);
width = 345;
}
);
leftKerningGroup = l;
rightKerningGroup = l;
unicode = 006C;
},
{
glyphname = l.alt;
lastChange = "2016-08-18 22:46:43 +0000";
layers = (
{
background = {
paths = (
{
closed = 1;
nodes = (
"-16 0 LINE",
"52 0 OFFCURVE",
"174 0 OFFCURVE",
"174 0 CURVE",
"329 730 LINE",
"139 730 LINE"
);
}
);
};
layerId = UUID0;
paths = (
{
closed = 1;
nodes = (
"-16 0 LINE",
"52 0 OFFCURVE",
"174 0 OFFCURVE",
"174 0 CURVE",
"329 730 LINE",
"139 730 LINE"
);
}
);
width = 286;
}
);
},
{
glyphname = less;
lastChange = "2016-08-18 22:46:43 +0000";
layers = (
{
background = {
paths = (
{
closed = 1;
nodes = (
"28 210 LINE",
"452 -40 LINE",
"452 172 LINE",
"304 259 LINE",
"452 354 LINE",
"452 556 LINE",
"28 298 LINE"
);
}
);
};
layerId = UUID0;
paths = (
{
closed = 1;
nodes = (
"28 210 LINE",
"452 -40 LINE",
"452 172 LINE",
"304 259 LINE",
"452 354 LINE",
"452 556 LINE",
"28 298 LINE"
);
}
);
width = 554;
}
);
unicode = 003C;
},
{
glyphname = logicalnot;
lastChange = "2016-08-18 22:46:43 +0000";
layers = (
{
background = {
paths = (
{
closed = 1;
nodes = (
"74 431 LINE",
"38 261 LINE",
"388 261 LINE",
"351 89 LINE",
"511 89 LINE",
"584 431 LINE"
);
}
);
};
layerId = UUID0;
paths = (
{
closed = 1;
nodes = (
"74 431 LINE",
"38 261 LINE",
"388 261 LINE",
"351 89 LINE",
"511 89 LINE",
"584 431 LINE"
);
}
);
width = 615;
}
);
unicode = 00AC;
},
{
glyphname = lslash;
lastChange = "2016-08-18 22:46:43 +0000";
layers = (
{
background = {
paths = (
{
closed = 1;
nodes = (
"25 252 LINE",
"409 426 LINE",
"388 527 LINE",
"4 353 LINE"
);
},
{
closed = 1;
nodes = (
"229 -10 OFFCURVE",
"292 3 OFFCURVE",
"341 24 CURVE",
"347 164 LINE",
"330 155 OFFCURVE",
"310 149 OFFCURVE",
"295 149 CURVE SMOOTH",
"271 149 OFFCURVE",
"259 162 OFFCURVE",
"259 187 CURVE SMOOTH",
"259 193 OFFCURVE",
"260 201 OFFCURVE",
"262 209 CURVE SMOOTH",
"373 730 LINE",
"183 730 LINE",
"58 142 LINE SMOOTH",
"54 126 OFFCURVE",
"53 111 OFFCURVE",
"53 97 CURVE SMOOTH",
"53 28 OFFCURVE",
"97 -10 OFFCURVE",
"180 -10 CURVE SMOOTH"
);
}
);
};
layerId = UUID0;
paths = (
{
closed = 1;
nodes = (
"25 252 LINE",
"409 426 LINE",
"388 527 LINE",
"4 353 LINE"
);
},
{
closed = 1;
nodes = (
"180 -10 LINE SMOOTH",
"229 -10 OFFCURVE",
"292 3 OFFCURVE",
"341 24 CURVE",
"347 164 LINE",
"330 155 OFFCURVE",
"310 149 OFFCURVE",
"295 149 CURVE SMOOTH",
"271 149 OFFCURVE",
"259 162 OFFCURVE",
"259 187 CURVE SMOOTH",
"259 193 OFFCURVE",
"260 201 OFFCURVE",
"262 209 CURVE SMOOTH",
"373 730 LINE",
"183 730 LINE",
"58 142 LINE SMOOTH",
"54 126 OFFCURVE",
"53 111 OFFCURVE",
"53 97 CURVE SMOOTH",
"53 28 OFFCURVE",
"97 -10 OFFCURVE",
"180 -10 CURVE SMOOTH"
);
}
);
width = 394;
}
);
leftKerningGroup = l;
rightKerningGroup = l;
unicode = 0142;
},
{
glyphname = m;
lastChange = "2016-08-18 22:46:43 +0000";
layers = (
{
background = {
paths = (
{
closed = 1;
nodes = (
"-16 0 LINE",
"174 0 LINE",
"237 295 LINE",
"259 336 OFFCURVE",
"301 370 OFFCURVE",
"328 370 CURVE SMOOTH",
"346 370 OFFCURVE",
"361 356 OFFCURVE",
"361 325 CURVE SMOOTH",
"361 317 OFFCURVE",
"360 307 OFFCURVE",
"358 296 CURVE SMOOTH",
"295 0 LINE",
"485 0 LINE",
"547 295 LINE",
"570 337 OFFCURVE",
"612 370 OFFCURVE",
"639 370 CURVE SMOOTH",
"656 370 OFFCURVE",
"671 356 OFFCURVE",
"671 325 CURVE SMOOTH",
"671 317 OFFCURVE",
"670 307 OFFCURVE",
"668 296 CURVE SMOOTH",
"605 0 LINE",
"795 0 LINE",
"869 346 LINE SMOOTH",
"877 385 OFFCURVE",
"878 408 OFFCURVE",
"878 420 CURVE SMOOTH",
"878 479 OFFCURVE",
"855 536 OFFCURVE",
"760 536 CURVE SMOOTH",
"686 536 OFFCURVE",
"613 502 OFFCURVE",
"566 445 CURVE",
"561 493 OFFCURVE",
"536 536 OFFCURVE",
"447 536 CURVE SMOOTH",
"371 536 OFFCURVE",
"296 505 OFFCURVE",
"250 448 CURVE",
"267 526 LINE",
"96 526 LINE"
);
}
);
};
layerId = UUID0;
paths = (
{
closed = 1;
nodes = (
"-16 0 LINE",
"174 0 LINE",
"237 295 LINE",
"259 336 OFFCURVE",
"301 370 OFFCURVE",
"328 370 CURVE SMOOTH",
"346 370 OFFCURVE",
"361 356 OFFCURVE",
"361 325 CURVE SMOOTH",
"361 317 OFFCURVE",
"360 307 OFFCURVE",
"358 296 CURVE SMOOTH",
"295 0 LINE",
"485 0 LINE",
"547 295 LINE",
"570 337 OFFCURVE",
"612 370 OFFCURVE",
"639 370 CURVE SMOOTH",
"656 370 OFFCURVE",
"671 356 OFFCURVE",
"671 325 CURVE SMOOTH",
"671 317 OFFCURVE",
"670 307 OFFCURVE",
"668 296 CURVE SMOOTH",
"605 0 LINE",
"795 0 LINE",
"869 346 LINE SMOOTH",
"877 385 OFFCURVE",
"878 408 OFFCURVE",
"878 420 CURVE SMOOTH",
"878 479 OFFCURVE",
"855 536 OFFCURVE",
"760 536 CURVE SMOOTH",
"686 536 OFFCURVE",
"613 502 OFFCURVE",
"566 445 CURVE",
"561 493 OFFCURVE",
"536 536 OFFCURVE",
"447 536 CURVE SMOOTH",
"371 536 OFFCURVE",
"296 505 OFFCURVE",
"250 448 CURVE",
"267 526 LINE",
"96 526 LINE"
);
}
);
width = 903;
}
);
leftKerningGroup = n;
rightKerningGroup = n;
unicode = 006D;
},
{
glyphname = minus;
lastChange = "2016-08-18 22:46:43 +0000";
layers = (
{
background = {
paths = (
{
closed = 1;
nodes = (
"485 280 LINE",
"485 430 LINE",
"81 430 LINE",
"81 280 LINE"
);
}
);
};
layerId = UUID0;
paths = (
{
closed = 1;
nodes = (
"485 280 LINE",
"485 430 LINE",
"81 430 LINE",
"81 280 LINE"
);
}
);
width = 548;
}
);
unicode = 2212;
},
{
glyphname = mu;
lastChange = "2016-08-18 22:46:43 +0000";
layers = (
{
background = {
paths = (
{
closed = 1;
nodes = (
"-49 -213 LINE",
"141 -213 LINE",
"180 26 LINE",
"180 3 OFFCURVE",
"197 -10 OFFCURVE",
"226 -10 CURVE SMOOTH",
"279 -10 OFFCURVE",
"348 53 OFFCURVE",
"363 82 CURVE",
"363 63 LINE SMOOTH",
"363 14 OFFCURVE",
"395 -10 OFFCURVE",
"459 -10 CURVE SMOOTH",
"482 -10 OFFCURVE",
"511 -7 OFFCURVE",
"551 0 CURVE",
"585 160 LINE",
"558 161 OFFCURVE",
"547 169 OFFCURVE",
"547 189 CURVE SMOOTH",
"547 195 OFFCURVE",
"548 202 OFFCURVE",
"550 210 CURVE SMOOTH",
"617 526 LINE",
"427 526 LINE",
"359 204 LINE",
"320 159 OFFCURVE",
"291 150 OFFCURVE",
"272 150 CURVE SMOOTH",
"244 150 OFFCURVE",
"230 166 OFFCURVE",
"230 195 CURVE SMOOTH",
"230 203 OFFCURVE",
"232 213 OFFCURVE",
"234 223 CURVE SMOOTH",
"298 526 LINE",
"108 526 LINE"
);
}
);
};
layerId = UUID0;
paths = (
{
closed = 1;
nodes = (
"-49 -213 LINE",
"141 -213 LINE",
"180 26 LINE",
"180 3 OFFCURVE",
"197 -10 OFFCURVE",
"226 -10 CURVE SMOOTH",
"279 -10 OFFCURVE",
"348 53 OFFCURVE",
"363 82 CURVE",
"363 63 LINE SMOOTH",
"363 14 OFFCURVE",
"395 -10 OFFCURVE",
"459 -10 CURVE SMOOTH",
"482 -10 OFFCURVE",
"511 -7 OFFCURVE",
"551 0 CURVE",
"585 160 LINE",
"558 161 OFFCURVE",
"547 169 OFFCURVE",
"547 189 CURVE SMOOTH",
"547 195 OFFCURVE",
"548 202 OFFCURVE",
"550 210 CURVE SMOOTH",
"617 526 LINE",
"427 526 LINE",
"359 204 LINE",
"320 159 OFFCURVE",
"291 150 OFFCURVE",
"272 150 CURVE SMOOTH",
"244 150 OFFCURVE",
"230 166 OFFCURVE",
"230 195 CURVE SMOOTH",
"230 203 OFFCURVE",
"232 213 OFFCURVE",
"234 223 CURVE SMOOTH",
"298 526 LINE",
"108 526 LINE"
);
}
);
width = 668;
}
);
unicode = 00B5;
},
{
glyphname = multiply;
lastChange = "2016-08-18 22:46:43 +0000";
layers = (
{
background = {
paths = (
{
closed = 1;
nodes = (
"362 278 LINE",
"442 358 LINE",
"325 476 LINE",
"245 396 LINE",
"165 476 LINE",
"46 358 LINE",
"126 277 LINE",
"40 191 LINE",
"157 73 LINE",
"244 160 LINE",
"331 73 LINE",
"450 191 LINE"
);
}
);
};
layerId = UUID0;
paths = (
{
closed = 1;
nodes = (
"362 278 LINE",
"442 358 LINE",
"325 476 LINE",
"245 396 LINE",
"165 476 LINE",
"46 358 LINE",
"126 277 LINE",
"40 191 LINE",
"157 73 LINE",
"244 160 LINE",
"331 73 LINE",
"450 191 LINE"
);
}
);
width = 506;
}
);
unicode = 00D7;
},
{
glyphname = n;
lastChange = "2016-08-18 22:46:43 +0000";
layers = (
{
anchors = (
{
name = bottom;
position = "{240, 0}";
},
{
name = top;
position = "{353, 522}";
}
);
background = {
paths = (
{
closed = 1;
nodes = (
"-16 0 LINE",
"174 0 LINE",
"237 295 LINE",
"262 339 OFFCURVE",
"305 370 OFFCURVE",
"331 370 CURVE SMOOTH",
"352 370 OFFCURVE",
"370 355 OFFCURVE",
"370 322 CURVE SMOOTH",
"370 314 OFFCURVE",
"369 306 OFFCURVE",
"367 296 CURVE SMOOTH",
"304 0 LINE",
"494 0 LINE",
"567 346 LINE SMOOTH",
"571 367 OFFCURVE",
"575 392 OFFCURVE",
"575 417 CURVE SMOOTH",
"575 477 OFFCURVE",
"552 536 OFFCURVE",
"455 536 CURVE SMOOTH",
"369 536 OFFCURVE",
"297 505 OFFCURVE",
"250 448 CURVE",
"267 526 LINE",
"96 526 LINE"
);
}
);
};
layerId = UUID0;
paths = (
{
closed = 1;
nodes = (
"-16 0 LINE",
"174 0 LINE",
"237 295 LINE",
"262 339 OFFCURVE",
"305 370 OFFCURVE",
"331 370 CURVE SMOOTH",
"352 370 OFFCURVE",
"370 355 OFFCURVE",
"370 322 CURVE SMOOTH",
"370 314 OFFCURVE",
"369 306 OFFCURVE",
"367 296 CURVE SMOOTH",
"304 0 LINE",
"494 0 LINE",
"567 346 LINE SMOOTH",
"571 367 OFFCURVE",
"575 392 OFFCURVE",
"575 417 CURVE SMOOTH",
"575 477 OFFCURVE",
"552 536 OFFCURVE",
"455 536 CURVE SMOOTH",
"369 536 OFFCURVE",
"297 505 OFFCURVE",
"250 448 CURVE",
"267 526 LINE",
"96 526 LINE"
);
}
);
width = 601;
}
);
leftKerningGroup = n;
rightKerningGroup = n;
unicode = 006E;
},
{
glyphname = nine;
lastChange = "2016-08-18 22:46:43 +0000";
layers = (
{
background = {
paths = (
{
closed = 1;
nodes = (
"86 -155 OFFCURVE",
"20 -122 OFFCURVE",
"-29 -59 CURVE",
"102 63 LINE",
"128 28 OFFCURVE",
"164 9 OFFCURVE",
"205 9 CURVE SMOOTH",
"262 9 OFFCURVE",
"306 51 OFFCURVE",
"325 122 CURVE",
"295 99 OFFCURVE",
"263 88 OFFCURVE",
"222 88 CURVE SMOOTH",
"104 88 OFFCURVE",
"28 169 OFFCURVE",
"28 279 CURVE SMOOTH",
"28 436 OFFCURVE",
"175 571 OFFCURVE",
"340 571 CURVE SMOOTH",
"468 571 OFFCURVE",
"535 479 OFFCURVE",
"535 327 CURVE SMOOTH",
"535 55 OFFCURVE",
"385 -155 OFFCURVE",
"167 -155 CURVE SMOOTH"
);
},
{
closed = 1;
nodes = (
"316 237 OFFCURVE",
"362 283 OFFCURVE",
"362 339 CURVE SMOOTH",
"362 379 OFFCURVE",
"339 412 OFFCURVE",
"306 412 CURVE SMOOTH",
"263 412 OFFCURVE",
"212 360 OFFCURVE",
"212 304 CURVE SMOOTH",
"212 266 OFFCURVE",
"235 237 OFFCURVE",
"269 237 CURVE SMOOTH"
);
}
);
};
layerId = UUID0;
paths = (
{
closed = 1;
nodes = (
"167 -155 LINE SMOOTH",
"86 -155 OFFCURVE",
"20 -122 OFFCURVE",
"-29 -59 CURVE",
"102 63 LINE",
"128 28 OFFCURVE",
"164 9 OFFCURVE",
"205 9 CURVE SMOOTH",
"262 9 OFFCURVE",
"306 51 OFFCURVE",
"325 122 CURVE",
"295 99 OFFCURVE",
"263 88 OFFCURVE",
"222 88 CURVE SMOOTH",
"104 88 OFFCURVE",
"28 169 OFFCURVE",
"28 279 CURVE SMOOTH",
"28 436 OFFCURVE",
"175 571 OFFCURVE",
"340 571 CURVE SMOOTH",
"468 571 OFFCURVE",
"535 479 OFFCURVE",
"535 327 CURVE SMOOTH",
"535 55 OFFCURVE",
"385 -155 OFFCURVE",
"167 -155 CURVE SMOOTH"
);
},
{
closed = 1;
nodes = (
"269 237 LINE SMOOTH",
"316 237 OFFCURVE",
"362 283 OFFCURVE",
"362 339 CURVE SMOOTH",
"362 379 OFFCURVE",
"339 412 OFFCURVE",
"306 412 CURVE SMOOTH",
"263 412 OFFCURVE",
"212 360 OFFCURVE",
"212 304 CURVE SMOOTH",
"212 266 OFFCURVE",
"235 237 OFFCURVE",
"269 237 CURVE SMOOTH"
);
}
);
width = 574;
}
);
unicode = 0039;
},
{
glyphname = nine.lnum;
lastChange = "2016-08-18 22:46:43 +0000";
layers = (
{
background = {
paths = (
{
closed = 1;
nodes = (
"68 581 OFFCURVE",
"216 716 OFFCURVE",
"381 716 CURVE SMOOTH",
"509 716 OFFCURVE",
"576 624 OFFCURVE",
"576 472 CURVE SMOOTH",
"576 200 OFFCURVE",
"426 -10 OFFCURVE",
"208 -10 CURVE SMOOTH",
"127 -10 OFFCURVE",
"61 23 OFFCURVE",
"12 86 CURVE",
"143 208 LINE",
"169 173 OFFCURVE",
"205 154 OFFCURVE",
"246 154 CURVE SMOOTH",
"303 154 OFFCURVE",
"347 196 OFFCURVE",
"365 267 CURVE",
"336 244 OFFCURVE",
"304 233 OFFCURVE",
"262 233 CURVE SMOOTH",
"144 233 OFFCURVE",
"68 314 OFFCURVE",
"68 424 CURVE SMOOTH"
);
},
{
closed = 1;
nodes = (
"303 557 OFFCURVE",
"253 505 OFFCURVE",
"253 449 CURVE SMOOTH",
"253 411 OFFCURVE",
"276 382 OFFCURVE",
"310 382 CURVE SMOOTH",
"357 382 OFFCURVE",
"403 428 OFFCURVE",
"403 484 CURVE SMOOTH",
"403 524 OFFCURVE",
"380 557 OFFCURVE",
"347 557 CURVE SMOOTH"
);
}
);
};
layerId = UUID0;
paths = (
{
closed = 1;
nodes = (
"68 424 LINE SMOOTH",
"68 581 OFFCURVE",
"216 716 OFFCURVE",
"381 716 CURVE SMOOTH",
"509 716 OFFCURVE",
"576 624 OFFCURVE",
"576 472 CURVE SMOOTH",
"576 200 OFFCURVE",
"426 -10 OFFCURVE",
"208 -10 CURVE SMOOTH",
"127 -10 OFFCURVE",
"61 23 OFFCURVE",
"12 86 CURVE",
"143 208 LINE",
"169 173 OFFCURVE",
"205 154 OFFCURVE",
"246 154 CURVE SMOOTH",
"303 154 OFFCURVE",
"347 196 OFFCURVE",
"365 267 CURVE",
"336 244 OFFCURVE",
"304 233 OFFCURVE",
"262 233 CURVE SMOOTH",
"144 233 OFFCURVE",
"68 314 OFFCURVE",
"68 424 CURVE SMOOTH"
);
},
{
closed = 1;
nodes = (
"347 557 LINE SMOOTH",
"303 557 OFFCURVE",
"253 505 OFFCURVE",
"253 449 CURVE SMOOTH",
"253 411 OFFCURVE",
"276 382 OFFCURVE",
"310 382 CURVE SMOOTH",
"357 382 OFFCURVE",
"403 428 OFFCURVE",
"403 484 CURVE SMOOTH",
"403 524 OFFCURVE",
"380 557 OFFCURVE",
"347 557 CURVE SMOOTH"
);
}
);
width = 593;
}
);
},
{
glyphname = nineinferior;
lastChange = "2016-08-18 22:46:43 +0000";
layers = (
{
background = {
paths = (
{
closed = 1;
nodes = (
"1 273 OFFCURVE",
"105 354 OFFCURVE",
"224 354 CURVE SMOOTH",
"319 354 OFFCURVE",
"371 294 OFFCURVE",
"371 193 CURVE SMOOTH",
"371 26 OFFCURVE",
"267 -96 OFFCURVE",
"114 -96 CURVE SMOOTH",
"54 -96 OFFCURVE",
"3 -76 OFFCURVE",
"-28 -37 CURVE",
"50 40 LINE",
"68 19 OFFCURVE",
"102 7 OFFCURVE",
"140 7 CURVE SMOOTH",
"197 7 OFFCURVE",
"239 32 OFFCURVE",
"250 74 CURVE",
"227 60 OFFCURVE",
"185 54 OFFCURVE",
"154 54 CURVE SMOOTH",
"60 54 OFFCURVE",
"1 106 OFFCURVE",
"1 176 CURVE SMOOTH"
);
},
{
closed = 1;
nodes = (
"153 254 OFFCURVE",
"107 225 OFFCURVE",
"107 194 CURVE SMOOTH",
"107 168 OFFCURVE",
"138 149 OFFCURVE",
"179 149 CURVE SMOOTH",
"228 149 OFFCURVE",
"273 174 OFFCURVE",
"273 205 CURVE SMOOTH",
"273 231 OFFCURVE",
"243 254 OFFCURVE",
"201 254 CURVE SMOOTH"
);
}
);
};
layerId = UUID0;
paths = (
{
closed = 1;
nodes = (
"1 176 LINE SMOOTH",
"1 273 OFFCURVE",
"105 354 OFFCURVE",
"224 354 CURVE SMOOTH",
"319 354 OFFCURVE",
"371 294 OFFCURVE",
"371 193 CURVE SMOOTH",
"371 26 OFFCURVE",
"267 -96 OFFCURVE",
"114 -96 CURVE SMOOTH",
"54 -96 OFFCURVE",
"3 -76 OFFCURVE",
"-28 -37 CURVE",
"50 40 LINE",
"68 19 OFFCURVE",
"102 7 OFFCURVE",
"140 7 CURVE SMOOTH",
"197 7 OFFCURVE",
"239 32 OFFCURVE",
"250 74 CURVE",
"227 60 OFFCURVE",
"185 54 OFFCURVE",
"154 54 CURVE SMOOTH",
"60 54 OFFCURVE",
"1 106 OFFCURVE",
"1 176 CURVE SMOOTH"
);
},
{
closed = 1;
nodes = (
"201 254 LINE SMOOTH",
"153 254 OFFCURVE",
"107 225 OFFCURVE",
"107 194 CURVE SMOOTH",
"107 168 OFFCURVE",
"138 149 OFFCURVE",
"179 149 CURVE SMOOTH",
"228 149 OFFCURVE",
"273 174 OFFCURVE",
"273 205 CURVE SMOOTH",
"273 231 OFFCURVE",
"243 254 OFFCURVE",
"201 254 CURVE SMOOTH"
);
}
);
width = 430;
}
);
unicode = 2089;
},
{
glyphname = ninesuperior;
lastChange = "2016-08-18 22:46:43 +0000";
layers = (
{
background = {
paths = (
{
closed = 1;
nodes = (
"100 739 OFFCURVE",
"204 820 OFFCURVE",
"323 820 CURVE SMOOTH",
"417 820 OFFCURVE",
"470 760 OFFCURVE",
"470 659 CURVE SMOOTH",
"470 492 OFFCURVE",
"366 370 OFFCURVE",
"213 370 CURVE SMOOTH",
"153 370 OFFCURVE",
"102 390 OFFCURVE",
"71 429 CURVE",
"149 506 LINE",
"167 485 OFFCURVE",
"201 473 OFFCURVE",
"239 473 CURVE SMOOTH",
"296 473 OFFCURVE",
"338 498 OFFCURVE",
"349 540 CURVE",
"326 526 OFFCURVE",
"284 520 OFFCURVE",
"253 520 CURVE SMOOTH",
"159 520 OFFCURVE",
"100 572 OFFCURVE",
"100 642 CURVE SMOOTH"
);
},
{
closed = 1;
nodes = (
"252 720 OFFCURVE",
"206 691 OFFCURVE",
"206 660 CURVE SMOOTH",
"206 634 OFFCURVE",
"237 615 OFFCURVE",
"278 615 CURVE SMOOTH",
"327 615 OFFCURVE",
"372 640 OFFCURVE",
"372 671 CURVE SMOOTH",
"372 697 OFFCURVE",
"341 720 OFFCURVE",
"300 720 CURVE SMOOTH"
);
}
);
};
layerId = UUID0;
paths = (
{
closed = 1;
nodes = (
"100 642 LINE SMOOTH",
"100 739 OFFCURVE",
"204 820 OFFCURVE",
"323 820 CURVE SMOOTH",
"417 820 OFFCURVE",
"470 760 OFFCURVE",
"470 659 CURVE SMOOTH",
"470 492 OFFCURVE",
"366 370 OFFCURVE",
"213 370 CURVE SMOOTH",
"153 370 OFFCURVE",
"102 390 OFFCURVE",
"71 429 CURVE",
"149 506 LINE",
"167 485 OFFCURVE",
"201 473 OFFCURVE",
"239 473 CURVE SMOOTH",
"296 473 OFFCURVE",
"338 498 OFFCURVE",
"349 540 CURVE",
"326 526 OFFCURVE",
"284 520 OFFCURVE",
"253 520 CURVE SMOOTH",
"159 520 OFFCURVE",
"100 572 OFFCURVE",
"100 642 CURVE SMOOTH"
);
},
{
closed = 1;
nodes = (
"300 720 LINE SMOOTH",
"252 720 OFFCURVE",
"206 691 OFFCURVE",
"206 660 CURVE SMOOTH",
"206 634 OFFCURVE",
"237 615 OFFCURVE",
"278 615 CURVE SMOOTH",
"327 615 OFFCURVE",
"372 640 OFFCURVE",
"372 671 CURVE SMOOTH",
"372 697 OFFCURVE",
"341 720 OFFCURVE",
"300 720 CURVE SMOOTH"
);
}
);
width = 431;
}
);
unicode = 2079;
},
